<?xml version="1.0" encoding="UTF-8"?>
<!DOCTYPE svg PUBLIC "-//W3C//DTD SVG 1.1//EN" "http://www.w3.org/Graphics/SVG/1.1/DTD/svg11.dtd">
<!-- Creator: CorelDRAW 2018 (64-Bit) -->
<svg xmlns="http://www.w3.org/2000/svg" xml:space="preserve" width="462px" height="500px" version="1.1" style="shape-rendering:geometricPrecision; text-rendering:geometricPrecision; image-rendering:optimizeQuality; fill-rule:evenodd; clip-rule:evenodd"
viewBox="0 0 462 499.79"
 xmlns:xlink="http://www.w3.org/1999/xlink">
 <defs>
  <style type="text/css">
   <![CDATA[
    .fil1 {fill:#005994}
    .fil0 {fill:white;fill-opacity:0.000000}
   ]]>
  </style>
 </defs>
 <g id="Слой_x0020_1">
  <metadata id="CorelCorpID_0Corel-Layer"/>
  <g id="_2053658664848">
   <polygon class="fil0" points="0,499.79 462,499.79 462,0 0,0 "/>
  </g>
  <g id="_2053658664784">
   <path class="fil1" d="M278.95 306.78l0 -0.41 0.4 0 0 0.41 -0.4 0zm-1.22 -10.16l0.4 0 0 0.41 -0.4 0 0 -0.41zm0 0l-0.41 0 0 -0.4 0.41 0 0 0.4zm-0.41 -0.4l-0.4 0 0 -0.41 0.4 0 0 0.41zm-0.4 -0.41l-0.41 0 0 -0.41 0.41 0 0 0.41zm-143.03 -38.2l0.4 0 0 0.41 -0.4 0 0 -0.41zm9.75 -1.21l0 0.4 -0.41 0 0 -0.4 0.41 0zm0.41 -0.41l0 0.41 -0.41 0 0 -0.41 0.41 0zm0.4 -0.41l0 0.41 -0.4 0 0 -0.41 0.4 0zm0.41 -0.4l0 0.4 -0.41 0 0 -0.4 0.41 0zm172.28 -91.02l0 0.41 -0.41 0 0 -0.41 0.41 0zm0.41 -0.41l0 0.41 -0.41 0 0 -0.41 0.41 0zm0.4 -0.4l0 0.4 -0.4 0 0 -0.4 0.4 0zm0 0l0 -0.41 0.41 0 0 0.41 -0.41 0zm9.35 -1.63l-0.41 0 0 -0.4 0.41 0 0 0.4zm-10.57 2.85l0 0.4 -0.4 0 0 0.41 -0.41 0 0 0.4 -0.41 0 0 0.41 -0.4 0 0 0.41 -0.41 0 0 0.4 -0.4 0 0 0.41 -0.41 0 0 0.41 -0.41 0 0 0.4 -0.4 0 0 0.41 -0.41 0 0 0.41 -0.41 0 0 0.4 -0.4 0 0 0.41 -0.41 0 0 0.41 -0.4 0 0 0.4 -0.41 0 0 0.41 -0.41 0 0 0.4 -0.4 0 0 0.41 -0.41 0 0 0.41 -0.41 0 0 0.4 -0.4 0 0 0.41 -0.41 0 0 0.41 -0.4 0 0 0.4 -0.41 0 0 0.41 -0.41 0 0 0.4 -0.4 0 0 0.41 -0.41 0 0 0.41 -0.41 0 0 0.4 -0.4 0 0 0.41 -0.41 0 0 0.41 -0.41 0 0 0.4 -0.4 0 0 0.41 -0.41 0 0 0.4 -0.4 0 0 0.41 -0.41 0 0 0.41 -0.41 0 0 0.4 -0.4 0 0 0.41 -0.41 0 0 0.41 -0.41 0 0 0.4 -0.4 0 0 0.41 -0.41 0 0 0.41 -0.41 0 0 0.4 -0.4 0 0 0.41 -0.41 0 0 0.41 -0.4 0 0 0.4 -0.41 0 0 0.41 -0.41 0 0 0.4 -0.4 0 0 0.41 -0.41 0 0 0.41 -0.41 0 0 0.4 -0.4 0 0 0.41 -0.41 0 0 0.41 -0.4 0 0 0.4 -0.41 0 0 0.41 -0.41 0 0 0.4 -0.4 0 0 0.41 -0.41 0 0 0.41 -0.41 0 0 0.4 -0.4 0 0 0.41 -0.41 0 0 0.41 -0.41 0 0 0.4 -0.4 0 0 0.41 -0.41 0 0 0.4 -0.4 0 0 0.41 -0.41 0 0 0.41 -0.41 0 0 0.4 -0.4 0 0 0.41 -0.41 0 0 0.41 -0.41 0 0 0.4 -0.4 0 0 0.41 -0.41 0 0 0.41 -0.4 0 0 0.4 -0.41 0 0 0.41 -0.41 0 0 0.4 -0.4 0 0 0.41 -0.41 0 0 0.41 -0.41 0 0 0.4 -0.4 0 0 0.41 -0.41 0 0 0.41 -0.41 0 0 0.4 -0.4 0 0 0.41 -0.41 0 0 0.41 -0.4 0 0 0.4 -0.41 0 0 0.41 -0.41 0 0 0.4 -0.4 0 0 0.41 -0.41 0 0 0.41 -0.41 0 0 0.4 -0.4 0 0 0.41 -0.41 0 0 0.41 -0.4 0 0 0.4 -0.41 0 0 0.41 -0.41 0 0 0.4 -0.4 0 0 0.41 -0.41 0 0 0.41 -0.41 0 0 0.4 -0.4 0 0 0.41 -0.41 0 0 0.41 -0.4 0 0 0.4 -0.41 0 0 0.41 -0.41 0 0 0.41 -0.4 0 0 0.4 -0.41 0 0 0.41 -0.41 0 0 0.4 -0.4 0 0 0.41 -0.41 0 0 0.41 -0.41 0 0 0.81 -0.4 0 0 1.22 -0.41 0 0 0.81 0.41 0 0 1.22 0.4 0 0 0.41 0.41 0 0 0.4 0.41 0 0 0.41 0.4 0 0 0.41 0.41 0 0 0.4 0.41 0 0 0.41 0.4 0 0 0.4 0.41 0 0 0.41 0.41 0 0 0.41 0.4 0 0 0.4 0.41 0 0 0.41 0.4 0 0 0.41 0.41 0 0 0.4 0.41 0 0 0.41 0.4 0 0 0.4 0.41 0 0 0.41 0.41 0 0 0.41 0.4 0 0 0.4 0.41 0 0 0.41 0.4 0 0 0.41 0.41 0 0 0.4 0.41 0 0 0.41 0.4 0 0 0.41 0.41 0 0 0.4 0.41 0 0 0.41 0.4 0 0 0.4 0.41 0 0 0.41 0.4 0 0 0.41 0.41 0 0 0.4 0.41 0 0 0.41 0.4 0 0 0.41 0.41 0 0 0.4 0.41 0 0 0.41 0.4 0 0 0.4 0.41 0 0 0.41 0.41 0 0 0.41 0.4 0 0 0.4 0.41 0 0 0.41 0.4 0 0 0.41 0.41 0 0 0.4 0.41 0 0 0.41 0.4 0 0 0.41 0.41 0 0 0.4 0.41 0 0 0.41 0.4 0 0 0.4 0.41 0 0 0.41 0.4 0 0 0.41 0.41 0 0 0.4 0.41 0 0 0.41 0.4 0 0 0.41 0.41 0 0 0.4 0.41 0 0 0.41 0.4 0 0 0.4 0.41 0 0 0.41 0.41 0 0 0.41 0.4 0 0 0.4 0.41 0 0 0.41 0.4 0 0 0.41 0.41 0 0 0.4 3.66 0 0 0.41 4.06 0 0 0.41 3.66 0 0 0.4 3.65 0 0 0.41 4.07 0 0 0.4 3.66 0 0 0.41 4.06 0 0 0.41 -61.76 0 0 0.4 -0.81 0 0 0.41 -0.82 0 0 0.41 -0.4 0 0 0.81 -0.41 0 0 0.81 -0.41 0 0 32.1 0.41 0 0 0.41 0.41 0 0 0.81 0.4 0 0 0.41 0.41 0 0 0.4 0.41 0 0 0.41 0.4 0 0 0.81 0.41 0 0 0.41 0.4 0 0 0.4 0.41 0 0 0.82 0.41 0 0 0.4 0.4 0 0 0.41 0.41 0 0 0.41 0.41 0 0 0.81 0.4 0 0 0.41 0.41 0 0 0.4 0.4 0 0 0.41 0.41 0 0 0.81 0.41 0 0 0.41 0.4 0 0 0.4 0.41 0 0 0.82 0.41 0 0 0.4 0.4 0 0 0.41 0.41 0 0 0.41 0.4 0 0 0.81 0.41 0 0 0.4 0.41 0 0 0.41 0.4 0 0 0.41 0.41 0 0 0.81 0.41 0 0 0.41 0.4 0 0 0.4 0.41 0 0 0.81 0.41 0 0 0.41 0.4 0 0 0.41 0.41 0 0 0.4 0.4 0 0 0.82 0.41 0 0 0.4 0.41 0 0 0.41 0.4 0 0 0.41 0.41 0 0 0.81 0.41 0 0 0.4 0.4 0 0 0.41 0.41 0 0 0.81 -0.41 0 0 -0.4 -0.4 0 0 -0.41 -0.41 0 0 -0.41 -0.41 0 0 -0.4 -0.4 0 0 -0.41 -0.41 0 0 -0.4 -0.41 0 0 -0.41 -0.4 0 0 -0.41 -0.41 0 0 -0.4 -0.4 0 0 -0.41 -0.41 0 0 -0.41 -0.41 0 0 -0.4 -0.4 0 0 -0.41 -0.41 0 0 -0.41 -0.41 0 0 -0.4 -0.4 0 0 -0.41 -0.41 0 0 -0.4 -0.41 0 0 -0.41 -0.4 0 0 -0.41 -0.41 0 0 -0.4 -0.4 0 0 -0.41 -0.41 0 0 -0.41 -0.41 0 0 -0.4 -0.4 0 0 -0.41 -0.41 0 0 -0.4 -0.41 0 0 -0.41 -0.4 0 0 -0.41 -0.41 0 0 -0.4 -0.4 0 0 -0.41 -0.41 0 0 -0.41 -0.41 0 0 -0.4 -0.4 0 0 -0.41 -0.41 0 0 -0.41 -0.41 0 0 -0.4 -0.4 0 0 -0.41 -0.41 0 0 -0.4 -0.4 0 0 -0.41 -0.41 0 0 -0.41 -0.41 0 0 -0.4 -0.4 0 0 -0.41 -0.41 0 0 -0.41 -0.41 0 0 -0.4 -0.4 0 0 -0.41 -0.41 0 0 -0.41 -0.41 0 0 -0.4 -0.4 0 0 -0.41 -0.41 0 0 -0.4 -0.4 0 0 -0.41 -0.41 0 0 -0.41 -0.41 0 0 -0.4 -0.4 0 0 -0.41 -0.41 0 0 -0.41 -0.41 0 0 -0.4 -0.4 0 0 -0.41 -0.41 0 0 -0.4 -0.41 0 0 -0.41 -0.4 0 0 -0.41 -0.41 0 0 -0.4 -0.4 0 0 -0.41 -0.41 0 0 -0.41 -0.41 0 0 -0.4 -0.4 0 0 -0.41 -0.41 0 0 -0.41 -0.41 0 0 -0.4 -0.4 0 0 -0.41 -0.41 0 0 -0.4 -0.4 0 0 -0.41 -0.41 0 0 -0.41 -0.41 0 0 -0.4 -0.4 0 0 -0.41 -0.41 0 0 -0.41 -0.41 0 0 -0.4 -0.4 0 0 -0.41 -0.41 0 0 -0.41 -0.41 0 0 -0.4 -0.4 0 0 -0.41 -0.41 0 0 -0.4 -0.4 0 0 -0.41 -0.41 0 0 -0.41 -0.41 0 0 -0.4 -0.4 0 0 -0.41 -0.41 0 0 -0.41 -0.41 0 0 -0.4 -0.4 0 0 -0.41 -0.41 0 0 -0.4 -0.41 0 0 -0.41 -0.4 0 0 -0.41 -0.41 0 0 -0.4 -0.4 0 0 -0.41 -0.41 0 0 -0.41 -0.41 0 0 -0.4 -0.4 0 0 -0.41 -0.41 0 0 -0.41 -0.41 0 0 -0.4 -0.4 0 0 -0.41 -0.41 0 0 -0.4 -0.4 0 0 -0.41 -0.41 0 0 -0.41 -0.41 0 0 -0.4 -0.4 0 0 -0.41 -0.41 0 0 -0.41 -0.41 0 0 -0.4 -0.4 0 0 -0.41 -0.41 0 0 -0.41 -0.41 0 0 -0.4 -0.4 0 0 -0.41 -0.81 0 0 -0.4 -2.85 0 0 0.4 -0.41 0 0 0.41 -0.81 0 0 0.4 -0.4 0 0 0.41 -0.41 0 0 0.41 -0.41 0 0 0.4 -0.4 0 0 0.41 -0.41 0 0 0.41 -0.41 0 0 0.4 -0.4 0 0 0.41 -0.41 0 0 0.41 -0.41 0 0 0.4 -0.4 0 0 0.41 -0.41 0 0 0.4 -0.4 0 0 0.41 -0.41 0 0 0.41 -0.41 0 0 0.4 -0.4 0 0 0.41 -0.41 0 0 0.41 -0.41 0 0 0.4 -0.4 0 0 0.41 -0.41 0 0 0.41 -0.4 0 0 0.4 -0.41 0 0 0.41 -0.41 0 0 0.4 -0.4 0 0 0.41 -0.41 0 0 0.41 -0.41 0 0 0.4 -0.4 0 0 0.41 -0.41 0 0 0.41 -0.41 0 0 0.4 -0.4 0 0 0.41 -0.41 0 0 0.4 -0.4 0 0 0.41 -0.41 0 0 0.41 -0.41 0 0 0.4 -0.4 0 0 0.41 -0.41 0 0 0.41 -0.41 0 0 0.4 -0.4 0 0 0.41 -0.41 0 0 0.41 -0.41 0 0 0.4 -0.4 0 0 0.41 -0.41 0 0 0.4 -0.4 0 0 0.41 -0.41 0 0 0.41 -0.41 0 0 0.4 -0.4 0 0 0.41 -0.41 0 0 0.41 -0.41 0 0 0.4 -0.4 0 0 0.41 -0.41 0 0 0.41 -0.4 0 0 0.4 -0.41 0 0 0.41 -0.41 0 0 0.4 -0.4 0 0 0.41 -0.41 0 0 0.41 -0.41 0 0 2.84 -0.4 0 0 3.25 -0.41 0 0 3.25 -0.41 0 0 3.25 -0.4 0 0 3.25 -0.41 0 0 3.25 -0.4 0 0 3.26 -0.41 0 0 3.25 -0.41 0 0 3.25 -0.4 0 0 -62.17 -0.41 0 0 -1.22 -0.41 0 0 -0.41 -0.4 0 0 -0.4 -0.41 0 0 -0.41 -0.41 0 0 -0.41 -35.75 0 0 0.41 -0.41 0 0 0.41 -0.4 0 0 0.4 -0.41 0 0 0.41 -0.81 0 0 0.4 -0.41 0 0 0.41 -0.4 0 0 0.41 -0.41 0 0 0.4 -0.81 0 0 0.41 -0.41 0 0 0.41 -0.41 0 0 0.4 -0.4 0 0 0.41 -0.41 0 0 0.41 -0.81 0 0 0.4 -0.41 0 0 0.41 -0.4 0 0 0.4 -0.41 0 0 0.41 -0.81 0 0 0.41 -0.41 0 0 0.4 -0.41 0 0 0.41 -0.4 0 0 0.41 -0.41 0 0 0.4 -0.81 0 0 0.41 -0.41 0 0 0.4 -0.4 0 0 0.41 -0.41 0 0 0.41 -0.81 0 0 0.4 -0.41 0 0 0.41 -0.41 0 0 0.41 -0.4 0 0 0.4 -0.41 0 0 0.41 -0.81 0 0 0.41 -0.41 0 0 0.4 -0.4 0 0 0.41 -0.41 0 0 0.4 -0.81 0 0 0.41 -0.41 0 0 0.41 -0.4 0 0 0.4 -0.41 0 0 0.41 -0.41 0 0 0.41 -0.81 0 0 -0.41 0.41 0 0 -0.41 0.4 0 0 -0.4 0.41 0 0 -0.41 0.41 0 0 -0.41 0.4 0 0 -0.4 0.41 0 0 -0.41 0.4 0 0 -0.4 0.41 0 0 -0.41 0.41 0 0 -0.41 0.4 0 0 -0.4 0.41 0 0 -0.41 0.41 0 0 -0.41 0.4 0 0 -0.4 0.41 0 0 -0.41 0.4 0 0 -0.41 0.41 0 0 -0.4 0.41 0 0 -0.41 0.4 0 0 -0.4 0.41 0 0 -0.41 0.41 0 0 -0.41 0.4 0 0 -0.4 0.41 0 0 -0.41 0.4 0 0 -0.41 0.41 0 0 -0.4 0.41 0 0 -0.41 0.4 0 0 -0.4 0.41 0 0 -0.41 0.41 0 0 -0.41 0.4 0 0 -0.4 0.41 0 0 -0.41 0.41 0 0 -0.41 0.4 0 0 -0.4 0.41 0 0 -0.41 0.4 0 0 -0.41 0.41 0 0 -0.4 0.41 0 0 -0.41 0.4 0 0 -0.4 0.41 0 0 -0.41 0.41 0 0 -0.41 0.4 0 0 -0.4 0.41 0 0 -0.41 0.41 0 0 -0.41 0.4 0 0 -0.4 0.41 0 0 -0.41 0.4 0 0 -0.4 0.41 0 0 -0.41 0.41 0 0 -0.41 0.4 0 0 -0.4 0.41 0 0 -0.41 0.41 0 0 -0.41 0.4 0 0 -0.4 0.41 0 0 -0.41 0.4 0 0 -0.41 0.41 0 0 -0.4 0.41 0 0 -0.41 0.4 0 0 -0.4 0.41 0 0 -0.41 0.41 0 0 -0.41 0.4 0 0 -0.4 0.41 0 0 -0.41 0.41 0 0 -0.41 0.4 0 0 -0.4 0.41 0 0 -0.41 0.4 0 0 -0.4 0.41 0 0 -0.41 0.41 0 0 -0.41 0.4 0 0 -0.4 0.41 0 0 -0.41 0.41 0 0 -0.41 0.4 0 0 -0.4 0.41 0 0 -0.41 0.4 0 0 -0.41 0.41 0 0 -0.4 0.41 0 0 -0.41 0.4 0 0 -0.4 0.41 0 0 -0.41 0.41 0 0 -0.41 0.4 0 0 -0.4 0.41 0 0 -0.41 0.41 0 0 -0.41 0.4 0 0 -0.4 0.41 0 0 -0.41 0.4 0 0 -0.4 0.41 0 0 -0.41 0.41 0 0 -0.41 0.4 0 0 -0.4 0.41 0 0 -0.41 0.41 0 0 -0.41 0.4 0 0 -0.4 0.41 0 0 -0.41 0.4 0 0 -0.41 0.41 0 0 -0.4 0.41 0 0 -0.41 0.4 0 0 -0.4 0.41 0 0 -0.41 0.41 0 0 -0.41 0.4 0 0 -0.4 0.41 0 0 -0.41 0.4 0 0 -0.41 0.41 0 0 -0.4 0.41 0 0 -0.41 0.4 0 0 -0.4 0.41 0 0 -0.41 0.41 0 0 -0.41 0.4 0 0 -0.4 0.41 0 0 -0.41 0.41 0 0 -1.22 0.4 0 0 -1.62 -0.4 0 0 -0.82 -0.41 0 0 -0.81 -0.41 0 0 -0.41 -0.4 0 0 -0.4 -0.41 0 0 -0.41 -0.41 0 0 -0.4 -0.4 0 0 -0.41 -0.41 0 0 -0.41 -0.41 0 0 -0.4 -0.4 0 0 -0.41 -0.41 0 0 -0.41 -0.4 0 0 -0.4 -0.41 0 0 -0.41 -0.41 0 0 -0.41 -0.4 0 0 -0.4 -0.41 0 0 -0.41 -0.41 0 0 -0.4 -0.4 0 0 -0.41 -0.41 0 0 -0.41 -0.4 0 0 -0.4 -0.41 0 0 -0.41 -0.41 0 0 -0.41 -0.4 0 0 -0.4 -0.41 0 0 -0.41 -0.41 0 0 -0.4 -0.4 0 0 -0.41 -0.41 0 0 -0.41 -0.4 0 0 -0.4 -0.41 0 0 -0.41 -0.41 0 0 -0.41 -0.4 0 0 -0.4 -0.41 0 0 -0.41 -0.41 0 0 -0.41 -0.4 0 0 -0.4 -0.41 0 0 -0.41 -0.41 0 0 -0.4 -0.4 0 0 -0.41 -0.41 0 0 -0.41 -0.4 0 0 -0.4 -0.41 0 0 -0.41 -0.41 0 0 -0.41 -0.4 0 0 -0.4 -0.41 0 0 -0.41 -0.41 0 0 -0.41 -0.4 0 0 -0.4 -0.41 0 0 -0.41 -0.4 0 0 -0.4 -0.41 0 0 -0.41 -0.41 0 0 -0.41 -0.4 0 0 -0.4 -0.41 0 0 -0.41 -0.41 0 0 -0.41 -0.4 0 0 -0.4 -0.41 0 0 -0.41 -0.41 0 0 -0.4 -0.4 0 0 -0.41 -0.41 0 0 -0.41 -0.4 0 0 -0.4 -0.41 0 0 -0.41 -0.41 0 0 -0.41 -2.84 0 0 -0.4 -4.47 0 0 -0.41 -4.06 0 0 -0.4 -4.47 0 0 -0.41 -4.07 0 0 -0.41 -4.47 0 0 -0.4 -4.06 0 0 -0.41 64.2 0 0 -0.41 0.4 0 0 -0.4 0.41 0 0 -0.41 0.41 0 0 -0.41 0.4 0 0 -0.81 0.41 0 0 -32.91 -0.41 0 0 -0.41 -0.4 0 0 -0.81 -0.41 0 0 -0.41 -0.41 0 0 -0.4 -0.4 0 0 -0.41 -0.41 0 0 -0.81 -0.4 0 0 -0.41 -0.41 0 0 -0.41 -0.41 0 0 -0.4 -0.4 0 0 -0.81 -0.41 0 0 -0.41 -0.41 0 0 -0.41 -0.4 0 0 -0.4 -0.41 0 0 -0.82 -0.4 0 0 -0.4 -0.41 0 0 -0.41 -0.41 0 0 -0.4 -0.4 0 0 -0.82 -0.41 0 0 -0.4 -0.41 0 0 -0.41 -0.4 0 0 -0.41 -0.41 0 0 -0.81 -0.4 0 0 -0.4 -0.41 0 0 -0.41 -0.41 0 0 -0.41 -0.4 0 0 -0.81 -0.41 0 0 -0.41 -0.41 0 0 -0.4 -0.4 0 0 -0.41 -0.41 0 0 -0.81 -0.41 0 0 -0.41 -0.4 0 0 -0.4 -0.41 0 0 -0.41 -0.4 0 0 -0.81 -0.41 0 0 -0.41 -0.41 0 0 -0.41 -0.4 0 0 -0.4 -0.41 0 0 -0.82 -0.41 0 0 -0.4 -0.4 0 0 -0.41 -0.41 0 0 -0.81 0.41 0 0 0.41 0.4 0 0 0.4 0.41 0 0 0.41 0.41 0 0 0.4 0.4 0 0 0.41 0.41 0 0 0.41 0.41 0 0 0.4 0.4 0 0 0.41 0.41 0 0 0.41 0.4 0 0 0.4 0.41 0 0 0.41 0.41 0 0 0.41 0.4 0 0 0.4 0.41 0 0 0.41 0.41 0 0 0.4 0.4 0 0 0.41 0.41 0 0 0.41 0.41 0 0 0.4 0.4 0 0 0.41 0.41 0 0 0.41 0.4 0 0 0.4 0.41 0 0 0.41 0.41 0 0 0.41 0.4 0 0 0.4 0.41 0 0 0.41 0.41 0 0 0.4 0.4 0 0 0.41 0.41 0 0 0.41 0.4 0 0 0.4 0.41 0 0 0.41 0.41 0 0 0.41 0.4 0 0 0.4 0.41 0 0 0.41 0.41 0 0 0.4 0.4 0 0 0.41 0.41 0 0 0.41 0.4 0 0 0.4 0.41 0 0 0.41 0.41 0 0 0.41 0.4 0 0 0.4 0.41 0 0 0.41 0.41 0 0 0.4 0.4 0 0 0.41 0.41 0 0 0.41 0.41 0 0 0.4 0.4 0 0 0.41 0.41 0 0 0.41 0.4 0 0 0.4 0.41 0 0 0.41 0.41 0 0 0.41 0.4 0 0 0.4 0.41 0 0 0.41 0.41 0 0 0.41 0.4 0 0 0.4 0.41 0 0 0.41 0.41 0 0 0.4 0.4 0 0 0.41 0.41 0 0 0.41 0.4 0 0 0.4 0.41 0 0 0.41 0.41 0 0 0.41 0.4 0 0 0.4 0.41 0 0 0.41 0.41 0 0 0.4 0.4 0 0 0.41 0.41 0 0 0.41 0.4 0 0 0.4 0.41 0 0 0.41 0.41 0 0 0.41 0.4 0 0 0.4 0.41 0 0 0.41 0.41 0 0 0.4 0.4 0 0 0.41 0.41 0 0 0.41 0.41 0 0 0.4 0.4 0 0 0.41 0.41 0 0 0.41 0.4 0 0 0.4 0.41 0 0 0.41 0.41 0 0 0.41 0.4 0 0 0.4 0.41 0 0 0.41 0.41 0 0 0.41 0.4 0 0 0.4 0.41 0 0 0.41 0.41 0 0 0.4 0.4 0 0 0.41 0.41 0 0 0.41 0.4 0 0 0.4 0.41 0 0 0.41 0.41 0 0 0.41 0.4 0 0 0.4 0.41 0 0 0.41 0.41 0 0 0.4 0.4 0 0 0.41 0.41 0 0 0.41 0.4 0 0 0.4 0.41 0 0 0.41 0.41 0 0 0.41 0.4 0 0 0.4 0.41 0 0 0.41 0.41 0 0 0.4 0.4 0 0 0.41 0.41 0 0 0.41 0.41 0 0 0.4 0.81 0 0 0.41 0.81 0 0 0.41 1.63 0 0 -0.41 1.22 0 0 -0.41 0.4 0 0 -0.4 0.41 0 0 -0.41 0.4 0 0 -0.41 0.41 0 0 -0.4 0.41 0 0 -0.41 0.4 0 0 -0.4 0.41 0 0 -0.41 0.41 0 0 -0.41 0.4 0 0 -0.4 0.41 0 0 -0.41 0.41 0 0 -0.41 0.4 0 0 -0.4 0.41 0 0 -0.41 0.4 0 0 -0.4 0.41 0 0 -0.41 0.41 0 0 -0.41 0.4 0 0 -0.4 0.41 0 0 -0.41 0.41 0 0 -0.41 0.4 0 0 -0.4 0.41 0 0 -0.41 0.4 0 0 -0.4 0.41 0 0 -0.41 0.41 0 0 -0.41 0.4 0 0 -0.4 0.41 0 0 -0.41 0.41 0 0 -0.41 0.4 0 0 -0.4 0.41 0 0 -0.41 0.41 0 0 -0.41 0.4 0 0 -0.4 0.41 0 0 -0.41 0.4 0 0 -0.41 0.41 0 0 -0.4 0.41 0 0 -0.41 0.4 0 0 -0.4 0.41 0 0 -0.41 0.41 0 0 -0.41 0.4 0 0 -0.4 0.41 0 0 -0.41 0.41 0 0 -0.41 0.4 0 0 -0.4 0.41 0 0 -0.41 0.4 0 0 -0.4 0.41 0 0 -0.41 0.41 0 0 -0.41 0.4 0 0 -0.4 0.41 0 0 -0.41 0.41 0 0 -0.41 0.4 0 0 -0.4 0.41 0 0 -0.41 0.4 0 0 -0.4 0.41 0 0 -0.41 0.41 0 0 -0.41 0.4 0 0 -0.4 0.41 0 0 -0.41 0.41 0 0 -0.41 0.4 0 0 -1.62 0.41 0 0 -4.07 0.41 0 0 -4.06 0.4 0 0 -3.66 0.41 0 0 -4.06 0.4 0 0 -3.66 0.41 0 0 -4.06 0.41 0 0 -3.66 0.4 0 0 63.8 0.41 0 0 0.4 0.41 0 0 0.82 0.4 0 0 0.4 0.82 0 0 0.41 34.94 0 0 -0.41 0.4 0 0 -0.4 0.41 0 0 -0.41 0.81 0 0 -0.41 0.41 0 0 -0.4 0.41 0 0 -0.41 0.4 0 0 -0.41 0.81 0 0 -0.4 0.41 0 0 -0.41 0.41 0 0 -0.4 0.4 0 0 -0.41 0.82 0 0 -0.41 0.4 0 0 -0.4 0.41 0 0 -0.41 0.41 0 0 -0.41 0.4 0 0 -0.4 0.81 0 0 -0.41 0.41 0 0 -0.4 0.41 0 0 -0.41 0.4 0 0 -0.41 0.82 0 0 -0.4 0.4 0 0 -0.41 0.41 0 0 -0.41 0.41 0 0 -0.4 0.81 0 0 -0.41 0.4 0 0 -0.4 0.41 0 0 -0.41 0.41 0 0 -0.41 0.81 0 0 -0.4 0.41 0 0 -0.41 0.4 0 0 -0.41 0.41 0 0 -0.4 0.81 0 0 -0.41 0.41 0 0 -0.41 0.4 0 0 -0.4 0.41 0 0 -0.41 0.81 0 0 -0.41 0.41 0 0 -0.4 0.4 0 0 -0.41 0.41 0 0 -0.4 0.81 0zm-131.24 -40.23l-0.41 0 0 -0.41 0.41 0 0 0.41zm-0.41 -0.41l-0.4 0 0 -0.4 0.4 0 0 0.4zm-0.4 -0.4l-0.41 0 0 -0.41 0.41 0 0 0.41zm-0.41 -0.41l-0.4 0 0 -0.41 0.4 0 0 0.41zm-2.03 -9.34l0 0.4 -0.41 0 0 -0.4 0.41 0zm0 0l0 -0.82 0.41 0 0 -0.81 0.4 0 0 -0.81 0.41 0 0 -0.41 0.41 0 0 -0.81 0.4 0 0 -0.81 0.41 0 0 -0.82 0.4 0 0 -0.81 0.41 0 0 -0.41 0.41 0 0 -0.81 0.4 0 0 -0.81 0.41 0 0 -0.81 0.41 0 0 -0.41 0.4 0 0 -0.81 0.41 0 0 -0.82 0.41 0 0 -0.81 0.4 0 0 -0.81 0.41 0 0 -0.41 0.4 0 0 -0.81 0.41 0 0 -0.81 0.41 0 0 -0.81 0.4 0 0 -0.82 0.41 0 0 -0.4 0.41 0 0 -0.82 0.4 0 0 -0.81 0.41 0 0 -0.81 0.41 0 0 -0.41 0.4 0 0 -0.81 0.41 0 0 -0.81 0.4 0 0 -0.82 0.41 0 0 -0.81 0.41 0 0 -0.4 0.4 0 0 -0.82 0.41 0 0 -0.81 0.41 0 0 -0.81 0.4 0 0 -0.82 0.41 0 0 -0.4 0.4 0 0 -0.81 0.41 0 0 -0.82 0.41 0 0 -0.81 0.4 0 0 -0.41 0.41 0 0 -0.81 0.41 0 0 -0.81 0.4 0 0 -0.81 0.41 0 0 -0.82 0.4 0 0 -0.4 0.41 0 0 -0.82 0.41 0 0 -0.81 0.4 0 0 -0.81 0.41 0 0 -1.22 -0.41 0 0 -0.81 -0.4 0 0 -0.81 -0.41 0 0 -0.41 -0.81 0 0 -0.41 -69.48 0 0 0.41 -0.41 0 0 0.41 -0.4 0 0 0.4 -0.41 0 0 0.41 -0.41 0 0 1.22 -0.4 0 0 97.92 -0.41 0 0 -1.22 -0.41 0 0 -1.62 -0.4 0 0 -1.22 -0.41 0 0 -1.22 -0.41 0 0 -1.63 -0.4 0 0 -1.22 -0.41 0 0 -1.62 -0.4 0 0 -1.22 -0.41 0 0 -1.63 -0.41 0 0 -1.21 -0.4 0 0 -1.63 -0.41 0 0 -1.22 -0.41 0 0 -1.22 -0.4 0 0 -1.62 -0.41 0 0 -1.22 -0.41 0 0 -1.63 -0.4 0 0 -1.22 -0.41 0 0 -1.62 -0.4 0 0 -1.22 -0.41 0 0 -1.63 -0.41 0 0 -1.21 -0.4 0 0 -1.63 -0.41 0 0 -1.22 -0.41 0 0 -1.22 -0.4 0 0 -1.62 -0.41 0 0 -1.22 -0.4 0 0 -1.63 -0.41 0 0 -0.81 -0.41 0 0 -0.41 -1.22 0 0 -0.4 -2.03 0 0 0.4 -0.81 0 0 0.41 -0.41 0 0 0.41 -0.4 0 0 0.4 -0.41 0 0 0.41 -0.41 0 0 0.4 -0.4 0 0 0.41 -0.41 0 0 0.41 -0.41 0 0 0.4 -0.4 0 0 0.41 -0.41 0 0 0.41 -0.4 0 0 0.4 -0.41 0 0 0.41 -0.41 0 0 0.4 -0.4 0 0 0.41 -0.41 0 0 0.41 -0.41 0 0 0.4 -0.4 0 0 0.41 -0.41 0 0 0.41 -0.4 0 0 0.4 -0.41 0 0 0.41 -0.41 0 0 0.41 -0.4 0 0 0.4 -0.41 0 0 0.41 -0.41 0 0 0.41 -0.4 0 0 0.4 -0.41 0 0 0.41 -0.41 0 0 0.4 -0.4 0 0 0.41 -0.41 0 0 0.41 -0.4 0 0 0.4 -0.41 0 0 0.41 -0.41 0 0 0.41 -0.4 0 0 0.4 -0.41 0 0 0.41 -0.41 0 0 0.4 -0.4 0 0 0.41 -0.41 0 0 0.41 -0.41 0 0 0.4 -0.4 0 0 0.41 -0.41 0 0 0.41 -0.4 0 0 0.4 -0.41 0 0 0.41 -0.41 0 0 0.4 -0.4 0 0 0.41 -0.41 0 0 0.41 -0.41 0 0 0.4 -0.4 0 0 0.41 -0.41 0 0 0.41 -0.4 0 0 0.4 -0.41 0 0 0.41 -0.41 0 0 0.41 -0.4 0 0 0.4 -0.41 0 0 0.41 -0.41 0 0 0.41 -0.4 0 0 0.4 -0.41 0 0 0.41 -0.41 0 0 0.4 -0.4 0 0 0.41 -0.41 0 0 0.41 -0.4 0 0 0.4 -0.41 0 0 0.41 -0.41 0 0 0.41 -0.4 0 0 0.4 -0.41 0 0 0.41 -0.41 0 0 0.4 -0.4 0 0 0.41 -0.41 0 0 0.41 -0.4 0 0 0.4 -0.41 0 0 0.41 -0.41 0 0 0.41 -0.4 0 0 0.4 -0.41 0 0 0.41 -0.41 0 0 0.4 -0.4 0 0 0.41 -0.41 0 0 0.41 -0.41 0 0 0.4 -0.4 0 0 0.41 -0.41 0 0 0.41 -0.4 0 0 0.4 -0.41 0 0 0.41 -0.41 0 0 0.41 -0.4 0 0 0.4 -0.41 0 0 0.41 -0.41 0 0 0.41 -0.4 0 0 0.4 -0.41 0 0 0.41 -0.4 0 0 0.4 -0.41 0 0 0.41 -0.41 0 0 0.41 -0.4 0 0 0.4 -0.41 0 0 0.41 -0.41 0 0 0.41 -0.4 0 0 0.4 -0.41 0 0 0.41 -0.41 0 0 0.4 -0.4 0 0 0.41 -0.41 0 0 0.41 -0.4 0 0 0.4 -0.41 0 0 0.41 -0.41 0 0 0.41 -0.4 0 0 0.4 -0.41 0 0 0.41 -0.41 0 0 0.4 -0.4 0 0 0.41 -0.41 0 0 0.41 -0.4 0 0 0.4 -0.41 0 0 0.41 -0.41 0 0 0.41 -0.4 0 0 0.4 -0.41 0 0 0.41 -0.41 0 0 0.41 -0.4 0 0 0.4 -0.41 0 0 0.41 -0.41 0 0 0.41 -0.4 0 0 0.4 -0.41 0 0 0.41 -0.4 0 0 0.4 -0.41 0 0 0.41 -0.41 0 0 0.41 -0.4 0 0 3.25 0.4 0 0 0.4 0.41 0 0 0.82 0.41 0 0 0.4 0.4 0 0 0.41 0.41 0 0 0.4 0.4 0 0 0.41 0.41 0 0 0.41 0.41 0 0 0.4 0.4 0 0 0.41 0.41 0 0 0.41 0.41 0 0 0.4 0.4 0 0 0.41 0.41 0 0 0.41 0.41 0 0 0.4 0.4 0 0 0.41 0.41 0 0 0.4 0.4 0 0 0.41 0.41 0 0 0.41 0.41 0 0 0.4 0.4 0 0 0.41 0.41 0 0 0.41 0.41 0 0 0.4 0.4 0 0 0.41 0.41 0 0 0.41 0.4 0 0 0.4 0.41 0 0 0.41 0.41 0 0 0.4 0.4 0 0 0.41 0.41 0 0 0.41 0.41 0 0 0.4 0.4 0 0 0.41 0.41 0 0 0.41 0.41 0 0 0.4 0.4 0 0 0.41 0.41 0 0 0.4 0.4 0 0 0.41 0.41 0 0 0.41 0.41 0 0 0.4 0.4 0 0 0.41 0.41 0 0 0.41 0.41 0 0 0.4 0.4 0 0 0.41 0.41 0 0 0.41 0.4 0 0 0.4 0.41 0 0 0.41 0.41 0 0 0.4 0.4 0 0 0.41 0.41 0 0 0.41 0.41 0 0 0.4 0.4 0 0 0.41 0.41 0 0 0.41 0.41 0 0 0.4 0.4 0 0 0.41 0.41 0 0 0.4 0.4 0 0 0.41 0.41 0 0 0.41 0.41 0 0 0.4 0.4 0 0 0.41 0.41 0 0 0.41 0.41 0 0 0.4 0.4 0 0 0.41 0.41 0 0 0.41 0.4 0 0 0.4 0.41 0 0 0.41 0.41 0 0 0.4 0.4 0 0 0.41 0.41 0 0 0.41 0.41 0 0 0.4 0.4 0 0 0.41 0.41 0 0 0.41 0.41 0 0 0.4 0.4 0 0 0.41 0.41 0 0 0.4 0.4 0 0 0.41 0.41 0 0 0.41 0.41 0 0 0.4 0.4 0 0 0.41 0.41 0 0 0.41 0.41 0 0 0.4 0.4 0 0 0.41 0.41 0 0 0.41 0.4 0 0 0.4 0.41 0 0 0.41 0.41 0 0 0.4 0.4 0 0 0.41 0.41 0 0 0.41 0.41 0 0 0.4 0.4 0 0 0.41 0.41 0 0 0.41 0.41 0 0 0.4 0.4 0 0 0.41 0.41 0 0 0.4 0.4 0 0 0.41 0.41 0 0 0.41 0.41 0 0 0.4 0.4 0 0 0.41 0.41 0 0 0.41 0.41 0 0 0.4 0.4 0 0 0.41 0.41 0 0 0.41 0.41 0 0 0.4 0.4 0 0 0.41 0.41 0 0 0.4 0.4 0 0 0.41 0.41 0 0 0.41 0.41 0 0 0.4 0.4 0 0 0.41 0.41 0 0 0.41 0.41 0 0 0.4 0.4 0 0 0.41 0.41 0 0 0.4 0.4 0 0 0.41 0.41 0 0 0.41 0.41 0 0 0.4 0.4 0 0 0.41 0.41 0 0 0.41 0.41 0 0 0.4 0.4 0 0 0.41 0.41 0 0 0.41 0.41 0 0 0.4 0.4 0 0 0.41 0.41 0 0 0.4 0.4 0 0 0.41 0.41 0 0 0.41 0.41 0 0 0.4 0.4 0 0 0.41 0.41 0 0 0.41 0.41 0 0 0.4 0.4 0 0 0.41 0.41 0 0 0.4 0.41 0 0 0.41 0.4 0 0 0.41 0.41 0 0 0.4 0.4 0 0 0.41 0.41 0 0 0.41 0.41 0 0 0.4 0.4 0 0 0.41 0.41 0 0 0.41 0.41 0 0 0.4 0.4 0 0 0.41 0.41 0 0 0.4 0.4 0 0 0.41 0.41 0 0 0.41 0.41 0 0 0.4 0.4 0 0 0.41 0.41 0 0 0.41 0.41 0 0 0.4 0.4 0 0 0.41 0.41 0 0 0.4 0.41 0 0 0.41 0.4 0 0 0.41 0.41 0 0 0.4 0.4 0 0 0.41 0.41 0 0 0.41 0.41 0 0 0.4 0.4 0 0 0.41 0.41 0 0 0.41 0.41 0 0 0.4 0.4 0 0 0.41 0.41 0 0 0.4 0.41 0 0 0.41 0.4 0 0 0.41 0.41 0 0 0.4 0.4 0 0 0.41 0.41 0 0 0.41 0.41 0 0 0.4 0.4 0 0 0.41 0.41 0 0 0.41 0.41 0 0 0.4 0.4 0 0 0.41 0.41 0 0 0.4 -0.81 0 0 -0.4 -0.82 0 0 -0.41 -0.4 0 0 -0.4 -0.82 0 0 -0.41 -0.81 0 0 -0.41 -0.81 0 0 -0.4 -0.81 0 0 -0.41 -0.41 0 0 -0.41 -0.81 0 0 -0.4 -0.82 0 0 -0.41 -0.81 0 0 -0.41 -0.81 0 0 -0.4 -0.81 0 0 -0.41 -0.41 0 0 -0.4 -0.81 0 0 -0.41 -0.82 0 0 -0.41 -0.81 0 0 -0.4 -0.81 0 0 -0.41 -0.41 0 0 -0.41 -0.81 0 0 -0.4 -0.81 0 0 -0.41 -0.81 0 0 -0.41 -0.82 0 0 -0.4 -0.4 0 0 -0.41 -0.82 0 0 -0.4 -0.81 0 0 -0.41 -0.81 0 0 -0.41 -0.81 0 0 -0.4 -0.82 0 0 -0.41 -0.4 0 0 -0.41 -0.82 0 0 -0.4 -0.81 0 0 -0.41 -0.81 0 0 -0.4 -0.81 0 0 -0.41 -0.41 0 0 -0.41 -0.81 0 0 -0.4 -0.82 0 0 -0.41 -0.81 0 0 -0.41 -0.81 0 0 -0.4 -0.81 0 0 -0.41 -0.41 0 0 -0.41 -0.81 0 0 -0.4 -0.82 0 0 -0.41 -0.81 0 0 -0.4 -0.81 0 0 -0.41 -0.41 0 0 -0.41 -2.44 0 0 0.41 -0.81 0 0 0.41 -0.4 0 0 0.4 -0.41 0 0 0.81 -0.41 0 0 68.67 0.41 0 0 0.82 0.41 0 0 0.4 0.4 0 0 0.41 0.41 0 0 0.41 0.81 0 0 0.4 99.14 0 0 0.41 -1.21 0 0 0.41 -1.63 0 0 0.4 -1.22 0 0 0.41 -1.62 0 0 0.4 -1.22 0 0 0.41 -1.63 0 0 0.41 -1.22 0 0 0.4 -1.62 0 0 0.41 -1.63 0 0 0.41 -1.22 0 0 0.4 -1.62 0 0 0.41 -1.22 0 0 0.4 -1.63 0 0 0.41 -1.21 0 0 0.41 -1.63 0 0 0.4 -1.22 0 0 0.41 -1.62 0 0 0.41 -1.22 0 0 0.4 -1.63 0 0 0.41 -1.22 0 0 0.41 -1.62 0 0 0.4 -1.63 0 0 0.41 -1.22 0 0 0.4 -1.62 0 0 0.41 -1.22 0 0 0.41 -1.63 0 0 0.4 -1.22 0 0 0.41 -0.81 0 0 0.81 -0.4 0 0 1.22 -0.41 0 0 0.81 0.41 0 0 1.22 0.4 0 0 0.82 0.41 0 0 0.4 0.4 0 0 0.41 0.41 0 0 0.4 0.41 0 0 0.41 0.4 0 0 0.41 0.41 0 0 0.4 0.41 0 0 0.41 0.4 0 0 0.41 0.41 0 0 0.4 0.41 0 0 0.41 0.4 0 0 0.4 0.41 0 0 0.41 0.4 0 0 0.41 0.41 0 0 0.4 0.41 0 0 0.41 0.4 0 0 0.41 0.41 0 0 0.4 0.41 0 0 0.41 0.4 0 0 0.41 0.41 0 0 0.4 0.4 0 0 0.41 0.41 0 0 0.4 0.41 0 0 0.41 0.4 0 0 0.41 0.41 0 0 0.4 0.41 0 0 0.41 0.4 0 0 0.41 0.41 0 0 0.4 0.41 0 0 0.41 0.4 0 0 0.4 0.41 0 0 0.41 0.4 0 0 0.41 0.41 0 0 0.4 0.41 0 0 0.41 0.4 0 0 0.41 0.41 0 0 0.4 0.41 0 0 0.41 0.4 0 0 0.41 0.41 0 0 0.4 0.4 0 0 0.41 0.41 0 0 0.4 0.41 0 0 0.41 0.4 0 0 0.41 0.41 0 0 0.4 0.41 0 0 0.41 0.4 0 0 0.41 0.41 0 0 0.4 0.41 0 0 0.41 0.4 0 0 0.4 0.41 0 0 0.41 0.4 0 0 0.41 0.41 0 0 0.4 0.41 0 0 0.41 0.4 0 0 0.41 0.41 0 0 0.4 0.41 0 0 0.41 0.4 0 0 0.41 0.41 0 0 0.4 0.4 0 0 0.41 0.41 0 0 0.4 0.41 0 0 0.41 0.4 0 0 0.41 0.41 0 0 0.4 0.41 0 0 0.41 0.4 0 0 0.41 0.41 0 0 0.4 0.4 0 0 0.41 0.41 0 0 0.41 0.41 0 0 0.4 0.4 0 0 0.41 0.41 0 0 0.4 0.41 0 0 0.41 0.4 0 0 0.41 0.41 0 0 0.4 0.41 0 0 0.41 0.4 0 0 0.41 0.41 0 0 0.4 0.4 0 0 0.41 0.41 0 0 0.4 0.41 0 0 0.41 0.4 0 0 0.41 0.41 0 0 0.4 0.41 0 0 0.41 0.4 0 0 0.41 0.41 0 0 0.4 0.41 0 0 0.41 0.4 0 0 0.4 0.41 0 0 0.41 0.4 0 0 0.41 0.41 0 0 0.4 0.41 0 0 0.41 0.4 0 0 0.41 0.41 0 0 0.4 0.41 0 0 0.41 0.4 0 0 0.41 0.41 0 0 0.4 0.4 0 0 0.41 0.41 0 0 0.41 0.41 0 0 0.4 0.4 0 0 0.41 0.41 0 0 0.4 0.41 0 0 0.41 0.4 0 0 0.41 0.41 0 0 0.4 0.4 0 0 0.41 0.41 0 0 0.41 0.41 0 0 0.4 0.4 0 0 0.41 0.41 0 0 0.4 0.41 0 0 0.41 0.4 0 0 0.41 0.41 0 0 0.4 0.41 0 0 0.41 0.4 0 0 0.41 0.41 0 0 0.4 0.4 0 0 0.41 0.82 0 0 0.4 0.81 0 0 0.41 2.03 0 0 -0.41 0.81 0 0 -0.4 0.82 0 0 -0.41 0.4 0 0 -0.4 0.41 0 0 -0.41 0.41 0 0 -0.41 0.4 0 0 -0.4 0.41 0 0 -0.41 0.4 0 0 -0.41 0.41 0 0 -0.4 0.41 0 0 -0.41 0.4 0 0 -0.4 0.41 0 0 -0.41 0.41 0 0 -0.41 0.4 0 0 -0.4 0.41 0 0 -0.41 0.41 0 0 -0.41 0.4 0 0 -0.4 0.41 0 0 -0.41 0.4 0 0 -0.4 0.41 0 0 -0.41 0.41 0 0 -0.41 0.4 0 0 -0.4 0.41 0 0 -0.41 0.41 0 0 -0.41 0.4 0 0 -0.4 0.41 0 0 -0.41 0.41 0 0 -0.41 0.4 0 0 -0.4 0.41 0 0 -0.41 0.4 0 0 -0.41 0.41 0 0 -0.4 0.41 0 0 -0.41 0.4 0 0 -0.4 0.41 0 0 -0.41 0.41 0 0 -0.41 0.4 0 0 -0.4 0.41 0 0 -0.41 0.4 0 0 -0.41 0.41 0 0 -0.4 0.41 0 0 -0.41 0.4 0 0 -0.4 0.41 0 0 -0.41 0.41 0 0 -0.41 0.4 0 0 -0.4 0.41 0 0 -0.41 0.41 0 0 -0.41 0.4 0 0 -0.4 0.41 0 0 -0.41 0.4 0 0 -0.4 0.41 0 0 -0.41 0.41 0 0 -0.41 0.4 0 0 -0.4 0.41 0 0 -0.41 0.41 0 0 -0.41 0.4 0 0 -0.4 0.41 0 0 -0.41 0.41 0 0 -0.41 0.4 0 0 -0.4 0.41 0 0 -0.41 0.4 0 0 -0.4 0.41 0 0 -0.41 0.41 0 0 -0.41 0.4 0 0 -0.4 0.41 0 0 -0.41 0.41 0 0 -0.41 0.4 0 0 -0.4 0.41 0 0 -0.41 0.41 0 0 -0.41 0.4 0 0 -0.4 0.41 0 0 -0.41 0.4 0 0 -0.4 0.41 0 0 -0.41 0.41 0 0 -0.41 0.4 0 0 -0.4 0.41 0 0 -0.41 0.41 0 0 -0.41 0.4 0 0 -0.4 0.41 0 0 -0.41 0.4 0 0 -0.4 0.41 0 0 -0.41 0.41 0 0 -0.41 0.4 0 0 -0.4 0.41 0 0 -0.41 0.41 0 0 -0.41 0.4 0 0 -0.4 0.41 0 0 -0.41 0.41 0 0 -0.41 0.4 0 0 -0.4 0.41 0 0 -0.41 0.4 0 0 -0.4 0.41 0 0 -0.41 0.41 0 0 -0.41 0.4 0 0 -0.4 0.41 0 0 -0.41 0.41 0 0 -0.41 0.4 0 0 -0.4 0.41 0 0 -0.41 0.41 0 0 -0.4 0.4 0 0 -0.41 0.41 0 0 -0.41 0.4 0 0 -0.4 0.41 0 0 -0.41 0.41 0 0 -0.41 0.4 0 0 -0.4 0.41 0 0 -0.41 0.41 0 0 -0.41 0.4 0 0 -0.4 0.41 0 0 -0.41 0.4 0 0 -0.4 0.41 0 0 -0.41 0.41 0 0 -0.41 0.4 0 0 -0.4 0.41 0 0 -0.41 0.41 0 0 -0.41 0.4 0 0 -0.4 0.41 0 0 -0.41 0.41 0 0 -0.4 0.4 0 0 -0.41 0.41 0 0 -0.41 0.4 0 0 -0.4 0.41 0 0 -0.41 0.41 0 0 -0.41 0.4 0 0 -0.4 0.41 0 0 -0.41 0.41 0 0 -0.41 0.4 0 0 -0.4 0.41 0 0 -0.41 0.41 0 0 -0.4 0.4 0 0 -0.41 0.41 0 0 -0.41 0.4 0 0 -0.4 0.41 0 0 -0.41 0.41 0 0 -0.41 0.4 0 0 -0.4 0.41 0 0 -0.41 0.41 0 0 -0.4 0.4 0 0 -0.41 0.41 0 0 -0.41 0.4 0 0 -0.4 0.41 0 0 -0.41 0.41 0 0 -0.41 0.4 0 0 -0.4 0.41 0 0 -0.41 0.41 0 0 -0.41 0.4 0 0 -0.4 0.41 0 0 -0.41 0.4 0 0 -0.4 0.41 0 0 -0.41 0.41 0 0 -0.41 0.4 0 0 -0.4 0.41 0 0 -0.41 0.41 0 0 -0.41 0.4 0 0 -0.4 0.41 0 0 -0.41 0.41 0 0 -0.4 0.4 0 0 -0.41 0.41 0 0 -0.41 0.4 0 0 -0.4 0.41 0 0 -0.41 0.41 0 0 -0.41 0.4 0 0 -0.4 0.41 0 0 -0.41 0.41 0 0 -0.41 0.4 0 0 -0.4 0.41 0 0 -0.41 0.41 0 0 -0.4 0.4 0 0 -0.41 0.41 0 0 -0.41 0.4 0 0 -0.4 0.41 0 0 -0.41 0.41 0 0 0.81 -0.41 0 0 0.41 -0.41 0 0 0.81 -0.4 0 0 0.81 -0.41 0 0 0.82 -0.4 0 0 0.4 -0.41 0 0 0.82 -0.41 0 0 0.81 -0.4 0 0 0.81 -0.41 0 0 0.81 -0.41 0 0 0.41 -0.4 0 0 0.81 -0.41 0 0 0.82 -0.41 0 0 0.81 -0.4 0 0 0.81 -0.41 0 0 0.41 -0.4 0 0 0.81 -0.41 0 0 0.81 -0.41 0 0 0.82 -0.4 0 0 0.81 -0.41 0 0 0.4 -0.41 0 0 0.82 -0.4 0 0 0.81 -0.41 0 0 0.81 -0.41 0 0 0.41 -0.4 0 0 0.81 -0.41 0 0 0.81 -0.4 0 0 0.82 -0.41 0 0 0.81 -0.41 0 0 0.41 -0.4 0 0 0.81 -0.41 0 0 0.81 -0.41 0 0 0.81 -0.4 0 0 0.82 -0.41 0 0 0.4 -0.4 0 0 0.81 -0.41 0 0 0.82 -0.41 0 0 0.81 -0.4 0 0 0.41 -0.41 0 0 0.81 -0.41 0 0 0.81 -0.4 0 0 0.81 -0.41 0 0 0.82 -0.4 0 0 0.4 -0.41 0 0 0.82 -0.41 0 0 0.81 -0.4 0 0 0.81 -0.41 0 0 0.81 -0.41 0 0 0.82 0.41 0 0 1.22 0.41 0 0 0.4 0.4 0 0 0.41 0.41 0 0 0.4 0.81 0 0 0.41 68.67 0 0 -0.41 0.81 0 0 -0.4 0.41 0 0 -0.41 0.4 0 0 -0.4 0.41 0 0 -1.22 0.41 0 0 -98.33 0.4 0 0 1.21 0.41 0 0 1.63 0.41 0 0 1.22 0.4 0 0 1.22 0.41 0 0 1.62 0.41 0 0 1.22 0.4 0 0 1.63 0.41 0 0 1.22 0.4 0 0 1.62 0.41 0 0 1.22 0.41 0 0 1.63 0.4 0 0 1.22 0.41 0 0 1.21 0.41 0 0 1.63 0.4 0 0 1.22 0.41 0 0 1.62 0.41 0 0 1.22 0.4 0 0 1.63 0.41 0 0 1.22 0.4 0 0 1.62 0.41 0 0 1.22 0.41 0 0 1.22 0.4 0 0 1.63 0.41 0 0 1.21 0.41 0 0 1.63 0.4 0 0 1.22 0.41 0 0 1.62 0.4 0 0 0.82 0.41 0 0 0.4 0.41 0 0 0.41 0.81 0 0 0.41 2.03 0 0 -0.41 0.81 0 0 -0.41 0.41 0 0 -0.4 0.41 0 0 -0.41 0.4 0 0 -0.41 0.41 0 0 -0.4 0.41 0 0 -0.41 0.4 0 0 -0.4 0.41 0 0 -0.41 0.41 0 0 -0.41 0.4 0 0 -0.4 0.41 0 0 -0.41 0.4 0 0 -0.41 0.41 0 0 -0.4 0.41 0 0 -0.41 0.4 0 0 -0.41 0.41 0 0 -0.4 0.41 0 0 -0.41 0.4 0 0 -0.4 0.41 0 0 -0.41 0.4 0 0 -0.41 0.41 0 0 -0.4 0.41 0 0 -0.41 0.4 0 0 -0.41 0.41 0 0 -0.4 0.41 0 0 -0.41 0.4 0 0 -0.4 0.41 0 0 -0.41 0.41 0 0 -0.41 0.4 0 0 -0.4 0.41 0 0 -0.41 0.4 0 0 -0.41 0.41 0 0 -0.4 0.41 0 0 -0.41 0.4 0 0 -0.41 0.41 0 0 -0.4 0.41 0 0 -0.41 0.4 0 0 -0.4 0.41 0 0 -0.41 0.41 0 0 -0.41 0.4 0 0 -0.4 0.41 0 0 -0.41 0.4 0 0 -0.41 0.41 0 0 -0.4 0.41 0 0 -0.41 0.4 0 0 -0.41 0.41 0 0 -0.4 0.41 0 0 -0.41 0.4 0 0 -0.4 0.41 0 0 -0.41 0.4 0 0 -0.41 0.41 0 0 -0.4 0.41 0 0 -0.41 0.4 0 0 -0.41 0.41 0 0 -0.4 0.41 0 0 -0.41 0.4 0 0 -0.4 0.41 0 0 -0.41 0.41 0 0 -0.41 0.4 0 0 -0.4 0.41 0 0 -0.41 0.4 0 0 -0.41 0.41 0 0 -0.4 0.41 0 0 -0.41 0.4 0 0 -0.41 0.41 0 0 -0.4 0.41 0 0 -0.41 0.4 0 0 -0.4 0.41 0 0 -0.41 0.4 0 0 -0.41 0.41 0 0 -0.4 0.41 0 0 -0.41 0.4 0 0 -0.41 0.41 0 0 -0.4 0.41 0 0 -0.41 0.4 0 0 -0.41 0.41 0 0 -0.4 0.41 0 0 -0.41 0.4 0 0 -0.4 0.41 0 0 -0.41 0.4 0 0 -0.41 0.41 0 0 -0.4 0.41 0 0 -0.41 0.4 0 0 -0.41 0.41 0 0 -0.4 0.41 0 0 -0.41 0.4 0 0 -0.41 0.41 0 0 -0.4 0.4 0 0 -0.41 0.41 0 0 -0.4 0.41 0 0 -0.41 0.4 0 0 -0.41 0.41 0 0 -0.4 0.41 0 0 -0.41 0.4 0 0 -0.41 0.41 0 0 -0.4 0.41 0 0 -0.41 0.4 0 0 -0.4 0.41 0 0 -0.41 0.4 0 0 -0.41 0.41 0 0 -0.4 0.41 0 0 -0.41 0.4 0 0 -0.41 0.41 0 0 -0.4 0.41 0 0 -0.41 0.4 0 0 -0.41 0.41 0 0 -0.4 0.4 0 0 -0.41 0.41 0 0 -0.4 0.41 0 0 -0.41 0.4 0 0 -0.41 0.41 0 0 -0.4 0.41 0 0 -0.41 0.4 0 0 -0.41 0.41 0 0 -0.4 0.41 0 0 -0.41 0.4 0 0 -0.4 0.41 0 0 -0.41 0.4 0 0 -0.41 0.41 0 0 -0.4 0.41 0 0 -1.22 0.4 0 0 -0.82 -0.4 0 0 -1.21 -0.41 0 0 -0.82 -0.41 0 0 -0.4 -0.4 0 0 -0.41 -0.41 0 0 -0.41 -0.4 0 0 -0.4 -0.41 0 0 -0.41 -0.41 0 0 -0.4 -0.4 0 0 -0.41 -0.41 0 0 -0.41 -0.41 0 0 -0.4 -0.4 0 0 -0.41 -0.41 0 0 -0.41 -0.41 0 0 -0.4 -0.4 0 0 -0.41 -0.41 0 0 -0.41 -0.4 0 0 -0.4 -0.41 0 0 -0.41 -0.41 0 0 -0.4 -0.4 0 0 -0.41 -0.41 0 0 -0.41 -0.41 0 0 -0.4 -0.4 0 0 -0.41 -0.41 0 0 -0.41 -0.4 0 0 -0.4 -0.41 0 0 -0.41 -0.41 0 0 -0.4 -0.4 0 0 -0.41 -0.41 0 0 -0.41 -0.41 0 0 -0.4 -0.4 0 0 -0.41 -0.41 0 0 -0.41 -0.41 0 0 -0.4 -0.4 0 0 -0.41 -0.41 0 0 -0.41 -0.4 0 0 -0.4 -0.41 0 0 -0.41 -0.41 0 0 -0.4 -0.4 0 0 -0.41 -0.41 0 0 -0.41 -0.41 0 0 -0.4 -0.4 0 0 -0.41 -0.41 0 0 -0.41 -0.4 0 0 -0.4 -0.41 0 0 -0.41 -0.41 0 0 -0.4 -0.4 0 0 -0.41 -0.41 0 0 -0.41 -0.41 0 0 -0.4 -0.4 0 0 -0.41 -0.41 0 0 -0.41 -0.41 0 0 -0.4 -0.4 0 0 -0.41 -0.41 0 0 -0.41 -0.4 0 0 -0.4 -0.41 0 0 -0.41 -0.41 0 0 -0.4 -0.4 0 0 -0.41 -0.41 0 0 -0.41 -0.41 0 0 -0.4 -0.4 0 0 -0.41 -0.41 0 0 -0.41 -0.4 0 0 -0.4 -0.41 0 0 -0.41 -0.41 0 0 -0.4 -0.4 0 0 -0.41 -0.41 0 0 -0.41 -0.41 0 0 -0.4 -0.4 0 0 -0.41 -0.41 0 0 -0.41 -0.41 0 0 -0.4 -0.4 0 0 -0.41 -0.41 0 0 -0.41 -0.4 0 0 -0.4 -0.41 0 0 -0.41 -0.41 0 0 -0.4 -0.4 0 0 -0.41 -0.41 0 0 -0.41 -0.41 0 0 -0.4 -0.4 0 0 -0.41 -0.41 0 0 -0.41 -0.4 0 0 -0.4 -0.41 0 0 -0.41 -0.41 0 0 -0.4 -0.4 0 0 -0.41 -0.41 0 0 -0.41 -0.41 0 0 -0.4 -0.4 0 0 -0.41 -0.41 0 0 -0.41 -0.41 0 0 -0.4 -0.4 0 0 -0.41 -0.41 0 0 -0.41 -0.4 0 0 -0.4 -0.41 0 0 -0.41 -0.41 0 0 -0.4 -0.4 0 0 -0.41 -0.41 0 0 -0.41 -0.41 0 0 -0.4 -0.4 0 0 -0.41 -0.41 0 0 -0.41 -0.41 0 0 -0.4 -0.4 0 0 -0.41 -0.41 0 0 -0.41 -0.4 0 0 -0.4 -0.41 0 0 -0.41 -0.41 0 0 -0.4 -0.4 0 0 -0.41 -0.41 0 0 -0.41 -0.41 0 0 -0.4 -0.4 0 0 -0.41 -0.41 0 0 -0.41 -0.4 0 0 -0.4 -0.41 0 0 -0.41 -0.41 0 0 -0.4 -0.4 0 0 -0.41 -0.41 0 0 -0.41 -0.41 0 0 -0.4 -0.4 0 0 -0.41 -0.41 0 0 -0.41 -0.41 0 0 -0.4 -0.4 0 0 -0.41 -0.41 0 0 -0.4 -0.4 0 0 -0.41 -0.41 0 0 -0.41 -0.41 0 0 -0.4 -0.4 0 0 -0.41 -0.41 0 0 -0.41 -0.41 0 0 -0.4 -0.4 0 0 -0.41 -0.41 0 0 -0.41 -0.41 0 0 -0.4 -0.4 0 0 -0.41 -0.41 0 0 -0.41 -0.4 0 0 -0.4 -0.41 0 0 -0.41 -0.41 0 0 -0.4 -0.4 0 0 -0.41 -0.41 0 0 -0.41 -0.41 0 0 -0.4 -0.4 0 0 -0.41 -0.41 0 0 -0.41 -0.4 0 0 -0.4 -0.41 0 0 -0.41 -0.41 0 0 -0.4 -0.4 0 0 -0.41 -0.41 0 0 -0.41 -0.41 0 0 -0.4 -0.4 0 0 -0.41 -0.41 0 0 -0.41 -0.41 0 0 -0.4 -0.4 0 0 -0.41 -0.41 0 0 -0.4 -0.4 0 0 -0.41 -0.41 0 0 -0.41 -0.41 0 0 -0.4 -0.4 0 0 -0.41 -0.41 0 0 -0.41 -0.41 0 0 -0.4 -0.4 0 0 -0.41 -0.41 0 0 -0.41 -0.41 0 0 -0.4 -0.4 0 0 -0.41 -0.41 0 0 -0.41 -0.4 0 0 -0.4 -0.41 0 0 -0.41 -0.41 0 0 -0.4 -0.4 0 0 -0.41 -0.41 0 0 -0.41 -0.41 0 0 -0.4 -0.4 0 0 -0.41 -0.41 0 0 -0.41 -0.4 0 0 -0.4 -0.41 0 0 -0.41 0.81 0 0 0.41 0.41 0 0 0.4 0.81 0 0 0.41 0.81 0 0 0.41 0.82 0 0 0.4 0.81 0 0 0.41 0.4 0 0 0.41 0.82 0 0 0.4 0.81 0 0 0.41 0.81 0 0 0.4 0.82 0 0 0.41 0.81 0 0 0.41 0.4 0 0 0.4 0.82 0 0 0.41 0.81 0 0 0.41 0.81 0 0 0.4 0.82 0 0 0.41 0.4 0 0 0.41 0.81 0 0 0.4 0.82 0 0 0.41 0.81 0 0 0.41 0.81 0 0 0.4 0.81 0 0 0.41 0.41 0 0 0.4 0.81 0 0 0.41 0.82 0 0 0.41 0.81 0 0 0.4 0.81 0 0 0.41 0.81 0 0 0.41 0.41 0 0 0.4 0.81 0 0 0.41 0.82 0 0 0.4 0.81 0 0 0.41 0.81 0 0 0.41 0.41 0 0 0.4 0.81 0 0 0.41 0.81 0 0 0.41 0.82 0 0 0.4 0.81 0 0 0.41 0.81 0 0 0.4 0.41 0 0 0.41 0.81 0 0 0.41 0.81 0 0 0.4 0.82 0 0 0.41 0.81 0 0 0.41 0.4 0 0 0.4 0.82 0 0 0.41 2.03 0 0 -0.41 0.81 0 0 -0.4 0.41 0 0 -0.41 0.4 0 0 -0.41 0.41 0 0 -1.62 0.41 0 0 -67.05 -0.41 0 0 -1.21 -0.41 0 0 -0.41 -0.4 0 0 -0.41 -0.41 0 0 -0.4 -0.81 0 0 -0.41 -99.55 0 0 -0.41 1.22 0 0 -0.4 1.22 0 0 -0.41 1.62 0 0 -0.4 1.63 0 0 -0.41 1.22 0 0 -0.41 1.62 0 0 -0.4 1.22 0 0 -0.41 1.63 0 0 -0.41 1.22 0 0 -0.4 1.62 0 0 -0.41 1.22 0 0 -0.41 1.62 0 0 -0.4 1.22 0 0 -0.41 1.63 0 0 -0.4 1.62 0 0 -0.41 1.22 0 0 -0.41 1.63 0 0 -0.4 1.22 0 0 -0.41 1.62 0 0 -0.41 1.22 0 0 -0.4 1.63 0 0 -0.41 1.22 0 0 -0.4 1.62 0 0 -0.41 1.22 0 0 -0.41 1.62 0 0 -0.4 1.22 0 0 -0.41 1.63 0 0 -0.41 0.81 0 0 -0.4 0.41 0 0 -0.82 0.4 0 0 -2.84 -0.4 0 0 -0.41 -0.41 0 0 -0.81 -0.4 0 0 -0.4 -0.41 0 0 -0.41 -0.41 0 0 -0.41 -0.4 0 0 -0.4 -0.41 0 0 -0.41 -0.41 0 0 -0.41 -0.4 0 0 -0.4 -0.41 0 0 -0.41 -0.41 0 0 -0.41 -0.4 0 0 -0.4 -0.41 0 0 -0.41 -0.4 0 0 -0.4 -0.41 0 0 -0.41 -0.41 0 0 -0.41 -0.4 0 0 -0.4 -0.41 0 0 -0.41 -0.41 0 0 -0.41 -0.4 0 0 -0.4 -0.41 0 0 -0.41 -0.4 0 0 -0.4 -0.41 0 0 -0.41 -0.41 0 0 -0.41 -0.4 0 0 -0.4 -0.41 0 0 -0.41 -0.41 0 0 -0.41 -0.4 0 0 -0.4 -0.41 0 0 -0.41 -0.41 0 0 -0.41 -0.4 0 0 -0.4 -0.41 0 0 -0.41 -0.4 0 0 -0.4 -0.41 0 0 -0.41 -0.41 0 0 -0.41 -0.4 0 0 -0.4 -0.41 0 0 -0.41 -0.41 0 0 -0.41 -0.4 0 0 -0.4 -0.41 0 0 -0.41 -0.4 0 0 -0.4 -0.41 0 0 -0.41 -0.41 0 0 -0.41 -0.4 0 0 -0.4 -0.41 0 0 -0.41 -0.41 0 0 -0.41 -0.4 0 0 -0.4 -0.41 0 0 -0.41 -0.41 0 0 -0.41 -0.4 0 0 -0.4 -0.41 0 0 -0.41 -0.4 0 0 -0.4 -0.41 0 0 -0.41 -0.41 0 0 -0.41 -0.4 0 0 -0.4 -0.41 0 0 -0.41 -0.41 0 0 -0.41 -0.4 0 0 -0.4 -0.41 0 0 -0.41 -0.4 0 0 -0.41 -0.41 0 0 -0.4 -0.41 0 0 -0.41 -0.4 0 0 -0.4 -0.41 0 0 -0.41 -0.41 0 0 -0.41 -0.4 0 0 -0.4 -0.41 0 0 -0.41 -0.4 0 0 -0.41 -0.41 0 0 -0.4 -0.41 0 0 -0.41 -0.4 0 0 -0.4 -0.41 0 0 -0.41 -0.41 0 0 -0.41 -0.4 0 0 -0.4 -0.41 0 0 -0.41 -0.41 0 0 -0.41 -0.4 0 0 -0.4 -0.41 0 0 -0.41 -0.4 0 0 -0.41 -0.41 0 0 -0.4 -0.41 0 0 -0.41 -0.4 0 0 -0.4 -0.41 0 0 -0.41 -0.41 0 0 -0.41 -0.4 0 0 -0.4 -0.41 0 0 -0.41 -0.41 0 0 -0.41 -0.4 0 0 -0.4 -0.41 0 0 -0.41 -0.4 0 0 -0.41 -0.41 0 0 -0.4 -0.41 0 0 -0.41 -0.4 0 0 -0.4 -0.41 0 0 -0.41 -0.41 0 0 -0.41 -0.4 0 0 -0.4 -0.41 0 0 -0.41 -0.4 0 0 -0.41 -0.41 0 0 -0.4 -0.41 0 0 -0.41 -0.4 0 0 -0.41 -0.41 0 0 -0.4 -0.41 0 0 -0.41 -0.4 0 0 -0.4 -0.41 0 0 -0.41 -0.4 0 0 -0.41 -0.41 0 0 -0.4 -0.41 0 0 -0.41 -0.4 0 0 -0.41 -0.41 0 0 -0.4 -0.41 0 0 -0.41 -0.4 0 0 -0.4 -0.41 0 0 -0.41 -0.41 0 0 -0.41 -0.4 0 0 -0.4 -0.41 0 0 -0.41 -0.4 0 0 -0.41 -0.82 0 0 -0.4 -0.4 0 0 -0.41 -2.85 0 0 0.41 -0.81 0 0 0.4 -0.41 0 0 0.41 -0.4 0 0 0.41 -0.41 0 0 0.4 -0.41 0 0 0.41 -0.4 0 0 0.41 -0.41 0 0 0.4 -0.4 0 0 0.41 -0.41 0 0 0.4 -0.41 0 0 0.41 -0.4 0 0 0.41 -0.41 0 0 0.4 -0.41 0 0 0.41 -0.4 0 0 0.41 -0.41 0 0 0.4 -0.41 0 0 0.41 -0.4 0 0 0.4 -0.41 0 0 0.41 -0.4 0 0 0.41 -0.41 0 0 0.4 -0.41 0 0 0.41 -0.4 0 0 0.41 -0.41 0 0 0.4 -0.41 0 0 0.41 -0.4 0 0 0.41 -0.41 0 0 0.4 -0.41 0 0 0.41 -0.4 0 0 0.4 -0.41 0 0 0.41 -0.4 0 0 0.41 -0.41 0 0 0.4 -0.41 0 0 0.41 -0.4 0 0 0.41 -0.41 0 0 0.4 -0.41 0 0 0.41 -0.4 0 0 0.41 -0.41 0 0 0.4 -0.4 0 0 0.41 -0.41 0 0 0.4 -0.41 0 0 0.41 -0.4 0 0 0.41 -0.41 0 0 0.4 -0.41 0 0 0.41 -0.4 0 0 0.41 -0.41 0 0 0.4 -0.41 0 0 0.41 -0.4 0 0 0.41 -0.41 0 0 0.4 -0.4 0 0 0.41 -0.41 0 0 0.4 -0.41 0 0 0.41 -0.4 0 0 0.41 -0.41 0 0 0.4 -0.41 0 0 0.41 -0.4 0 0 0.41 -0.41 0 0 0.4 -0.41 0 0 0.41 -0.4 0 0 0.4 -0.41 0 0 0.41 -0.4 0 0 0.41 -0.41 0 0 0.4 -0.41 0 0 0.41 -0.4 0 0 0.41 -0.41 0 0 0.4 -0.41 0 0 0.41 -0.4 0 0 0.41 -0.41 0 0 0.4 -0.41 0 0 0.41 -0.4 0 0 0.4 -0.41 0 0 0.41 -0.4 0 0 0.41 -0.41 0 0 0.4 -0.41 0 0 0.41 -0.4 0 0 0.41 -0.41 0 0 0.4 -0.41 0 0 0.41 -0.4 0 0 0.41 -0.41 0 0 0.4 -0.4 0 0 0.41 -0.41 0 0 0.4 -0.41 0 0 0.41 -0.4 0 0 0.41 -0.41 0 0 0.4 -0.41 0 0 0.41 -0.4 0 0 0.41 -0.41 0 0 0.4 -0.41 0 0 0.41 -0.4 0 0 0.4 -0.41 0 0 0.41 -0.4 0 0 0.41 -0.41 0 0 0.4 -0.41 0 0 0.41 -0.4 0 0 0.41 -0.41 0 0 0.4 -0.41 0 0 0.41 -0.4 0 0 0.41 -0.41 0 0 0.4 -0.41 0 0 0.41 -0.4 0 0 0.4 -0.41 0 0 0.41 -0.4 0 0 0.41 -0.41 0 0 0.4 -0.41 0 0 0.41 -0.4 0 0 0.41 -0.41 0 0 0.4 -0.41 0 0 0.41 -0.4 0 0 0.4 -0.41 0 0 0.41 -0.4 0 0 0.41 -0.41 0 0 0.4 -0.41 0 0 0.41 -0.4 0 0 0.41 -0.41 0 0 0.4 -0.41 0 0 0.41 -0.4 0 0 0.41 -0.41 0 0 0.4 -0.41 0 0 0.41 -0.4 0 0 0.4 -0.41 0 0 0.41 -0.4 0 0 0.41 -0.41 0 0 0.4 -0.41 0 0 0.41 -0.4 0 0 0.41 -0.41 0 0 0.4 -0.41 0 0 0.41 -0.4 0 0 0.4 -0.41 0 0 0.41 -0.41 0 0 0.41 -0.4 0 0 0.4 -0.41 0 0 0.41 -0.4 0 0 0.41 -0.41 0 0 0.4 -0.41 0 0 0.41 -0.4 0 0 0.41 -0.41 0 0 0.4 -0.41 0 0 0.41 -0.4 0 0 0.4 -0.41 0 0 0.41 -0.4 0 0 0.41 -0.41 0 0 0.4 -0.41 0 0 0.41 -0.4 0 0 0.41 -0.41 0 0 0.4 -0.41 0 0 0.41 -0.4 0 0 0.4 -0.41 0 0 0.41 -0.4 0 0 0.41 -0.41 0 0 0.4 -0.41 0 0 0.41 -0.4 0 0 0.41 -0.41 0 0 0.4 -0.41 0 0 0.41 -0.4 0 0 0.41 -0.41 0 0 0.4 -0.41 0 0 0.41 -0.4 0 0 0.4 -0.41 0 0 0.41 -0.4 0 0 0.41 -0.41 0 0 0.4 -0.41 0 0 0.41 -0.4 0 0 0.41 -0.41 0 0 0.4 -0.41 0 0 0.41 -0.4 0 0 0.4 -0.41 0 0 0.41 -0.41 0 0 0.41 -0.4 0 0 0.4 -0.41 0 0 0.41 -0.4 0 0 0.41 -0.41 0 0 0.4 -0.41 0 0 0.41 -0.4 0 0 0.41 -0.41 0z"/>
   <path class="fil1" d="M80.25 439.65l-0.4 0 0 0.81 -0.41 0 0 0.81 -0.41 0 0 0.41 -0.4 0 0 0.41 -0.41 0 0 0.4 -0.4 0 0 0.41 -0.82 0 0 0.41 -0.81 0 0 0.4 -0.81 0 0 0.41 -1.63 0 0 0.4 -14.22 0 0 -16.25 15.03 0 0 0.41 1.22 0 0 0.4 0.82 0 0 0.41 0.81 0 0 0.41 0.41 0 0 0.4 0.4 0 0 0.41 0.41 0 0 0.41 0.4 0 0 0.4 0.41 0 0 0.81 0.41 0 0 0.82 0.4 0 0 1.22 0.41 0 0 4.06 -0.41 0 0 1.22zm-30.47 -45.1l-1.22 0 0 0.4 -0.81 0 0 0.41 -0.41 0 0 0.41 -0.4 0 0 0.4 -0.41 0 0 0.81 -0.41 0 0 56.89 0.41 0 0 0.81 0.41 0 0 0.41 0.4 0 0 0.4 0.81 0 0 0.41 0.82 0 0 0.41 29.25 0 0 -0.41 2.03 0 0 -0.41 1.22 0 0 -0.4 1.22 0 0 -0.41 0.81 0 0 -0.4 0.82 0 0 -0.41 0.81 0 0 -0.41 0.81 0 0 -0.4 0.41 0 0 -0.41 0.81 0 0 -0.41 0.41 0 0 -0.4 0.4 0 0 -0.41 0.41 0 0 -0.4 0.41 0 0 -0.41 0.4 0 0 -0.41 0.41 0 0 -0.4 0.4 0 0 -0.41 0.41 0 0 -0.41 0.41 0 0 -0.4 0.4 0 0 -0.82 0.41 0 0 -0.4 0.41 0 0 -0.81 0.4 0 0 -0.82 0.41 0 0 -0.81 0.41 0 0 -0.81 0.4 0 0 -1.22 0.41 0 0 -1.22 0.4 0 0 -2.03 0.41 0 0 -6.5 -0.41 0 0 -1.63 -0.4 0 0 -1.22 -0.41 0 0 -1.22 -0.4 0 0 -0.81 -0.41 0 0 -0.81 -0.41 0 0 -0.81 -0.4 0 0 -0.41 -0.41 0 0 -0.81 -0.41 0 0 -0.41 -0.4 0 0 -0.81 -0.41 0 0 -0.41 -0.41 0 0 -0.4 -0.4 0 0 -0.41 -0.41 0 0 -0.41 -0.4 0 0 -0.4 -0.41 0 0 -0.41 -0.41 0 0 -0.41 -0.4 0 0 -0.4 -0.41 0 0 -0.41 -0.81 0 0 -0.4 -0.41 0 0 -0.41 -0.81 0 0 -0.41 -0.41 0 0 -0.4 -0.81 0 0 -0.41 -1.22 0 0 -0.41 -0.81 0 0 -0.4 -1.22 0 0 -0.41 -2.03 0 0 -0.41 -19.1 0 0 -10.97 27.63 0 0 -0.4 0.41 0 0 -0.81 0.4 0 0 -9.35 -0.4 0 0 -0.81 -0.82 0 0 -0.41 -36.97 0 0 0.41z"/>
   <polygon class="fil1" points="159.89,394.55 158.67,394.55 158.67,394.95 158.27,394.95 158.27,395.36 157.86,395.36 157.86,395.77 157.46,395.77 157.46,396.17 157.05,396.17 157.05,396.98 156.64,396.98 156.64,398.2 156.24,398.2 156.24,402.67 155.83,402.67 155.83,409.58 155.42,409.58 155.42,416.49 155.02,416.49 155.02,422.18 154.61,422.18 154.61,427.05 154.2,427.05 154.2,431.12 153.8,431.12 153.8,433.96 153.39,433.96 153.39,435.99 152.99,435.99 152.99,437.62 152.58,437.62 152.58,438.84 152.17,438.84 152.17,440.05 151.77,440.05 151.77,440.87 151.36,440.87 151.36,441.68 150.95,441.68 150.95,442.09 150.55,442.09 150.55,442.49 150.14,442.49 150.14,442.9 149.74,442.9 149.74,443.31 149.33,443.31 149.33,443.71 148.92,443.71 148.92,444.12 147.7,444.12 147.7,444.52 145.27,444.52 145.27,444.93 144.86,444.93 144.86,445.34 144.45,445.34 144.45,455.49 144.86,455.49 144.86,455.9 145.27,455.9 145.27,456.31 151.36,456.31 151.36,455.9 153.39,455.9 153.39,455.49 154.61,455.49 154.61,455.09 155.42,455.09 155.42,454.68 156.24,454.68 156.24,454.28 156.64,454.28 156.64,453.87 157.46,453.87 157.46,453.46 157.86,453.46 157.86,453.06 158.27,453.06 158.27,452.65 158.67,452.65 158.67,452.24 159.08,452.24 159.08,451.84 159.49,451.84 159.49,451.43 159.89,451.43 159.89,451.03 160.3,451.03 160.3,450.62 160.71,450.62 160.71,449.81 161.11,449.81 161.11,449.4 161.52,449.4 161.52,448.59 161.93,448.59 161.93,448.18 162.33,448.18 162.33,447.37 162.74,447.37 162.74,446.56 163.14,446.56 163.14,445.74 163.55,445.74 163.55,444.52 163.96,444.52 163.96,443.71 164.36,443.71 164.36,442.49 164.77,442.49 164.77,441.27 165.18,441.27 165.18,439.65 165.58,439.65 165.58,437.62 165.99,437.62 165.99,435.59 166.39,435.59 166.39,433.15 166.8,433.15 166.8,429.9 167.21,429.9 167.21,425.83 167.61,425.83 167.61,420.96 168.02,420.96 168.02,415.27 168.43,415.27 168.43,408.77 168.83,408.77 168.83,406.33 185.9,406.33 185.9,455.9 186.3,455.9 186.3,456.31 198.9,456.31 198.9,455.9 199.31,455.9 199.31,396.98 198.9,396.98 198.9,396.17 198.49,396.17 198.49,395.77 198.09,395.77 198.09,395.36 197.68,395.36 197.68,394.95 196.87,394.95 196.87,394.55 195.65,394.55 195.65,394.14 159.89,394.14 "/>
   <polygon class="fil1" points="208.65,394.55 207.84,394.55 207.84,394.95 207.43,394.95 207.43,455.9 207.84,455.9 207.84,456.31 220.44,456.31 220.44,455.9 220.84,455.9 220.84,428.68 230.59,428.68 230.59,429.08 233.03,429.08 233.03,429.49 234.25,429.49 234.25,429.9 235.06,429.9 235.06,430.3 235.47,430.3 235.47,430.71 235.88,430.71 235.88,431.12 236.28,431.12 236.28,431.52 236.69,431.52 236.69,431.93 237.1,431.93 237.1,432.33 237.5,432.33 237.5,433.15 237.91,433.15 237.91,433.96 238.31,433.96 238.31,434.77 238.72,434.77 238.72,435.99 239.13,435.99 239.13,437.62 239.53,437.62 239.53,438.84 239.94,438.84 239.94,440.46 240.35,440.46 240.35,442.09 240.75,442.09 240.75,443.31 241.16,443.31 241.16,444.93 241.56,444.93 241.56,446.15 241.97,446.15 241.97,447.77 242.38,447.77 242.38,448.99 242.78,448.99 242.78,450.62 243.19,450.62 243.19,451.84 243.6,451.84 243.6,453.46 244,453.46 244,454.68 244.41,454.68 244.41,455.9 244.82,455.9 244.82,456.31 257.01,456.31 257.01,455.9 257.41,455.9 257.41,455.49 257.82,455.49 257.82,453.87 257.41,453.87 257.41,452.24 257.01,452.24 257.01,451.03 256.6,451.03 256.6,449.4 256.19,449.4 256.19,447.77 255.79,447.77 255.79,446.15 255.38,446.15 255.38,444.93 254.97,444.93 254.97,443.31 254.57,443.31 254.57,441.68 254.16,441.68 254.16,440.05 253.75,440.05 253.75,438.84 253.35,438.84 253.35,437.21 252.94,437.21 252.94,435.59 252.54,435.59 252.54,433.96 252.13,433.96 252.13,432.74 251.72,432.74 251.72,431.52 251.32,431.52 251.32,430.3 250.91,430.3 250.91,429.49 250.5,429.49 250.5,428.68 250.1,428.68 250.1,427.87 249.69,427.87 249.69,427.46 249.29,427.46 249.29,426.65 248.88,426.65 248.88,426.24 248.47,426.24 248.47,425.83 247.66,425.83 247.66,425.43 247.25,425.43 247.25,425.02 246.85,425.02 246.85,424.61 246.03,424.61 246.03,424.21 245.22,424.21 245.22,423.8 244.41,423.8 244.41,423.4 243.19,423.4 243.19,422.99 243.6,422.99 243.6,422.58 244.41,422.58 244.41,422.18 244.82,422.18 244.82,421.77 245.22,421.77 245.22,421.36 245.63,421.36 245.63,420.96 246.03,420.96 246.03,420.55 246.44,420.55 246.44,420.15 246.85,420.15 246.85,419.74 247.25,419.74 247.25,419.33 247.66,419.33 247.66,418.93 248.07,418.93 248.07,418.11 248.47,418.11 248.47,417.71 248.88,417.71 248.88,416.89 249.29,416.89 249.29,416.08 249.69,416.08 249.69,415.27 250.1,415.27 250.1,414.05 250.5,414.05 250.5,412.83 250.91,412.83 250.91,411.21 251.32,411.21 251.32,409.58 251.72,409.58 251.72,407.96 252.13,407.96 252.13,406.33 252.54,406.33 252.54,404.71 252.94,404.71 252.94,403.08 253.35,403.08 253.35,401.45 253.75,401.45 253.75,399.83 254.16,399.83 254.16,398.61 254.57,398.61 254.57,396.98 254.97,396.98 254.97,394.95 254.57,394.95 254.57,394.55 253.75,394.55 253.75,394.14 243.19,394.14 243.19,394.55 242.38,394.55 242.38,394.95 241.97,394.95 241.97,395.77 241.56,395.77 241.56,397.39 241.16,397.39 241.16,399.02 240.75,399.02 240.75,400.23 240.35,400.23 240.35,401.86 239.94,401.86 239.94,403.49 239.53,403.49 239.53,405.11 239.13,405.11 239.13,406.33 238.72,406.33 238.72,407.96 238.31,407.96 238.31,409.58 237.91,409.58 237.91,410.8 237.5,410.8 237.5,412.02 237.1,412.02 237.1,413.24 236.69,413.24 236.69,414.05 236.28,414.05 236.28,414.46 235.88,414.46 235.88,415.27 235.47,415.27 235.47,415.68 235.06,415.68 235.06,416.08 234.66,416.08 234.66,416.49 234.25,416.49 234.25,416.89 233.44,416.89 233.44,417.3 232.63,417.3 232.63,417.71 231.41,417.71 231.41,418.11 220.84,418.11 220.84,394.95 220.44,394.95 220.44,394.55 219.62,394.55 219.62,394.14 208.65,394.14 "/>
   <path class="fil1" d="M280.57 431.52l0.41 0 0 -1.22 0.4 0 0 -1.22 0.41 0 0 -1.62 0.41 0 0 -1.22 0.4 0 0 -1.22 0.41 0 0 -1.62 0.41 0 0 -1.22 0.4 0 0 -1.22 0.41 0 0 -1.63 0.4 0 0 -1.62 0.41 0 0 -1.63 0.41 0 0 -1.22 0.4 0 0 -1.62 0.41 0 0 -1.63 0.41 0 0 -1.62 0.4 0 0 -1.22 0.41 0 0 0.4 0.41 0 0 1.63 0.4 0 0 1.62 0.41 0 0 1.63 0.4 0 0 1.22 0.41 0 0 1.62 0.41 0 0 1.63 0.4 0 0 1.63 0.41 0 0 1.62 0.41 0 0 1.22 0.4 0 0 1.22 0.41 0 0 1.62 0.4 0 0 1.22 0.41 0 0 1.22 0.41 0 0 1.63 0.4 0 0 1.22 0.41 0 0 1.21 -13.41 0 0 -0.81zm1.63 -36.97l-1.22 0 0 0.4 -0.41 0 0 0.41 -0.4 0 0 0.41 -0.41 0 0 0.4 -0.41 0 0 0.41 -0.4 0 0 0.81 -0.41 0 0 0.81 -0.41 0 0 1.22 -0.4 0 0 1.22 -0.41 0 0 1.22 -0.4 0 0 1.22 -0.41 0 0 1.22 -0.41 0 0 1.22 -0.4 0 0 1.22 -0.41 0 0 1.22 -0.41 0 0 1.21 -0.4 0 0 1.22 -0.41 0 0 1.22 -0.41 0 0 1.22 -0.4 0 0 1.22 -0.41 0 0 1.22 -0.4 0 0 1.22 -0.41 0 0 1.22 -0.41 0 0 1.22 -0.4 0 0 1.22 -0.41 0 0 1.21 -0.41 0 0 1.22 -0.4 0 0 1.22 -0.41 0 0 1.22 -0.41 0 0 1.22 -0.4 0 0 1.22 -0.41 0 0 1.22 -0.4 0 0 1.22 -0.41 0 0 1.22 -0.41 0 0 1.21 -0.4 0 0 1.22 -0.41 0 0 1.22 -0.41 0 0 1.22 -0.4 0 0 1.22 -0.41 0 0 1.22 -0.4 0 0 1.22 -0.41 0 0 1.22 -0.41 0 0 1.22 -0.4 0 0 1.22 -0.41 0 0 1.21 -0.41 0 0 1.22 -0.4 0 0 1.22 -0.41 0 0 1.22 -0.4 0 0 1.63 -0.41 0 0 1.22 -0.41 0 0 1.21 -0.4 0 0 1.22 -0.41 0 0 1.22 -0.41 0 0 0.41 0.41 0 0 0.81 0.41 0 0 0.41 13 0 0 -0.41 0.4 0 0 -1.22 0.41 0 0 -1.22 0.41 0 0 -1.22 0.4 0 0 -1.21 0.41 0 0 -1.63 0.41 0 0 -1.22 0.4 0 0 -1.22 0.41 0 0 -1.22 0.41 0 0 -1.62 0.4 0 0 -0.41 20.32 0 0 1.22 0.4 0 0 1.63 0.41 0 0 1.21 0.41 0 0 1.22 0.4 0 0 1.63 0.41 0 0 1.22 0.4 0 0 1.22 0.41 0 0 1.62 0.41 0 0 0.81 0.4 0 0 0.41 0.41 0 0 0.41 13 0 0 -0.41 0.41 0 0 -2.44 -0.41 0 0 -1.22 -0.4 0 0 -1.21 -0.41 0 0 -1.22 -0.41 0 0 -1.22 -0.4 0 0 -1.22 -0.41 0 0 -1.22 -0.41 0 0 -1.22 -0.4 0 0 -1.22 -0.41 0 0 -1.22 -0.4 0 0 -1.22 -0.41 0 0 -1.22 -0.41 0 0 -1.21 -0.4 0 0 -1.22 -0.41 0 0 -1.22 -0.41 0 0 -1.22 -0.4 0 0 -1.22 -0.41 0 0 -1.22 -0.4 0 0 -1.22 -0.41 0 0 -1.22 -0.41 0 0 -1.22 -0.4 0 0 -1.21 -0.41 0 0 -1.22 -0.41 0 0 -1.22 -0.4 0 0 -1.22 -0.41 0 0 -1.22 -0.41 0 0 -1.22 -0.4 0 0 -1.22 -0.41 0 0 -1.22 -0.4 0 0 -1.22 -0.41 0 0 -1.22 -0.41 0 0 -1.21 -0.4 0 0 -1.22 -0.41 0 0 -1.22 -0.41 0 0 -1.22 -0.4 0 0 -1.22 -0.41 0 0 -1.22 -0.41 0 0 -1.22 -0.4 0 0 -1.22 -0.41 0 0 -1.22 -0.4 0 0 -1.21 -0.41 0 0 -1.22 -0.41 0 0 -1.22 -0.4 0 0 -1.22 -0.41 0 0 -1.22 -0.41 0 0 -1.22 -0.4 0 0 -1.22 -0.41 0 0 -0.81 -0.4 0 0 -0.41 -0.41 0 0 -0.4 -0.41 0 0 -0.41 -0.4 0 0 -0.41 -0.82 0 0 -0.4 -1.22 0 0 -0.41 -10.15 0 0 0.41z"/>
   <polygon class="fil1" points="112.35,394.55 110.73,394.55 110.73,394.95 109.51,394.95 109.51,395.36 108.29,395.36 108.29,395.77 107.48,395.77 107.48,396.17 106.66,396.17 106.66,396.58 106.26,396.58 106.26,396.98 105.45,396.98 105.45,397.39 105.04,397.39 105.04,397.8 104.23,397.8 104.23,398.2 103.82,398.2 103.82,398.61 103.41,398.61 103.41,399.02 103.01,399.02 103.01,399.42 102.6,399.42 102.6,399.83 102.19,399.83 102.19,400.64 101.79,400.64 101.79,401.05 101.38,401.05 101.38,401.45 100.98,401.45 100.98,402.27 100.57,402.27 100.57,402.67 100.16,402.67 100.16,403.49 99.76,403.49 99.76,404.3 99.35,404.3 99.35,405.52 98.94,405.52 98.94,406.74 98.54,406.74 98.54,409.17 98.13,409.17 98.13,441.68 98.54,441.68 98.54,443.71 98.94,443.71 98.94,445.34 99.35,445.34 99.35,446.15 99.76,446.15 99.76,446.96 100.16,446.96 100.16,447.77 100.57,447.77 100.57,448.59 100.98,448.59 100.98,449.4 101.38,449.4 101.38,449.81 101.79,449.81 101.79,450.21 102.19,450.21 102.19,450.62 102.6,450.62 102.6,451.03 103.01,451.03 103.01,451.43 103.41,451.43 103.41,451.84 103.82,451.84 103.82,452.24 104.23,452.24 104.23,452.65 104.63,452.65 104.63,453.06 105.04,453.06 105.04,453.46 105.85,453.46 105.85,453.87 106.26,453.87 106.26,454.28 107.07,454.28 107.07,454.68 107.88,454.68 107.88,455.09 108.7,455.09 108.7,455.49 109.91,455.49 109.91,455.9 111.54,455.9 111.54,456.31 141.2,456.31 141.2,455.9 141.61,455.9 141.61,444.93 140.8,444.93 140.8,444.52 115.2,444.52 115.2,444.12 113.98,444.12 113.98,443.71 113.57,443.71 113.57,443.31 113.17,443.31 113.17,442.9 112.76,442.9 112.76,442.49 112.35,442.49 112.35,441.68 111.95,441.68 111.95,428.27 137.95,428.27 137.95,427.87 138.36,427.87 138.36,427.46 138.76,427.46 138.76,417.3 138.36,417.3 138.36,416.89 111.95,416.89 111.95,408.77 112.35,408.77 112.35,407.96 112.76,407.96 112.76,407.55 113.17,407.55 113.17,407.14 113.57,407.14 113.57,406.74 114.38,406.74 114.38,406.33 115.6,406.33 115.6,405.92 141.2,405.92 141.2,405.52 141.61,405.52 141.61,394.95 141.2,394.95 141.2,394.55 140.39,394.55 140.39,394.14 112.35,394.14 "/>
   <path class="fil1" d="M352.09 416.89l-0.41 0 0 0.82 -0.41 0 0 0.81 -0.4 0 0 0.41 -0.41 0 0 0.4 -0.41 0 0 0.41 -0.4 0 0 0.41 -0.41 0 0 0.4 -0.41 0 0 0.41 -0.81 0 0 0.4 -0.81 0 0 0.41 -1.63 0 0 0.41 -13 0 0 -16.26 12.6 0 0 0.41 1.62 0 0 0.41 1.22 0 0 0.4 0.81 0 0 0.41 0.41 0 0 0.41 0.41 0 0 0.4 0.4 0 0 0.41 0.41 0 0 0.4 0.41 0 0 0.41 0.4 0 0 0.81 0.41 0 0 0.82 0.41 0 0 2.03 0.4 0 0 1.62 -0.4 0 0 2.03zm-29.67 -22.34l-1.22 0 0 0.4 -0.4 0 0 0.41 -0.81 0 0 0.81 -0.41 0 0 0.41 -0.41 0 0 1.22 -0.4 0 0 57.69 0.4 0 0 0.41 0.41 0 0 0.41 12.19 0 0 -0.41 0.4 0 0 -0.81 0.41 0 0 -21.13 16.25 0 0 -0.41 2.44 0 0 -0.4 1.63 0 0 -0.41 1.22 0 0 -0.41 0.81 0 0 -0.4 0.81 0 0 -0.41 0.81 0 0 -0.4 0.82 0 0 -0.41 0.4 0 0 -0.41 0.82 0 0 -0.4 0.4 0 0 -0.41 0.41 0 0 -0.41 0.41 0 0 -0.4 0.4 0 0 -0.41 0.81 0 0 -0.4 0.41 0 0 -0.82 0.41 0 0 -0.4 0.4 0 0 -0.41 0.41 0 0 -0.41 0.41 0 0 -0.81 0.4 0 0 -0.41 0.41 0 0 -0.81 0.41 0 0 -0.81 0.4 0 0 -0.81 0.41 0 0 -0.82 0.4 0 0 -1.21 0.41 0 0 -1.63 0.41 0 0 -2.44 0.4 0 0 -4.47 -0.4 0 0 -2.03 -0.41 0 0 -1.62 -0.41 0 0 -1.22 -0.4 0 0 -0.82 -0.41 0 0 -0.81 -0.4 0 0 -0.81 -0.41 0 0 -0.81 -0.41 0 0 -0.41 -0.4 0 0 -0.81 -0.41 0 0 -0.41 -0.41 0 0 -0.41 -0.4 0 0 -0.4 -0.41 0 0 -0.82 -0.41 0 0 -0.4 -0.4 0 0 -0.41 -0.81 0 0 -0.4 -0.41 0 0 -0.41 -0.41 0 0 -0.41 -0.4 0 0 -0.4 -0.82 0 0 -0.41 -0.4 0 0 -0.41 -0.82 0 0 -0.4 -0.81 0 0 -0.41 -0.81 0 0 -0.4 -1.22 0 0 -0.41 -0.81 0 0 -0.41 -1.63 0 0 -0.4 -3.25 0 0 -0.41 -25.6 0 0 0.41z"/>
   <polygon class="fil1" points="368.34,394.55 367.53,394.55 367.53,395.36 367.12,395.36 367.12,405.11 367.53,405.11 367.53,405.52 367.93,405.52 367.93,405.92 384.59,405.92 384.59,455.49 385,455.49 385,455.9 385.4,455.9 385.4,456.31 397.59,456.31 397.59,455.9 398,455.9 398,455.49 398.41,455.49 398.41,405.92 415.47,405.92 415.47,405.52 415.88,405.52 415.88,394.95 415.47,394.95 415.47,394.55 415.06,394.55 415.06,394.14 368.34,394.14 "/>
  </g>
 </g>
</svg>
