<?xml version="1.0" encoding="UTF-8"?>
<!DOCTYPE svg PUBLIC "-//W3C//DTD SVG 1.1//EN" "http://www.w3.org/Graphics/SVG/1.1/DTD/svg11.dtd">
<!-- Creator: CorelDRAW 2018 (64-Bit) -->
<svg xmlns="http://www.w3.org/2000/svg" xml:space="preserve" width="1893px" height="500px" version="1.1" style="shape-rendering:geometricPrecision; text-rendering:geometricPrecision; image-rendering:optimizeQuality; fill-rule:evenodd; clip-rule:evenodd"
viewBox="0 0 1894.46 500.47"
 xmlns:xlink="http://www.w3.org/1999/xlink">
 <defs>
  <style type="text/css">
   <![CDATA[
    .fil2 {fill:#FEFEFE}
    .fil1 {fill:#024978}
    .fil3 {fill:#024978;fill-rule:nonzero}
    .fil0 {fill:white;fill-opacity:0.000000}
   ]]>
  </style>
 </defs>
 <g id="Слой_x0020_1">
  <metadata id="CorelCorpID_0Corel-Layer"/>
  <g id="_2054508628064">
   <polygon class="fil0" points="0,500.47 1894.46,500.47 1894.46,0 0,0 "/>
  </g>
  <g id="logotip-belkart_internetparol_itog_x0020__x0028_1_x0029_.cdr">
   <path class="fil1" d="M85.86 43.76l296.22 0c23.38,0 42.5,19.12 42.5,42.5l0 296.22c0,23.38 -19.12,42.51 -42.5,42.51l-296.22 0c-23.38,0 -42.5,-19.13 -42.5,-42.51l0 -296.22c0,-23.38 19.12,-42.5 42.5,-42.5z"/>
   <path class="fil2" d="M301.51 327.19l-45.45 0c-1.31,0 -2.39,-1.07 -2.39,-2.38l0 -11.25 -34.2 34.2c-0.93,0.93 -2.45,0.93 -3.38,0l-32.14 -32.13c-0.92,-0.93 -0.92,-2.45 0,-3.38l7.96 -7.95 -48.38 0c-1.31,0 -2.38,-1.08 -2.38,-2.39l0 -45.45c0,-1.31 1.07,-2.39 2.38,-2.39l11.25 0 -34.2 -34.2c-0.93,-0.93 -0.93,-2.45 0,-3.38l32.14 -32.14c0.92,-0.92 2.44,-0.92 3.37,0l7.96 7.96 0 -48.37c0,-1.32 1.07,-2.39 2.38,-2.39l45.45 0c1.31,0 2.39,1.07 2.39,2.39l0 11.25 34.2 -34.21c0.93,-0.93 2.45,-0.93 3.38,0l32.14 32.14c0.92,0.93 0.92,2.44 0,3.37l-7.96 7.96 48.37 0c1.32,0 2.39,1.07 2.39,2.39l0 45.45c0,1.31 -1.07,2.38 -2.39,2.38l-11.24 0 34.2 34.2c0.93,0.93 0.93,2.45 0,3.38l-32.14 32.14c-0.92,0.93 -2.44,0.93 -3.37,0l-7.96 -7.96 0 48.38c0,1.31 -1.07,2.38 -2.38,2.38zm-5.85 -126.64l-17.76 14.12 -21.84 0c-1.31,0 -2.39,-1.07 -2.39,-2.38l0 -45.45 -2.57 22.53 -15.44 15.45c-0.93,0.93 -2.45,0.93 -3.38,0l-18.01 -18.01 -14.13 -14.13 14.13 17.76 0 21.84c0,1.32 -1.08,2.39 -2.39,2.39l-45.45 0 22.55 2.57 0 0 15.44 15.44c0.93,0.93 0.93,2.45 0,3.38l-32.14 32.14 17.76 -14.13 21.84 0c1.31,0 2.39,1.08 2.39,2.39l0 45.45 2.57 -22.54 15.44 -15.45c0.93,-0.93 2.45,-0.93 3.38,0l32.14 32.14 -14.13 -17.76 0 -21.84c0,-1.31 1.08,-2.39 2.39,-2.39l45.44 0 0.01 0 -22.54 -2.57 -15.45 -15.44c-0.93,-0.93 -0.93,-2.45 0,-3.38l18.01 -18.01 0 0 14.13 -14.12zm0 0l0 0 0 0zm-41.99 -33.71l0 0 0 0z"/>
   <path class="fil3" d="M628.15 196.41c0.55,17.76 -13.48,30.58 -31.23,30.58l-46.67 0 0 -59.87 46.99 0c16.58,0 30.36,11.54 30.91,29.29zm1156.8 -110.08l0 178.32c0,3.07 -2.72,5.15 -5.8,5.15l-37.34 0c-2.96,0 -5.79,-2.16 -5.79,-5.15l0 -178.32 -58.58 0c-2.99,0 -5.15,-2.84 -5.15,-5.8l0 -30.58c0,-3.08 2.08,-5.79 5.15,-5.79 55.68,0 111.37,0 167.05,0 3.07,0 5.16,2.71 5.16,5.79l0 30.58c0,2.96 -2.17,5.8 -5.16,5.8l-59.54 0zm-935.12 176.07l0 -29.63c0,-2.2 -1.66,-5.46 -5.46,-5.46l-87.44 0c-5.34,0 -15.9,-3.7 -15.9,-17.26l0 -42.93 92.95 0c3.89,0 5.54,-3.31 5.54,-5.26l0 -30.16c0,-3.16 -2.2,-5.46 -6.11,-5.46l-92.38 0 0 -24.06c0,-10.23 8.49,-15.85 15.9,-15.85l87.18 0c4.08,0 5.72,-3.14 5.72,-5.45l0 -31.26c0,-3.09 -2.32,-5.44 -6.12,-5.46l-90.78 -0.43c-34.1,-0.16 -60.83,28.4 -60.83,59.98l0 106.86c0,32.77 27.68,59.23 59.55,59.23l92.63 0c3.28,0 5.47,-2.41 5.55,-5.45 0.01,-0.55 0,-1.3 0,-1.95zm370.35 -112.66l0 -1.61c6.92,-4.18 12.71,-9.66 17.27,-16.36 4.61,-6.71 8,-14.65 10.09,-23.77l14.8 -57.46c0.55,-2.55 -1.17,-6.38 -5.38,-6.38l-35.18 0c-1.18,-0.05 -2.41,0.16 -3.7,0.7 -1.28,0.48 -2.19,1.77 -2.73,3.81l-14.49 54.18c-1.72,6.6 -4.02,11.86 -6.87,15.72 -2.84,3.92 -6,6.81 -9.49,8.69 -3.43,1.88 -6.97,3.11 -10.51,3.7 -3.6,0.54 -6.98,0.81 -10.14,0.75l-25.43 0 0 -82.19c0,-3.46 -2.92,-5.36 -5.37,-5.36l-37.76 0c-3.2,0 -5.8,2.31 -5.8,5.15l0 215.34c0,2.99 2.83,5.15 5.8,5.15l37.34 0c3.08,0 5.79,-2.08 5.79,-5.15l0 -95.6 26.07 0c7.46,-0.11 13.79,0.59 18.94,2.09 5.15,1.45 9.44,4.13 12.88,8.05 3.37,3.92 6.22,9.55 8.41,16.9l19.83 69.84c1.09,2.87 3.07,3.87 5.13,3.87l37.36 0c4.72,0.22 6.11,-4.32 5.6,-6.43l-19.95 -74.68c-1.24,-4.83 -2.63,-9.23 -4.08,-13.15 -1.5,-3.97 -3.38,-7.51 -5.69,-10.67 -2.25,-3.17 -5.26,-6.01 -8.9,-8.53 -3.65,-2.47 -8.27,-4.67 -13.84,-6.6zm135.48 33.16l12.23 -40.78 12.24 -45.92 1.93 0 11.91 45.92 12.23 40.78 -50.54 0zm62.12 39.9l12.56 41.85c1.07,3.84 3.13,5.15 5.55,5.15l40.72 0c3.81,-0.02 6.29,-3.21 5.35,-7.02l-66.75 -200.97c-3.16,-9.79 -7.85,-17.65 -19.23,-17.65l-28.9 0.07c-5.75,-0.36 -10.78,1.59 -14.69,6.74 -1.99,2.62 -3.7,6.17 -5.1,10.84l-66.7 200.71c-1.49,4.47 2.26,7.28 5.23,7.28l39.15 0c1.25,0 3.92,0.17 5.58,-3.33 0.36,-0.78 0.74,-1.88 0.97,-2.79l12.55 -40.88 73.71 0zm200.5 -106.92c-0.02,15.74 -12.55,29.57 -29.55,29.55l-43.86 -0.05 0 -59.05 41.84 0c18.97,-0.59 31.59,13.8 31.57,29.55zm-73.41 147.16l0 -75.44 53.49 0c37,0 71.66,-30.26 71.08,-72.95 0,-10.24 -2.59,-19.88 -6.35,-28.32 -8.87,-19.87 -25.07,-33.15 -44.2,-38.99 -7.83,-2.38 -16.37,-3.11 -24.77,-3.18l-81.67 0c-8.68,0 -15.95,5.99 -16.33,15.46 -0.06,1.32 -0.2,2.71 -0.18,4.17l0 200.56c0,3.12 2.33,5.43 5.54,5.45l38 0c1.97,0 3.86,-1.18 4.74,-2.9 0.54,-1.07 0.65,-2.31 0.65,-3.86zm-1027.65 6.76l84.53 0c41.79,1.46 75.9,-27.52 77.25,-70.81 0.06,-3.71 0.27,-8.13 -0.75,-12.99 -7.4,-35.42 -35.39,-59.76 -71.05,-59.76l-56.95 0 0 -40.23 97.21 0c3.67,0.08 5.88,-2.55 5.79,-6.12l0 -28.65c0.08,-3.92 -1.38,-7.17 -5.79,-7.08l-129.07 0c-13.2,0 -17.07,9.67 -17.07,15.89l0 193.88c0,8.72 6.88,15.87 15.9,15.87zm385.98 -204.07l-2.9 48.92c-0.97,16.69 -2.04,31.12 -3.16,43.46 -1.78,20.36 -3.84,69.2 -30.22,69.2 -0.31,0 -0.67,0.01 -1.04,0 -2.38,-0.02 -5.4,2 -5.4,5.27l0 29.82c0,0.63 0,1.04 0,1.59 0,3.45 2.33,5.81 5.46,5.81 0.46,0 1.9,0 2.35,0 19.88,-0.08 37.32,-2.18 52.34,-24.89 4.72,-7.13 8.86,-15.13 11.81,-24.2 3,-9.06 5.36,-19.26 7.08,-30.47 1.72,-11.21 3.11,-23.55 4.24,-37.07 1.07,-13.46 2.14,-28.11 3.21,-43.99l1.29 -22.53 62.77 0 0 177.71c0,3 2.59,5.72 5.79,5.44l37.31 0c3.87,0 5.83,-2.67 5.83,-5.79l0 -203.95c0.03,-8.46 -7.05,-15.9 -17.03,-15.9l-123.49 0c-9.49,0 -15.12,8.3 -15.53,15.18 -0.11,1.96 -0.58,4.06 -0.71,6.39z"/>
   <path class="fil1" d="M572.62 346.51l-14.6 24.6 -27.73 44.95c-0.98,1.53 -1.86,2.76 -2.62,3.69 -0.77,0.93 -1.59,1.67 -2.46,2.22 -0.88,0.54 -1.89,0.9 -3.04,1.06 -1.15,0.17 -2.54,0.25 -4.18,0.25l-6.56 0c-4.27,0 -7.11,-1.01 -8.53,-3.04 -1.42,-2.02 -2.14,-4.78 -2.14,-8.28l0 -100.56c0,-2.08 1.15,-3.12 3.45,-3.12l17.55 0c1.53,0 2.49,0.22 2.87,0.66 0.39,0.44 0.58,1.26 0.58,2.46l0 73.82 0.98 0 13.95 -22.97 28.37 -46.58c0.99,-1.54 1.86,-2.79 2.63,-3.78 0.77,-0.98 1.58,-1.75 2.46,-2.29 0.87,-0.55 1.86,-0.91 2.95,-1.07 1.1,-0.16 2.46,-0.25 4.1,-0.25l6.73 0c4.05,0 6.84,0.85 8.37,2.55 1.53,1.69 2.29,4.67 2.29,8.94l0 100.39c0,2.08 -1.15,3.12 -3.44,3.12l-17.55 0c-1.54,0 -2.52,-0.22 -2.96,-0.66 -0.43,-0.44 -0.65,-1.25 -0.65,-2.46l0 -73.65 -0.82 0zm72.17 73.49c0,1.42 -0.24,2.32 -0.73,2.7 -0.5,0.39 -1.51,0.58 -3.04,0.58l-16.4 0c-2.41,0 -3.61,-1.1 -3.61,-3.28l0 -79.73c0,-2.08 1.2,-3.11 3.61,-3.11l16.4 0c1.53,0 2.54,0.19 3.04,0.57 0.49,0.38 0.73,1.23 0.73,2.54l0 28.05 30.68 0 0 -28.05c0,-2.08 1.2,-3.11 3.64,-3.11l16.51 0c1.53,0 2.54,0.19 2.98,0.57 0.44,0.38 0.66,1.23 0.66,2.54l0 79.73c0,1.42 -0.22,2.32 -0.66,2.7 -0.44,0.39 -1.45,0.58 -2.98,0.58l-16.51 0c-2.44,0 -3.64,-1.1 -3.64,-3.28l0 -32.97 -30.68 0 0 32.97zm116.97 -63.49l0 63.49c0,1.42 -0.25,2.32 -0.74,2.7 -0.49,0.39 -1.5,0.58 -3.03,0.58l-16.24 0c-2.52,0 -3.78,-1.1 -3.78,-3.28l0 -63.49 -23.29 0c-2.19,0 -3.28,-1.2 -3.28,-3.61l0 -11.97c0,-1.53 0.19,-2.54 0.57,-3.04 0.38,-0.49 1.29,-0.73 2.71,-0.73l70.86 0c1.32,0 2.19,0.24 2.63,0.73 0.44,0.5 0.66,1.51 0.66,3.04l0 11.97c0,2.41 -1.1,3.61 -3.29,3.61l-23.78 0zm71.85 -21.49c12.79,0 22.39,3.2 28.79,9.6 6.4,6.4 9.6,15.56 9.6,27.48 0,5.68 -1.1,9.57 -3.29,11.64 -2.18,2.08 -5.19,3.12 -9.02,3.12l-41.99 0c0.11,3.5 0.68,6.4 1.72,8.7 1.04,2.29 2.43,4.15 4.18,5.57 1.75,1.42 3.8,2.41 6.15,2.96 2.35,0.54 4.9,0.82 7.63,0.82 3.17,0 6.4,-0.39 9.68,-1.15 3.28,-0.77 6.34,-1.75 9.19,-2.96 1.31,-0.43 2.21,-0.57 2.7,-0.41 0.49,0.17 0.96,0.69 1.4,1.56l5.25 11.81c0.44,0.99 0.52,1.75 0.24,2.3 -0.27,0.55 -0.84,1.09 -1.72,1.64 -4.04,2.63 -8.75,4.51 -14.11,5.66 -5.35,1.15 -10.33,1.72 -14.92,1.72 -14.33,0 -24.94,-3.55 -31.83,-10.66 -6.89,-7.11 -10.33,-18.37 -10.33,-33.79 0,-7.22 0.95,-13.65 2.87,-19.28 1.91,-5.63 4.65,-10.42 8.2,-14.35 3.55,-3.94 7.82,-6.92 12.79,-8.94 4.98,-2.02 10.59,-3.04 16.82,-3.04zm0.49 19.69c-4.48,0 -8.15,1.58 -10.99,4.76 -2.84,3.17 -4.48,7.21 -4.92,12.13l30.68 0c0,-2.4 -0.25,-4.64 -0.74,-6.72 -0.5,-2.08 -1.29,-3.86 -2.38,-5.33 -1.09,-1.48 -2.57,-2.65 -4.43,-3.53 -1.86,-0.87 -4.27,-1.31 -7.22,-1.31zm79.07 99.24c0,1.21 -0.19,1.97 -0.57,2.3 -0.39,0.33 -1.34,0.49 -2.85,0.49l-16.95 0c-1.2,0 -2.05,-0.16 -2.6,-0.49 -0.54,-0.33 -0.82,-1.09 -0.82,-2.3l0 -106.95c0,-1.2 0.19,-2.16 0.58,-2.87 0.38,-0.71 1.28,-1.45 2.71,-2.22 5.24,-2.4 11.12,-4.1 17.63,-5.08 6.51,-0.99 12.71,-1.48 18.62,-1.48 7.76,0 14.3,1.18 19.6,3.53 5.31,2.35 9.57,5.52 12.8,9.51 3.22,4 5.55,8.72 6.97,14.19 1.42,5.47 2.13,11.32 2.13,17.55 0,6.13 -0.76,11.9 -2.3,17.31 -1.53,5.42 -3.91,10.14 -7.08,14.19 -3.17,4.05 -7.21,7.25 -12.08,9.6 -4.9,2.35 -10.61,3.53 -17.2,3.53 -3.28,0 -6.34,-0.14 -9.13,-0.42 -2.79,-0.27 -5.96,-0.79 -9.46,-1.55l0 31.16zm32.32 -74.31c0,-4.48 -0.44,-8.25 -1.32,-11.32 -0.87,-3.06 -2.18,-5.52 -3.88,-7.38 -1.69,-1.86 -3.8,-3.17 -6.26,-3.93 -2.49,-0.77 -5.25,-1.15 -8.34,-1.15 -1.53,0 -3.52,0.16 -6.01,0.49 -2.46,0.33 -4.65,0.76 -6.51,1.31l0 44.78c2.87,0.77 5.41,1.26 7.66,1.48 2.27,0.22 4.26,0.33 6.04,0.33 5.49,0 9.95,-1.86 13.42,-5.58 3.47,-3.72 5.2,-10.06 5.2,-19.03zm66.76 40.36c0,1.42 -0.24,2.32 -0.74,2.7 -0.49,0.39 -1.5,0.58 -3.03,0.58l-16.4 0c-2.41,0 -3.61,-1.1 -3.61,-3.28l0 -79.73c0,-2.08 1.2,-3.11 3.61,-3.11l16.4 0c1.53,0 2.54,0.19 3.03,0.57 0.5,0.38 0.74,1.23 0.74,2.54l0 28.05 30.68 0 0 -28.05c0,-2.08 1.2,-3.11 3.64,-3.11l16.51 0c1.53,0 2.54,0.19 2.98,0.57 0.44,0.38 0.66,1.23 0.66,2.54l0 79.73c0,1.42 -0.22,2.32 -0.66,2.7 -0.44,0.39 -1.45,0.58 -2.98,0.58l-16.51 0c-2.44,0 -3.64,-1.1 -3.64,-3.28l0 -32.97 -30.68 0 0 32.97zm113.03 -84.98c12.8,0 22.39,3.2 28.79,9.6 6.4,6.4 9.6,15.56 9.6,27.48 0,5.68 -1.1,9.57 -3.28,11.64 -2.19,2.08 -5.2,3.12 -9.03,3.12l-41.99 0c0.11,3.5 0.68,6.4 1.72,8.7 1.04,2.29 2.43,4.15 4.18,5.57 1.75,1.42 3.8,2.41 6.15,2.96 2.36,0.54 4.9,0.82 7.63,0.82 3.17,0 6.4,-0.39 9.68,-1.15 3.28,-0.77 6.34,-1.75 9.19,-2.96 1.31,-0.43 2.21,-0.57 2.7,-0.41 0.5,0.17 0.96,0.69 1.4,1.56l5.25 11.81c0.44,0.99 0.52,1.75 0.25,2.3 -0.28,0.55 -0.85,1.09 -1.73,1.64 -4.04,2.63 -8.75,4.51 -14.11,5.66 -5.35,1.15 -10.33,1.72 -14.92,1.72 -14.33,0 -24.94,-3.55 -31.83,-10.66 -6.89,-7.11 -10.33,-18.37 -10.33,-33.79 0,-7.22 0.95,-13.65 2.87,-19.28 1.91,-5.63 4.65,-10.42 8.2,-14.35 3.55,-3.94 7.82,-6.92 12.8,-8.94 4.97,-2.02 10.58,-3.04 16.81,-3.04zm0.49 19.69c-4.48,0 -8.14,1.58 -10.99,4.76 -2.84,3.17 -4.48,7.21 -4.92,12.13l30.68 0c0,-2.4 -0.25,-4.64 -0.74,-6.72 -0.5,-2.08 -1.29,-3.86 -2.38,-5.33 -1.09,-1.48 -2.57,-2.65 -4.43,-3.53 -1.86,-0.87 -4.27,-1.31 -7.22,-1.31zm96.62 1.8l0 63.49c0,1.42 -0.24,2.32 -0.73,2.7 -0.5,0.39 -1.51,0.58 -3.04,0.58l-16.24 0c-2.52,0 -3.77,-1.1 -3.77,-3.28l0 -63.49 -23.3 0c-2.18,0 -3.28,-1.2 -3.28,-3.61l0 -11.97c0,-1.53 0.19,-2.54 0.58,-3.04 0.38,-0.49 1.28,-0.73 2.7,-0.73l70.87 0c1.31,0 2.19,0.24 2.63,0.73 0.43,0.5 0.65,1.51 0.65,3.04l0 11.97c0,2.41 -1.09,3.61 -3.28,3.61l-23.79 0zm135.34 63.65c0,1.21 -0.22,2.02 -0.66,2.46 -0.43,0.44 -1.42,0.66 -2.95,0.66l-17.88 0c-2.3,0 -3.44,-1.04 -3.44,-3.12l0 -90.06 -44.3 0 0 90.06c0,1.21 -0.22,2.02 -0.65,2.46 -0.44,0.44 -1.42,0.66 -2.96,0.66l-18.04 0c-2.3,0 -3.44,-1.04 -3.44,-3.12l0 -100.72c0,-3.83 0.79,-6.65 2.37,-8.45 1.59,-1.8 4.3,-2.71 8.12,-2.71l73.33 0c3.94,0 6.67,0.91 8.2,2.71 1.54,1.8 2.3,4.62 2.3,8.45l0 100.72zm95.97 -7.55c0,1.43 -0.2,2.63 -0.58,3.62 -0.38,0.98 -1.34,1.91 -2.87,2.78 -2.51,1.21 -5.19,2.19 -8.09,2.96 -2.9,0.76 -5.85,1.36 -8.83,1.8 -3.01,0.44 -6.05,0.77 -9.11,0.99 -3.03,0.21 -5.93,0.32 -8.67,0.32 -7.4,0 -13.56,-0.71 -18.42,-2.13 -4.84,-1.42 -8.75,-3.36 -11.7,-5.82 -2.93,-2.46 -5.01,-5.36 -6.21,-8.7 -1.2,-3.33 -1.8,-6.92 -1.8,-10.74 0,-4.27 0.71,-8.18 2.13,-11.73 1.42,-3.56 3.55,-6.64 6.4,-9.27 2.84,-2.63 6.42,-4.68 10.74,-6.15 4.32,-1.48 9.43,-2.22 15.34,-2.22l18.04 0 0 -2.62c0,-1.53 -0.16,-3.01 -0.49,-4.43 -0.33,-1.42 -1.01,-2.65 -2.05,-3.69 -1.04,-1.04 -2.49,-1.89 -4.35,-2.54 -1.85,-0.66 -4.32,-0.99 -7.38,-0.99 -1.64,0 -3.5,0.08 -5.58,0.25 -2.07,0.16 -4.15,0.38 -6.23,0.65 -2.08,0.28 -4.1,0.6 -6.07,0.99 -1.97,0.38 -3.72,0.79 -5.25,1.23 -1.42,0.33 -2.41,0.33 -2.95,0 -0.55,-0.33 -0.93,-1.04 -1.15,-2.13l-2.62 -11.49c-0.33,-1.2 -0.36,-2.05 -0.09,-2.54 0.28,-0.49 0.85,-0.9 1.73,-1.23 4.92,-1.75 10.09,-3.01 15.5,-3.77 5.41,-0.77 10.8,-1.15 16.16,-1.15 11.89,0 20.61,2.54 26.13,7.63 5.55,5.08 8.32,12.6 8.32,22.55l0 47.57zm-23.79 -28.37l-12.96 0c-1.53,0 -3.17,0.11 -4.92,0.32 -1.75,0.22 -3.36,0.74 -4.84,1.56 -1.48,0.82 -2.71,2 -3.69,3.53 -0.99,1.53 -1.48,3.61 -1.48,6.23 0,3.83 1.29,6.51 3.86,8.04 2.57,1.53 6.04,2.3 10.41,2.3 0.66,0 1.53,-0.03 2.63,-0.08 1.09,-0.06 2.27,-0.17 3.53,-0.33 1.25,-0.17 2.54,-0.39 3.85,-0.66 1.31,-0.27 2.52,-0.63 3.61,-1.06l0 -19.85zm69.06 69.71c0,1.21 -0.19,1.97 -0.57,2.3 -0.39,0.33 -1.34,0.49 -2.85,0.49l-16.95 0c-1.2,0 -2.05,-0.16 -2.59,-0.49 -0.55,-0.33 -0.82,-1.09 -0.82,-2.3l0 -106.95c0,-1.2 0.19,-2.16 0.57,-2.87 0.38,-0.71 1.28,-1.45 2.71,-2.22 5.24,-2.4 11.12,-4.1 17.63,-5.08 6.51,-0.99 12.71,-1.48 18.62,-1.48 7.76,0 14.3,1.18 19.6,3.53 5.31,2.35 9.57,5.52 12.8,9.51 3.22,4 5.55,8.72 6.97,14.19 1.42,5.47 2.13,11.32 2.13,17.55 0,6.13 -0.76,11.9 -2.29,17.31 -1.53,5.42 -3.91,10.14 -7.08,14.19 -3.18,4.05 -7.22,7.25 -12.09,9.6 -4.89,2.35 -10.61,3.53 -17.2,3.53 -3.28,0 -6.34,-0.14 -9.13,-0.42 -2.79,-0.27 -5.96,-0.79 -9.46,-1.55l0 31.16zm32.32 -74.31c0,-4.48 -0.44,-8.25 -1.31,-11.32 -0.88,-3.06 -2.19,-5.52 -3.89,-7.38 -1.69,-1.86 -3.8,-3.17 -6.26,-3.93 -2.49,-0.77 -5.25,-1.15 -8.34,-1.15 -1.53,0 -3.52,0.16 -6.01,0.49 -2.46,0.33 -4.65,0.76 -6.51,1.31l0 44.78c2.87,0.77 5.41,1.26 7.66,1.48 2.27,0.22 4.26,0.33 6.04,0.33 5.5,0 9.95,-1.86 13.42,-5.58 3.48,-3.72 5.2,-10.06 5.2,-19.03zm122.54 0.17c0,14.43 -3.45,25.59 -10.34,33.46 -6.88,7.88 -17.38,11.81 -31.49,11.81 -14.22,0 -24.61,-3.93 -31.17,-11.81 -6.56,-7.87 -9.84,-18.92 -9.84,-33.14 0,-6.99 0.95,-13.31 2.87,-18.94 1.91,-5.64 4.65,-10.36 8.2,-14.19 3.55,-3.83 7.87,-6.78 12.96,-8.86 5.09,-2.08 10.85,-3.12 17.31,-3.12 13.78,0 24.14,3.97 31.08,11.9 6.95,7.92 10.42,18.89 10.42,32.89zm-24.77 0.49c0,-3.72 -0.27,-7.11 -0.82,-10.17 -0.55,-3.06 -1.48,-5.69 -2.79,-7.88 -1.31,-2.18 -3.01,-3.91 -5.09,-5.16 -2.07,-1.26 -4.64,-1.89 -7.71,-1.89 -5.79,0 -10.08,2.22 -12.87,6.64 -2.79,4.43 -4.19,10.42 -4.19,17.97 0,8.2 1.29,14.43 3.86,18.7 2.57,4.26 6.81,6.4 12.71,6.4 3.06,0 5.66,-0.63 7.79,-1.89 2.14,-1.26 3.89,-3.01 5.25,-5.25 1.37,-2.24 2.36,-4.84 2.96,-7.79 0.6,-2.95 0.9,-6.18 0.9,-9.68zm109.42 -43.14c3.82,0 6.42,0.79 7.79,2.37 1.37,1.59 2.05,4.13 2.05,7.63l0 73c0,1.31 -0.25,2.16 -0.74,2.54 -0.49,0.39 -1.5,0.58 -3.03,0.58l-16.57 0c-1.53,0 -2.55,-0.25 -3.04,-0.74 -0.49,-0.49 -0.74,-1.34 -0.74,-2.54l0 -63.49 -20.17 0 -0.5 8.53c-0.54,9.52 -1.25,17.72 -2.13,24.61 -0.87,6.89 -2.35,12.77 -4.43,17.64 -2.07,4.86 -5.03,8.83 -8.85,11.89 -3.83,3.06 -8.92,5.58 -15.26,7.54 -1.53,0.55 -2.63,0.63 -3.28,0.25 -0.66,-0.38 -1.21,-1.12 -1.64,-2.21l-4.43 -11.16c-0.55,-1.42 -0.74,-2.43 -0.58,-3.04 0.17,-0.6 0.96,-1.28 2.38,-2.04 2.95,-1.32 5.33,-2.79 7.14,-4.43 1.8,-1.65 3.28,-4 4.43,-7.06 1.15,-3.06 2.05,-7.13 2.7,-12.22 0.66,-5.08 1.26,-11.78 1.81,-20.1l1.15 -17.88c0.22,-3.6 1.06,-6.12 2.54,-7.54 1.48,-1.42 4.02,-2.13 7.63,-2.13l45.77 0zm41.5 86.12c-4.26,0 -7.05,-0.85 -8.37,-2.54 -1.31,-1.7 -1.96,-4.02 -1.96,-6.98l0 -73.49c0,-2.08 1.2,-3.11 3.6,-3.11l16.41 0c1.53,0 2.54,0.19 3.03,0.57 0.5,0.38 0.74,1.23 0.74,2.54l0 23.79 20.34 0c7.99,0 14.3,1.12 18.95,3.36 4.65,2.24 8.17,4.95 10.58,8.12 2.41,3.17 3.91,6.43 4.51,9.76 0.6,3.34 0.9,6.1 0.9,8.29 0,4.26 -0.82,8.2 -2.46,11.81 -1.64,3.61 -3.91,6.72 -6.8,9.35 -2.9,2.62 -6.32,4.7 -10.26,6.23 -3.93,1.53 -8.2,2.3 -12.79,2.3l-36.42 0zm44.29 -30.02c0,-3.06 -0.95,-5.66 -2.87,-7.79 -1.91,-2.14 -4.78,-3.2 -8.61,-3.2l-19.36 0 0 22.31 19.19 0c2.3,0 4.21,-0.39 5.75,-1.15 1.53,-0.77 2.73,-1.72 3.6,-2.87 0.88,-1.15 1.48,-2.38 1.81,-3.69 0.33,-1.31 0.49,-2.52 0.49,-3.61z"/>
  </g>
 </g>
</svg>
