<?xml version="1.0" encoding="UTF-8"?>
<!DOCTYPE svg PUBLIC "-//W3C//DTD SVG 1.1//EN" "http://www.w3.org/Graphics/SVG/1.1/DTD/svg11.dtd">
<!-- Creator: CorelDRAW 2018 (64-Bit) -->
<svg xmlns="http://www.w3.org/2000/svg" xml:space="preserve" width="1400px" height="500px" version="1.1" style="shape-rendering:geometricPrecision; text-rendering:geometricPrecision; image-rendering:optimizeQuality; fill-rule:evenodd; clip-rule:evenodd"
viewBox="0 0 1400 500"
 xmlns:xlink="http://www.w3.org/1999/xlink">
 <defs>
  <style type="text/css">
   <![CDATA[
    .fil0 {fill:none}
    .fil1 {fill:#E61B25}
    .fil2 {fill:#F99F1B}
   ]]>
  </style>
 </defs>
 <g id="Слой_x0020_1">
  <metadata id="CorelCorpID_0Corel-Layer"/>
  <rect class="fil0" width="1400" height="500"/>
  <g id="_2053060615936">
   <polygon class="fil1" points="42.34,49.01 41.42,49.01 41.42,49.92 42.34,49.92 42.34,220.63 70.79,220.63 70.79,85.72 69.87,85.72 69.87,84.8 70.79,84.8 70.79,82.96 71.7,82.96 71.7,86.64 72.62,86.64 72.62,88.47 73.54,88.47 73.54,91.22 74.46,91.22 74.46,93.98 75.38,93.98 75.38,94.9 76.29,94.9 76.29,98.57 77.21,98.57 77.21,99.48 78.13,99.48 78.13,102.24 79.05,102.24 79.05,104.99 79.97,104.99 79.97,106.83 80.88,106.83 80.88,109.58 81.8,109.58 81.8,110.5 82.72,110.5 82.72,113.25 83.64,113.25 83.64,116 84.56,116 84.56,117.84 85.47,117.84 85.47,120.59 86.39,120.59 86.39,122.43 87.31,122.43 87.31,125.18 88.22,125.18 88.22,126.1 89.14,126.1 89.14,128.85 90.06,128.85 90.06,131.61 90.98,131.61 90.98,133.44 91.9,133.44 91.9,136.2 92.81,136.2 92.81,137.11 93.73,137.11 93.73,140.78 94.65,140.78 94.65,142.62 95.57,142.62 95.57,144.46 96.49,144.46 96.49,147.21 97.4,147.21 97.4,149.04 98.32,149.04 98.32,151.8 99.24,151.8 99.24,153.63 100.16,153.63 100.16,156.39 101.08,156.39 101.08,158.22 101.99,158.22 101.99,160.06 102.91,160.06 102.91,162.81 103.83,162.81 103.83,164.65 104.74,164.65 104.74,167.4 105.66,167.4 105.66,170.15 106.58,170.15 106.58,171.07 107.5,171.07 107.5,173.82 108.42,173.82 108.42,175.66 109.33,175.66 109.33,178.41 110.25,178.41 110.25,180.25 111.17,180.25 111.17,183 112.09,183 112.09,185.76 113.01,185.76 113.01,186.67 113.92,186.67 113.92,189.43 114.84,189.43 114.84,191.26 115.76,191.26 115.76,194.02 116.68,194.02 116.68,196.77 117.6,196.77 117.6,198.6 118.51,198.6 118.51,201.36 119.43,201.36 119.43,202.28 120.35,202.28 120.35,204.11 149.72,204.11 149.72,203.19 150.63,203.19 150.63,202.28 151.55,202.28 151.55,198.6 152.47,198.6 152.47,197.69 153.39,197.69 153.39,194.93 154.31,194.93 154.31,193.1 155.22,193.1 155.22,190.34 156.14,190.34 156.14,187.59 157.06,187.59 157.06,186.67 157.98,186.67 157.98,183 158.89,183 158.89,182.08 159.81,182.08 159.81,179.33 160.73,179.33 160.73,176.58 161.65,176.58 161.65,174.74 162.57,174.74 162.57,171.99 163.48,171.99 163.48,170.15 164.4,170.15 164.4,167.4 165.32,167.4 165.32,165.56 166.24,165.56 166.24,163.73 167.15,163.73 167.15,160.98 168.07,160.98 168.07,159.14 168.99,159.14 168.99,156.39 169.91,156.39 169.91,154.55 170.83,154.55 170.83,151.8 171.74,151.8 171.74,149.04 172.66,149.04 172.66,148.13 173.58,148.13 173.58,144.46 174.5,144.46 174.5,143.54 175.41,143.54 175.41,140.78 176.33,140.78 176.33,138.03 177.25,138.03 177.25,136.2 178.17,136.2 178.17,133.44 179.09,133.44 179.09,132.52 180,132.52 180,128.85 180.92,128.85 180.92,127.02 181.84,127.02 181.84,125.18 182.76,125.18 182.76,122.43 183.67,122.43 183.67,120.59 184.59,120.59 184.59,117.84 185.51,117.84 185.51,116 186.43,116 186.43,113.25 187.35,113.25 187.35,110.5 188.26,110.5 188.26,109.58 189.18,109.58 189.18,106.83 190.1,106.83 190.1,104.99 191.02,104.99 191.02,102.24 191.93,102.24 191.93,99.48 192.85,99.48 192.85,97.65 193.77,97.65 193.77,94.9 194.69,94.9 194.69,93.98 195.61,93.98 195.61,90.31 196.52,90.31 196.52,88.47 197.44,88.47 197.44,86.64 198.36,86.64 198.36,82.96 199.28,82.96 199.28,83.88 200.19,83.88 200.19,86.64 199.28,86.64 199.28,219.71 200.19,219.71 200.19,220.63 228.65,220.63 228.65,48.09 184.59,48.09 184.59,49.92 183.67,49.92 183.67,52.68 182.76,52.68 182.76,54.51 181.84,54.51 181.84,56.35 180.92,56.35 180.92,59.1 180,59.1 180,60.94 179.09,60.94 179.09,63.69 178.17,63.69 178.17,65.53 177.25,65.53 177.25,67.36 176.33,67.36 176.33,70.12 175.41,70.12 175.41,71.95 174.5,71.95 174.5,74.7 173.58,74.7 173.58,77.46 172.66,77.46 172.66,78.38 171.74,78.38 171.74,82.05 170.83,82.05 170.83,82.96 169.91,82.96 169.91,85.72 168.99,85.72 168.99,87.55 168.07,87.55 168.07,90.31 167.15,90.31 167.15,93.06 166.24,93.06 166.24,94.9 165.32,94.9 165.32,97.65 164.4,97.65 164.4,98.57 163.48,98.57 163.48,101.32 162.57,101.32 162.57,104.07 161.65,104.07 161.65,105.91 160.73,105.91 160.73,108.66 159.81,108.66 159.81,109.58 158.89,109.58 158.89,112.33 157.98,112.33 157.98,115.09 157.06,115.09 157.06,116.92 156.14,116.92 156.14,119.68 155.22,119.68 155.22,120.59 154.31,120.59 154.31,124.26 153.39,124.26 153.39,126.1 152.47,126.1 152.47,127.94 151.55,127.94 151.55,130.69 150.63,130.69 150.63,132.52 149.72,132.52 149.72,135.28 148.8,135.28 148.8,137.11 147.88,137.11 147.88,139.87 146.96,139.87 146.96,141.7 146.05,141.7 146.05,143.54 145.13,143.54 145.13,146.29 144.21,146.29 144.21,148.13 143.29,148.13 143.29,150.88 142.37,150.88 142.37,152.72 141.46,152.72 141.46,154.55 140.54,154.55 140.54,158.22 139.62,158.22 139.62,159.14 138.7,159.14 138.7,161.89 137.79,161.89 137.79,163.73 136.87,163.73 136.87,166.48 135.95,166.48 135.95,169.24 134.11,169.24 134.11,165.56 133.2,165.56 133.2,162.81 132.28,162.81 132.28,160.98 131.36,160.98 131.36,158.22 130.44,158.22 130.44,157.3 129.53,157.3 129.53,154.55 128.61,154.55 128.61,151.8 127.69,151.8 127.69,149.96 126.77,149.96 126.77,147.21 125.85,147.21 125.85,145.37 124.94,145.37 124.94,142.62 124.02,142.62 124.02,140.78 123.1,140.78 123.1,138.95 122.18,138.95 122.18,136.2 121.27,136.2 121.27,134.36 120.35,134.36 120.35,131.61 119.43,131.61 119.43,129.77 118.51,129.77 118.51,127.94 117.6,127.94 117.6,124.26 116.68,124.26 116.68,123.35 115.76,123.35 115.76,120.59 114.84,120.59 114.84,118.76 113.92,118.76 113.92,116 113.01,116 113.01,114.17 112.09,114.17 112.09,112.33 111.17,112.33 111.17,108.66 110.25,108.66 110.25,107.74 109.33,107.74 109.33,104.99 108.42,104.99 108.42,103.16 107.5,103.16 107.5,100.4 106.58,100.4 106.58,97.65 105.66,97.65 105.66,96.73 104.74,96.73 104.74,93.06 103.83,93.06 103.83,92.14 102.91,92.14 102.91,89.39 101.99,89.39 101.99,86.64 101.08,86.64 101.08,84.8 100.16,84.8 100.16,82.05 99.24,82.05 99.24,81.13 98.32,81.13 98.32,78.38 97.4,78.38 97.4,75.62 96.49,75.62 96.49,73.79 95.57,73.79 95.57,71.03 94.65,71.03 94.65,69.2 93.73,69.2 93.73,66.44 92.81,66.44 92.81,64.61 91.9,64.61 91.9,62.77 90.98,62.77 90.98,60.02 90.06,60.02 90.06,58.18 89.14,58.18 89.14,55.43 88.22,55.43 88.22,53.59 87.31,53.59 87.31,51.76 86.39,51.76 86.39,48.09 42.34,48.09 "/>
   <polygon class="fil2" points="90.98,284.88 86.39,284.88 86.39,285.79 79.97,285.79 79.97,286.71 75.38,286.71 75.38,287.63 73.54,287.63 73.54,288.55 69.87,288.55 69.87,289.46 68.04,289.46 68.04,290.38 65.28,290.38 65.28,291.3 63.45,291.3 63.45,292.22 61.61,292.22 61.61,293.14 59.77,293.14 59.77,294.05 58.86,294.05 58.86,294.97 57.02,294.97 57.02,295.89 55.18,295.89 55.18,296.81 54.27,296.81 54.27,297.72 52.43,297.72 52.43,298.64 51.52,298.64 51.52,299.56 50.6,299.56 50.6,300.48 49.68,300.48 49.68,301.4 48.76,301.4 48.76,302.31 46.93,302.31 46.93,304.15 46.01,304.15 46.01,305.07 45.09,305.07 45.09,305.98 44.17,305.98 44.17,306.9 43.25,306.9 43.25,307.82 42.34,307.82 42.34,309.66 41.42,309.66 41.42,310.57 40.5,310.57 40.5,312.41 39.58,312.41 39.58,314.24 38.66,314.24 38.66,316.08 37.75,316.08 37.75,317.92 36.83,317.92 36.83,320.67 35.91,320.67 35.91,324.34 34.99,324.34 34.99,327.09 34.08,327.09 34.08,346.37 34.99,346.37 34.99,349.12 35.91,349.12 35.91,352.79 36.83,352.79 36.83,354.63 37.75,354.63 37.75,356.46 38.66,356.46 38.66,358.3 39.58,358.3 39.58,359.21 40.5,359.21 40.5,361.05 41.42,361.05 41.42,361.97 42.34,361.97 42.34,363.8 43.25,363.8 43.25,364.72 44.17,364.72 44.17,365.64 45.09,365.64 45.09,366.56 46.01,366.56 46.01,367.48 46.93,367.48 46.93,368.39 48.76,368.39 48.76,370.23 50.6,370.23 50.6,371.15 52.43,371.15 52.43,372.07 53.35,372.07 53.35,372.98 55.18,372.98 55.18,373.9 56.1,373.9 56.1,374.82 57.94,374.82 57.94,375.74 60.69,375.74 60.69,376.65 61.61,376.65 61.61,377.57 64.36,377.57 64.36,378.49 67.12,378.49 67.12,379.41 69.87,379.41 69.87,380.32 75.38,380.32 75.38,381.24 77.21,381.24 77.21,382.16 83.64,382.16 83.64,383.08 84.56,383.08 84.56,382.16 85.47,382.16 85.47,383.08 90.06,383.08 90.06,384 97.4,384 97.4,384.91 103.83,384.91 103.83,385.83 106.58,385.83 106.58,386.75 112.09,386.75 112.09,387.67 113.92,387.67 113.92,388.59 117.6,388.59 117.6,389.5 120.35,389.5 120.35,390.42 122.18,390.42 122.18,391.34 124.02,391.34 124.02,392.26 124.94,392.26 124.94,393.17 126.77,393.17 126.77,394.09 128.61,394.09 128.61,395.01 129.53,395.01 129.53,395.93 130.44,395.93 130.44,397.76 131.36,397.76 131.36,398.68 132.28,398.68 132.28,401.43 133.2,401.43 133.2,406.02 134.11,406.02 134.11,407.86 133.2,407.86 133.2,410.61 132.28,410.61 132.28,413.37 131.36,413.37 131.36,415.2 130.44,415.2 130.44,416.12 129.53,416.12 129.53,417.95 128.61,417.95 128.61,418.87 127.69,418.87 127.69,419.79 126.77,419.79 126.77,420.71 125.85,420.71 125.85,421.63 124.02,421.63 124.02,422.54 123.1,422.54 123.1,423.46 121.27,423.46 121.27,424.38 120.35,424.38 120.35,425.3 117.6,425.3 117.6,426.21 115.76,426.21 115.76,427.13 113.01,427.13 113.01,428.05 107.5,428.05 107.5,428.97 104.74,428.97 104.74,429.89 86.39,429.89 86.39,428.97 81.8,428.97 81.8,428.05 76.29,428.05 76.29,427.13 72.62,427.13 72.62,426.21 69.87,426.21 69.87,425.3 66.2,425.3 66.2,424.38 65.28,424.38 65.28,423.46 61.61,423.46 61.61,422.54 60.69,422.54 60.69,421.63 57.94,421.63 57.94,420.71 56.1,420.71 56.1,419.79 54.27,419.79 54.27,418.87 52.43,418.87 52.43,417.95 51.52,417.95 51.52,417.04 49.68,417.04 49.68,416.12 47.84,416.12 47.84,415.2 46.93,415.2 46.93,414.28 46.01,414.28 46.01,413.37 45.09,413.37 45.09,412.45 43.25,412.45 43.25,411.53 42.34,411.53 42.34,413.37 41.42,413.37 41.42,414.28 40.5,414.28 40.5,416.12 39.58,416.12 39.58,417.04 38.66,417.04 38.66,418.87 37.75,418.87 37.75,419.79 36.83,419.79 36.83,420.71 35.91,420.71 35.91,422.54 34.99,422.54 34.99,423.46 34.08,423.46 34.08,425.3 33.16,425.3 33.16,426.21 32.24,426.21 32.24,428.05 31.32,428.05 31.32,428.97 30.41,428.97 30.41,429.89 29.49,429.89 29.49,431.72 28.57,431.72 28.57,435.39 30.41,435.39 30.41,436.31 32.24,436.31 32.24,437.23 33.16,437.23 33.16,438.15 34.08,438.15 34.08,439.06 35.91,439.06 35.91,439.98 36.83,439.98 36.83,440.9 38.66,440.9 38.66,441.82 39.58,441.82 39.58,442.73 42.34,442.73 42.34,443.65 43.25,443.65 43.25,444.57 45.09,444.57 45.09,445.49 47.84,445.49 47.84,446.41 48.76,446.41 48.76,447.32 51.52,447.32 51.52,448.24 53.35,448.24 53.35,449.16 57.02,449.16 57.02,450.08 59.77,450.08 59.77,450.99 61.61,450.99 61.61,451.91 66.2,451.91 66.2,452.83 68.95,452.83 68.95,453.75 73.54,453.75 73.54,454.67 80.88,454.67 80.88,455.58 81.8,455.58 81.8,456.5 107.5,456.5 107.5,455.58 108.42,455.58 108.42,454.67 115.76,454.67 115.76,453.75 120.35,453.75 120.35,452.83 122.18,452.83 122.18,451.91 125.85,451.91 125.85,450.99 127.69,450.99 127.69,450.08 130.44,450.08 130.44,449.16 133.2,449.16 133.2,448.24 134.11,448.24 134.11,447.32 135.95,447.32 135.95,446.41 137.79,446.41 137.79,445.49 138.7,445.49 138.7,444.57 140.54,444.57 140.54,443.65 141.46,443.65 141.46,442.73 143.29,442.73 143.29,441.82 144.21,441.82 144.21,440.9 145.13,440.9 145.13,439.98 146.05,439.98 146.05,439.06 146.96,439.06 146.96,438.15 147.88,438.15 147.88,437.23 148.8,437.23 148.8,436.31 149.72,436.31 149.72,435.39 150.63,435.39 150.63,434.47 151.55,434.47 151.55,433.56 152.47,433.56 152.47,432.64 153.39,432.64 153.39,431.72 154.31,431.72 154.31,429.89 155.22,429.89 155.22,428.97 156.14,428.97 156.14,427.13 157.06,427.13 157.06,425.3 157.98,425.3 157.98,423.46 158.89,423.46 158.89,421.63 159.81,421.63 159.81,418.87 160.73,418.87 160.73,414.28 161.65,414.28 161.65,411.53 162.57,411.53 162.57,395.93 161.65,395.93 161.65,393.17 160.73,393.17 160.73,389.5 159.81,389.5 159.81,386.75 158.89,386.75 158.89,384.91 157.98,384.91 157.98,383.08 157.06,383.08 157.06,382.16 156.14,382.16 156.14,380.32 155.22,380.32 155.22,379.41 154.31,379.41 154.31,378.49 153.39,378.49 153.39,376.65 152.47,376.65 152.47,375.74 151.55,375.74 151.55,374.82 150.63,374.82 150.63,373.9 149.72,373.9 149.72,372.98 148.8,372.98 148.8,372.07 146.96,372.07 146.96,371.15 146.05,371.15 146.05,370.23 145.13,370.23 145.13,369.31 143.29,369.31 143.29,368.39 142.37,368.39 142.37,367.48 140.54,367.48 140.54,366.56 137.79,366.56 137.79,365.64 136.87,365.64 136.87,364.72 134.11,364.72 134.11,363.8 132.28,363.8 132.28,362.89 129.53,362.89 129.53,361.97 125.85,361.97 125.85,361.05 124.02,361.05 124.02,360.13 118.51,360.13 118.51,359.21 115.76,359.21 115.76,358.3 109.33,358.3 109.33,357.38 103.83,357.38 103.83,356.46 96.49,356.46 96.49,355.55 90.06,355.55 90.06,354.63 86.39,354.63 86.39,353.71 81.8,353.71 81.8,352.79 79.97,352.79 79.97,351.87 76.29,351.87 76.29,350.96 73.54,350.96 73.54,350.04 72.62,350.04 72.62,349.12 70.79,349.12 70.79,348.2 69.87,348.2 69.87,347.28 68.04,347.28 68.04,346.37 67.12,346.37 67.12,344.53 66.2,344.53 66.2,343.61 65.28,343.61 65.28,342.69 64.36,342.69 64.36,339.94 63.45,339.94 63.45,337.19 62.53,337.19 62.53,332.6 63.45,332.6 63.45,328.93 64.36,328.93 64.36,326.18 65.28,326.18 65.28,324.34 66.2,324.34 66.2,323.42 67.12,323.42 67.12,321.59 68.95,321.59 68.95,319.75 69.87,319.75 69.87,318.83 71.7,318.83 71.7,317.92 72.62,317.92 72.62,317 74.46,317 74.46,316.08 75.38,316.08 75.38,315.16 78.13,315.16 78.13,314.24 80.88,314.24 80.88,313.33 82.72,313.33 82.72,312.41 88.22,312.41 88.22,311.49 91.9,311.49 91.9,310.57 108.42,310.57 108.42,311.49 113.01,311.49 113.01,312.41 118.51,312.41 118.51,313.33 121.27,313.33 121.27,314.24 124.94,314.24 124.94,315.16 127.69,315.16 127.69,316.08 129.53,316.08 129.53,317 132.28,317 132.28,317.92 134.11,317.92 134.11,318.83 135.95,318.83 135.95,319.75 138.7,319.75 138.7,320.67 139.62,320.67 139.62,321.59 141.46,321.59 141.46,322.51 142.37,322.51 142.37,323.42 144.21,323.42 144.21,324.34 146.96,324.34 146.96,323.42 147.88,323.42 147.88,322.51 148.8,322.51 148.8,320.67 149.72,320.67 149.72,318.83 150.63,318.83 150.63,317.92 151.55,317.92 151.55,316.08 152.47,316.08 152.47,315.16 153.39,315.16 153.39,313.33 154.31,313.33 154.31,312.41 155.22,312.41 155.22,310.57 156.14,310.57 156.14,308.74 157.06,308.74 157.06,307.82 157.98,307.82 157.98,305.98 158.89,305.98 158.89,305.07 159.81,305.07 159.81,303.23 160.73,303.23 160.73,302.31 159.81,302.31 159.81,301.4 158.89,301.4 158.89,300.48 157.06,300.48 157.06,299.56 155.22,299.56 155.22,298.64 154.31,298.64 154.31,297.72 151.55,297.72 151.55,296.81 150.63,296.81 150.63,295.89 148.8,295.89 148.8,294.97 146.05,294.97 146.05,294.05 145.13,294.05 145.13,293.14 142.37,293.14 142.37,292.22 140.54,292.22 140.54,291.3 137.79,291.3 137.79,290.38 135.03,290.38 135.03,289.46 133.2,289.46 133.2,288.55 129.53,288.55 129.53,287.63 126.77,287.63 126.77,286.71 122.18,286.71 122.18,285.79 114.84,285.79 114.84,284.88 110.25,284.88 110.25,283.96 106.58,283.96 106.58,284.88 105.66,284.88 105.66,283.96 90.98,283.96 "/>
   <path class="fil1" d="M1327.23 172.91l-0.92 0 0 1.83 -0.92 0 0 2.76 -0.91 0 0 2.75 -0.92 0 0 0.92 -0.92 0 0 1.83 -0.92 0 0 0.92 -0.92 0 0 1.84 -0.91 0 0 0.91 -0.92 0 0 0.92 -0.92 0 0 0.92 -0.92 0 0 0.92 -0.91 0 0 0.91 -0.92 0 0 0.92 -1.84 0 0 0.92 -0.92 0 0 0.92 -1.83 0 0 0.92 -1.84 0 0 0.91 -0.91 0 0 0.92 -2.76 0 0 0.92 -3.67 0 0 0.92 -6.42 0 0 0.91 -3.67 0 0 -0.91 -6.43 0 0 -0.92 -3.67 0 0 -0.92 -2.75 0 0 -0.92 -1.84 0 0 -0.91 -1.83 0 0 -0.92 -0.92 0 0 -0.92 -1.84 0 0 -0.92 -0.91 0 0 -0.92 -0.92 0 0 -0.91 -0.92 0 0 -0.92 -0.92 0 0 -0.92 -0.92 0 0 -0.92 -0.91 0 0 -0.91 -0.92 0 0 -0.92 -0.92 0 0 -1.84 -0.92 0 0 -1.83 -0.92 0 0 -0.92 -0.91 0 0 -1.84 -0.92 0 0 -1.83 -0.92 0 0 -3.67 -0.92 0 0 -4.59 -0.91 0 0 -13.77 0.91 0 0 -5.51 0.92 0 0 -2.75 0.92 0 0 -1.83 0.92 0 0 -2.76 0.91 0 0 -0.92 0.92 0 0 -1.83 0.92 0 0 -0.92 0.92 0 0 -0.92 0.92 0 0 -1.83 0.91 0 0 -0.92 0.92 0 0 -0.92 0.92 0 0 -0.92 1.84 0 0 -0.91 0.91 0 0 -0.92 0.92 0 0 -0.92 0.92 0 0 -0.92 1.83 0 0 -0.91 1.84 0 0 -0.92 1.83 0 0 -0.92 3.68 0 0 -0.92 2.75 0 0 -0.92 13.77 0 0 0.92 2.75 0 0 0.92 3.67 0 0 0.92 1.84 0 0 0.92 1.83 0 0 0.91 1.84 0 0 0.92 0.91 0 0 0.92 1.84 0 0 0.92 0.92 0 0 0.91 0.92 0 0 0.92 0.91 0 0 0.92 0.92 0 0 0.92 0.92 0 0 0.92 0.92 0 0 0.91 0.91 0 0 1.84 0.92 0 0 0.92 0.92 0 0 1.83 0.92 0 0 0.92 0.92 0 0 2.75 0.91 0 0 2.76 0.92 0 0 1.83 0.92 0 0 6.43 0.92 0 0 9.17 -0.92 0 0 7.35zm-0.92 -58.74l-1.83 0 0 -1.84 -0.92 0 0 -0.91 -0.92 0 0 -0.92 -0.92 0 0 -0.92 -1.83 0 0 -0.92 -0.92 0 0 -0.92 -0.92 0 0 -0.91 -1.83 0 0 -0.92 -0.92 0 0 -0.92 -1.84 0 0 -0.92 -1.83 0 0 -0.91 -0.92 0 0 -0.92 -3.67 0 0 -0.92 -1.84 0 0 -0.92 -4.59 0 0 -0.92 -22.02 0 0 0.92 -3.67 0 0 0.92 -2.76 0 0 0.92 -3.67 0 0 0.92 -0.92 0 0 0.91 -2.75 0 0 0.92 -1.84 0 0 0.92 -1.83 0 0 0.92 -1.84 0 0 0.91 -0.91 0 0 0.92 -1.84 0 0 0.92 -0.92 0 0 0.92 -1.83 0 0 0.92 -0.92 0 0 0.91 -0.92 0 0 0.92 -0.92 0 0 0.92 -1.83 0 0 0.92 -0.92 0 0 0.91 -0.92 0 0 0.92 -0.92 0 0 1.84 -0.91 0 0 0.92 -0.92 0 0 0.91 -0.92 0 0 0.92 -0.92 0 0 1.84 -0.91 0 0 0.91 -0.92 0 0 0.92 -0.92 0 0 1.84 -0.92 0 0 1.83 -0.91 0 0 1.84 -0.92 0 0 1.83 -0.92 0 0 1.84 -0.92 0 0 2.75 -0.92 0 0 0.92 -0.91 0 0 3.67 -0.92 0 0 2.76 -0.92 0 0 4.58 -0.92 0 0 23.87 0.92 0 0 4.59 0.92 0 0 2.75 0.92 0 0 3.67 0.91 0 0 1.84 0.92 0 0 2.75 0.92 0 0 1.83 0.92 0 0 1.84 0.92 0 0 1.84 0.91 0 0 0.91 0.92 0 0 1.84 0.92 0 0 0.92 0.92 0 0 1.83 0.91 0 0 1.84 0.92 0 0 0.92 0.92 0 0 0.91 0.92 0 0 0.92 0.91 0 0 0.92 0.92 0 0 0.92 0.92 0 0 0.91 0.92 0 0 0.92 0.92 0 0 0.92 0.91 0 0 0.92 0.92 0 0 0.92 0.92 0 0 0.91 1.84 0 0 0.92 0.91 0 0 0.92 1.84 0 0 0.92 0.92 0 0 0.91 1.83 0 0 0.92 1.84 0 0 0.92 0.91 0 0 0.92 2.76 0 0 0.92 1.83 0 0 0.91 1.84 0 0 0.92 3.67 0 0 0.92 1.84 0 0 0.92 7.34 0 0 0.91 16.52 0 0 -0.91 5.5 0 0 -0.92 1.84 0 0 -0.92 3.67 0 0 -0.92 0.92 0 0 -0.91 1.83 0 0 -0.92 2.76 0 0 -0.92 0.92 0 0 -0.92 0.91 0 0 -0.92 1.84 0 0 -0.91 0.92 0 0 -0.92 0.91 0 0 -0.92 0.92 0 0 -0.92 0.92 0 0 -0.91 0.92 0 0 -0.92 0.92 0 0 -0.92 1.83 0 0 11.93 26.62 0 0 -176.21 0.91 0 0 -0.92 -27.53 0 0 70.67z"/>
   <polygon class="fil2" points="861,284.88 857.33,284.88 857.33,285.79 850.9,285.79 850.9,286.71 846.31,286.71 846.31,287.63 844.48,287.63 844.48,288.55 840.81,288.55 840.81,289.46 838.97,289.46 838.97,290.38 836.22,290.38 836.22,291.3 834.38,291.3 834.38,292.22 832.55,292.22 832.55,293.14 829.79,293.14 829.79,294.05 828.87,294.05 828.87,294.97 827.04,294.97 827.04,295.89 825.2,295.89 825.2,296.81 824.29,296.81 824.29,297.72 822.45,297.72 822.45,298.64 821.53,298.64 821.53,299.56 819.7,299.56 819.7,300.48 818.78,300.48 818.78,301.4 816.94,301.4 816.94,302.31 816.03,302.31 816.03,303.23 815.11,303.23 815.11,304.15 813.27,304.15 813.27,305.07 812.35,305.07 812.35,305.98 811.44,305.98 811.44,306.9 810.52,306.9 810.52,307.82 809.6,307.82 809.6,308.74 808.68,308.74 808.68,309.66 807.77,309.66 807.77,310.57 806.85,310.57 806.85,311.49 805.93,311.49 805.93,313.33 805.01,313.33 805.01,314.24 804.09,314.24 804.09,315.16 803.18,315.16 803.18,316.08 802.26,316.08 802.26,317 801.34,317 801.34,318.83 800.42,318.83 800.42,319.75 799.51,319.75 799.51,321.59 798.59,321.59 798.59,322.51 797.67,322.51 797.67,324.34 796.75,324.34 796.75,326.18 795.83,326.18 795.83,327.09 794.92,327.09 794.92,329.85 794,329.85 794,330.76 793.08,330.76 793.08,333.52 792.16,333.52 792.16,335.35 791.24,335.35 791.24,337.19 790.33,337.19 790.33,339.94 789.41,339.94 789.41,342.69 788.49,342.69 788.49,346.37 787.57,346.37 787.57,349.12 786.66,349.12 786.66,354.63 785.74,354.63 785.74,385.83 786.66,385.83 786.66,391.34 787.57,391.34 787.57,394.09 788.49,394.09 788.49,397.76 789.41,397.76 789.41,399.6 790.33,399.6 790.33,403.27 791.24,403.27 791.24,405.11 792.16,405.11 792.16,406.94 793.08,406.94 793.08,409.69 794,409.69 794,410.61 794.92,410.61 794.92,413.37 795.83,413.37 795.83,414.28 796.75,414.28 796.75,416.12 797.67,416.12 797.67,417.95 798.59,417.95 798.59,418.87 799.51,418.87 799.51,420.71 800.42,420.71 800.42,421.63 801.34,421.63 801.34,423.46 802.26,423.46 802.26,424.38 803.18,424.38 803.18,425.3 804.09,425.3 804.09,426.21 805.01,426.21 805.01,427.13 805.93,427.13 805.93,428.97 806.85,428.97 806.85,429.89 807.77,429.89 807.77,430.8 808.68,430.8 808.68,431.72 809.6,431.72 809.6,432.64 810.52,432.64 810.52,433.56 811.44,433.56 811.44,434.47 812.35,434.47 812.35,435.39 814.19,435.39 814.19,436.31 815.11,436.31 815.11,437.23 816.03,437.23 816.03,438.15 816.94,438.15 816.94,439.06 817.86,439.06 817.86,439.98 819.7,439.98 819.7,440.9 821.53,440.9 821.53,441.82 822.45,441.82 822.45,442.73 824.29,442.73 824.29,443.65 825.2,443.65 825.2,444.57 827.04,444.57 827.04,445.49 828.87,445.49 828.87,446.41 829.79,446.41 829.79,447.32 832.55,447.32 832.55,448.24 833.46,448.24 833.46,449.16 836.22,449.16 836.22,450.08 838.97,450.08 838.97,450.99 840.81,450.99 840.81,451.91 844.48,451.91 844.48,452.83 846.31,452.83 846.31,453.75 850.9,453.75 850.9,454.67 858.24,454.67 858.24,455.58 859.16,455.58 859.16,456.5 886.69,456.5 886.69,454.67 893.12,454.67 893.12,453.75 897.71,453.75 897.71,452.83 899.54,452.83 899.54,451.91 903.21,451.91 903.21,450.99 905.05,450.99 905.05,450.08 907.8,450.08 907.8,449.16 910.56,449.16 910.56,448.24 911.47,448.24 911.47,447.32 914.23,447.32 914.23,446.41 915.15,446.41 915.15,445.49 916.98,445.49 916.98,444.57 918.82,444.57 918.82,443.65 919.73,443.65 919.73,442.73 921.57,442.73 921.57,441.82 922.49,441.82 922.49,440.9 924.32,440.9 924.32,439.98 925.24,439.98 925.24,439.06 926.16,439.06 926.16,438.15 927.99,438.15 927.99,437.23 928.91,437.23 928.91,436.31 929.83,436.31 929.83,435.39 930.75,435.39 930.75,434.47 931.67,434.47 931.67,433.56 932.58,433.56 932.58,432.64 933.5,432.64 933.5,431.72 934.42,431.72 934.42,430.8 935.34,430.8 935.34,429.89 936.25,429.89 936.25,428.97 937.17,428.97 937.17,427.13 938.09,427.13 938.09,426.21 939.01,426.21 939.01,425.3 939.93,425.3 939.93,424.38 940.84,424.38 940.84,421.63 939.93,421.63 939.93,420.71 939.01,420.71 939.01,419.79 938.09,419.79 938.09,418.87 936.25,418.87 936.25,417.95 935.34,417.95 935.34,417.04 933.5,417.04 933.5,416.12 932.58,416.12 932.58,415.2 931.67,415.2 931.67,414.28 929.83,414.28 929.83,413.37 928.91,413.37 928.91,412.45 927.08,412.45 927.08,411.53 926.16,411.53 926.16,410.61 925.24,410.61 925.24,409.69 923.41,409.69 923.41,408.78 922.49,408.78 922.49,407.86 920.65,407.86 920.65,406.02 917.9,406.02 917.9,407.86 916.98,407.86 916.98,408.78 916.06,408.78 916.06,409.69 915.15,409.69 915.15,410.61 914.23,410.61 914.23,411.53 913.31,411.53 913.31,413.37 912.39,413.37 912.39,414.28 911.47,414.28 911.47,415.2 910.56,415.2 910.56,416.12 908.72,416.12 908.72,417.04 907.8,417.04 907.8,417.95 906.89,417.95 906.89,418.87 905.05,418.87 905.05,419.79 904.13,419.79 904.13,420.71 902.3,420.71 902.3,421.63 901.38,421.63 901.38,422.54 899.54,422.54 899.54,423.46 897.71,423.46 897.71,424.38 896.79,424.38 896.79,425.3 894.04,425.3 894.04,426.21 892.2,426.21 892.2,427.13 888.53,427.13 888.53,428.05 883.94,428.05 883.94,428.97 878.44,428.97 878.44,429.89 866.5,429.89 866.5,428.97 861.92,428.97 861.92,428.05 856.41,428.05 856.41,427.13 852.74,427.13 852.74,426.21 850.9,426.21 850.9,425.3 848.15,425.3 848.15,424.38 847.23,424.38 847.23,423.46 844.48,423.46 844.48,422.54 842.64,422.54 842.64,421.63 841.72,421.63 841.72,420.71 838.97,420.71 838.97,419.79 838.05,419.79 838.05,418.87 837.13,418.87 837.13,417.95 836.22,417.95 836.22,417.04 834.38,417.04 834.38,416.12 833.46,416.12 833.46,415.2 832.55,415.2 832.55,414.28 831.63,414.28 831.63,413.37 830.71,413.37 830.71,412.45 829.79,412.45 829.79,411.53 828.87,411.53 828.87,410.61 827.96,410.61 827.96,409.69 827.04,409.69 827.04,408.78 826.12,408.78 826.12,406.94 825.2,406.94 825.2,406.02 824.29,406.02 824.29,404.19 823.37,404.19 823.37,402.35 822.45,402.35 822.45,401.43 821.53,401.43 821.53,399.6 820.61,399.6 820.61,397.76 819.7,397.76 819.7,395.93 818.78,395.93 818.78,392.26 817.86,392.26 817.86,391.34 816.94,391.34 816.94,386.75 816.03,386.75 816.03,384.91 815.11,384.91 815.11,376.65 814.19,376.65 814.19,363.8 815.11,363.8 815.11,355.55 816.03,355.55 816.03,353.71 816.94,353.71 816.94,349.12 817.86,349.12 817.86,347.28 818.78,347.28 818.78,344.53 819.7,344.53 819.7,342.69 820.61,342.69 820.61,340.86 821.53,340.86 821.53,339.03 822.45,339.03 822.45,338.11 823.37,338.11 823.37,336.27 824.29,336.27 824.29,335.35 825.2,335.35 825.2,333.52 826.12,333.52 826.12,332.6 827.04,332.6 827.04,330.76 827.96,330.76 827.96,329.85 828.87,329.85 828.87,328.93 829.79,328.93 829.79,328.01 830.71,328.01 830.71,327.09 831.63,327.09 831.63,326.18 832.55,326.18 832.55,325.26 833.46,325.26 833.46,324.34 834.38,324.34 834.38,323.42 836.22,323.42 836.22,322.51 837.13,322.51 837.13,321.59 838.05,321.59 838.05,320.67 838.97,320.67 838.97,319.75 840.81,319.75 840.81,318.83 842.64,318.83 842.64,317.92 844.48,317.92 844.48,317 846.31,317 846.31,316.08 848.15,316.08 848.15,315.16 850.9,315.16 850.9,314.24 853.65,314.24 853.65,313.33 855.49,313.33 855.49,312.41 861,312.41 861,311.49 865.58,311.49 865.58,310.57 879.35,310.57 879.35,311.49 883.94,311.49 883.94,312.41 888.53,312.41 888.53,313.33 891.28,313.33 891.28,314.24 894.04,314.24 894.04,315.16 896.79,315.16 896.79,316.08 897.71,316.08 897.71,317 900.46,317 900.46,317.92 901.38,317.92 901.38,318.83 903.21,318.83 903.21,319.75 904.13,319.75 904.13,320.67 905.97,320.67 905.97,321.59 906.89,321.59 906.89,322.51 907.8,322.51 907.8,323.42 908.72,323.42 908.72,324.34 910.56,324.34 910.56,326.18 912.39,326.18 912.39,327.09 913.31,327.09 913.31,328.01 914.23,328.01 914.23,328.93 915.15,328.93 915.15,330.76 916.06,330.76 916.06,331.68 916.98,331.68 916.98,332.6 917.9,332.6 917.9,334.44 920.65,334.44 920.65,333.52 921.57,333.52 921.57,332.6 923.41,332.6 923.41,331.68 924.32,331.68 924.32,330.76 926.16,330.76 926.16,329.85 927.08,329.85 927.08,328.93 927.99,328.93 927.99,328.01 929.83,328.01 929.83,327.09 930.75,327.09 930.75,326.18 932.58,326.18 932.58,325.26 933.5,325.26 933.5,324.34 935.34,324.34 935.34,323.42 937.17,323.42 937.17,322.51 938.09,322.51 938.09,321.59 939.93,321.59 939.93,320.67 940.84,320.67 940.84,319.75 941.76,319.75 941.76,317.92 940.84,317.92 940.84,316.08 939.93,316.08 939.93,315.16 939.01,315.16 939.01,314.24 938.09,314.24 938.09,312.41 937.17,312.41 937.17,311.49 936.25,311.49 936.25,310.57 935.34,310.57 935.34,308.74 934.42,308.74 934.42,307.82 933.5,307.82 933.5,306.9 932.58,306.9 932.58,305.98 931.67,305.98 931.67,305.07 930.75,305.07 930.75,304.15 928.91,304.15 928.91,303.23 927.99,303.23 927.99,302.31 927.08,302.31 927.08,301.4 925.24,301.4 925.24,300.48 924.32,300.48 924.32,299.56 923.41,299.56 923.41,298.64 922.49,298.64 922.49,297.72 920.65,297.72 920.65,296.81 918.82,296.81 918.82,295.89 917.9,295.89 917.9,294.97 915.15,294.97 915.15,294.05 914.23,294.05 914.23,293.14 911.47,293.14 911.47,292.22 910.56,292.22 910.56,291.3 908.72,291.3 908.72,290.38 905.05,290.38 905.05,289.46 904.13,289.46 904.13,288.55 900.46,288.55 900.46,287.63 898.63,287.63 898.63,286.71 894.04,286.71 894.04,285.79 887.61,285.79 887.61,284.88 883.94,284.88 883.94,283.96 861,283.96 "/>
   <path class="fil2" d="M1124.4 388.59l0.92 0 0 -2.76 0.91 0 0 -3.67 0.92 0 0 -1.84 0.92 0 0 -1.83 0.92 0 0 -1.84 0.92 0 0 -1.83 0.91 0 0 -1.84 0.92 0 0 -0.91 0.92 0 0 -0.92 0.92 0 0 -0.92 0.91 0 0 -0.92 0.92 0 0 -0.92 0.92 0 0 -0.91 0.92 0 0 -0.92 1.83 0 0 -0.92 1.84 0 0 -0.92 0.92 0 0 -0.92 2.75 0 0 -0.91 1.84 0 0 -0.92 4.59 0 0 -0.92 4.58 0 0 -0.92 4.59 0 0 0.92 4.59 0 0 0.92 5.51 0 0 0.92 0.92 0 0 0.91 2.75 0 0 0.92 1.83 0 0 0.92 0.92 0 0 0.92 1.84 0 0 0.92 0.92 0 0 0.91 0.91 0 0 0.92 0.92 0 0 0.92 0.92 0 0 0.92 0.92 0 0 0.92 0.92 0 0 0.91 0.91 0 0 1.84 0.92 0 0 0.92 0.92 0 0 2.75 0.92 0 0 0.92 0.92 0 0 2.75 0.91 0 0 2.75 0.92 0 0 2.76 0.92 0 0 17.44 -0.92 0 0 2.75 -0.92 0 0 2.75 -0.91 0 0 2.76 -0.92 0 0 0.91 -0.92 0 0 2.76 -0.92 0 0 0.91 -0.92 0 0 0.92 -0.91 0 0 1.84 -1.84 0 0 1.83 -0.92 0 0 0.92 -1.83 0 0 1.84 -1.84 0 0 0.91 -0.92 0 0 0.92 -1.83 0 0 0.92 -1.84 0 0 0.92 -1.83 0 0 0.92 -3.67 0 0 0.91 -1.84 0 0 0.92 -15.6 0 0 -0.92 -1.84 0 0 -0.91 -3.67 0 0 -0.92 -1.84 0 0 -0.92 -1.83 0 0 -0.92 -1.84 0 0 -0.92 -0.91 0 0 -0.91 -0.92 0 0 -0.92 -0.92 0 0 -0.92 -1.84 0 0 -0.92 -0.91 0 0 -0.91 -0.92 0 0 -1.84 -0.92 0 0 -0.92 -0.92 0 0 -0.92 -0.91 0 0 -1.83 -0.92 0 0 -1.84 -0.92 0 0 -1.83 -0.92 0 0 -1.84 -0.92 0 0 -3.67 -0.91 0 0 -3.67 -0.92 0 0 -14.68zm66.08 -105.55l-0.92 0 0 1.84 0.92 0 0 62.4 -0.92 0 0 0.92 0.92 0 0 2.76 -1.83 0 0 -1.84 -0.92 0 0 -0.92 -0.92 0 0 -0.92 -1.84 0 0 -0.91 -0.91 0 0 -0.92 -0.92 0 0 -0.92 -1.84 0 0 -0.92 -0.92 0 0 -0.92 -1.83 0 0 -0.91 -1.84 0 0 -0.92 -0.92 0 0 -0.92 -2.75 0 0 -0.91 -1.83 0 0 -0.92 -3.67 0 0 -0.92 -5.51 0 0 -0.92 -15.6 0 0 0.92 -4.59 0 0 0.92 -3.67 0 0 0.92 -1.84 0 0 0.91 -3.67 0 0 0.92 -0.92 0 0 0.92 -2.75 0 0 0.91 -1.84 0 0 0.92 -0.92 0 0 0.92 -1.83 0 0 0.92 -0.92 0 0 0.92 -1.83 0 0 0.91 -1.84 0 0 0.92 -0.92 0 0 0.92 -0.92 0 0 0.92 -0.91 0 0 0.92 -0.92 0 0 0.91 -0.92 0 0 0.92 -0.92 0 0 0.92 -0.91 0 0 0.92 -0.92 0 0 0.92 -0.92 0 0 0.91 -0.92 0 0 1.84 -0.92 0 0 0.91 -0.91 0 0 1.84 -0.92 0 0 0.92 -0.92 0 0 1.83 -0.92 0 0 0.92 -0.91 0 0 1.84 -0.92 0 0 1.83 -0.92 0 0 1.84 -0.92 0 0 2.75 -0.92 0 0 1.84 -0.91 0 0 2.75 -0.92 0 0 4.59 -0.92 0 0 3.67 -0.92 0 0 21.11 0.92 0 0 3.67 0.92 0 0 4.59 0.92 0 0 2.75 0.91 0 0 1.84 0.92 0 0 2.75 0.92 0 0 0.92 0.92 0 0 2.75 0.92 0 0 0.92 0.91 0 0 1.84 0.92 0 0 1.83 0.92 0 0 0.92 0.92 0 0 1.84 0.91 0 0 0.91 0.92 0 0 1.84 0.92 0 0 0.92 0.92 0 0 0.92 0.92 0 0 0.91 0.91 0 0 0.92 0.92 0 0 0.92 0.92 0 0 0.92 0.92 0 0 0.91 0.91 0 0 0.92 1.84 0 0 0.92 0.92 0 0 0.92 1.83 0 0 0.92 0.92 0 0 0.91 0.92 0 0 0.92 1.83 0 0 0.92 1.84 0 0 0.92 1.84 0 0 0.91 1.83 0 0 0.92 2.75 0 0 0.92 1.84 0 0 0.92 2.75 0 0 0.92 5.51 0 0 0.91 0.92 0 0 0.92 19.27 0 0 -1.83 5.51 0 0 -0.92 2.75 0 0 -0.92 1.84 0 0 -0.92 2.75 0 0 -0.92 0.92 0 0 -0.91 1.83 0 0 -0.92 0.92 0 0 -0.92 0.92 0 0 -0.92 1.84 0 0 -0.91 0.91 0 0 -0.92 0.92 0 0 -0.92 0.92 0 0 -0.92 0.92 0 0 -0.92 0.92 0 0 -0.91 1.83 0 0 3.67 -0.92 0 0 0.92 0.92 0 0 3.67 -0.92 0 0 2.75 0.92 0 0 0.92 24.78 0 0 -0.92 0.92 0 0 -168.87 0.92 0 0 -0.92 -0.92 0 0 -0.92 -25.7 0 0 0.92z"/>
   <path class="fil1" d="M348.87 171.99l-0.91 0 0 3.67 -0.92 0 0 1.84 -0.92 0 0 1.83 -0.92 0 0 1.84 -0.91 0 0 0.91 -0.92 0 0 1.84 -0.92 0 0 1.84 -0.92 0 0 0.91 -0.92 0 0 0.92 -0.91 0 0 0.92 -0.92 0 0 0.92 -0.92 0 0 0.91 -0.92 0 0 0.92 -1.83 0 0 0.92 -0.92 0 0 0.92 -0.92 0 0 0.92 -2.75 0 0 0.91 -0.92 0 0 0.92 -2.75 0 0 0.92 -3.67 0 0 0.92 -6.43 0 0 0.91 -3.67 0 0 -0.91 -1.83 0 0 0.91 -0.92 0 0 -0.91 -3.67 0 0 -0.92 -3.67 0 0 -0.92 -2.76 0 0 -0.92 -1.83 0 0 -0.91 -1.84 0 0 -0.92 -0.92 0 0 -0.92 -1.83 0 0 -0.92 -0.92 0 0 -0.92 -0.92 0 0 -0.91 -0.92 0 0 -0.92 -0.91 0 0 -0.92 -0.92 0 0 -0.92 -0.92 0 0 -0.91 -0.92 0 0 -0.92 -0.91 0 0 -1.84 -0.92 0 0 -0.92 -0.92 0 0 -2.75 -0.92 0 0 -0.92 -0.91 0 0 -2.75 -0.92 0 0 -2.75 -0.92 0 0 -3.67 -0.92 0 0 -15.61 0.92 0 0 -4.59 0.92 0 0 -1.83 0.92 0 0 -2.75 0.91 0 0 -1.84 0.92 0 0 -1.84 0.92 0 0 -1.83 0.92 0 0 -0.92 0.91 0 0 -1.83 1.84 0 0 -1.84 0.92 0 0 -0.92 0.91 0 0 -0.92 1.84 0 0 -0.91 0.92 0 0 -0.92 0.92 0 0 -0.92 0.91 0 0 -0.92 2.76 0 0 -0.91 1.83 0 0 -0.92 0.92 0 0 -0.92 4.59 0 0 -0.92 1.83 0 0 -0.92 14.69 0 0 0.92 1.83 0 0 0.92 3.68 0 0 0.92 1.83 0 0 0.92 1.84 0 0 0.91 1.83 0 0 0.92 0.92 0 0 0.92 1.84 0 0 0.92 0.91 0 0 0.91 0.92 0 0 0.92 1.84 0 0 1.84 0.91 0 0 0.92 0.92 0 0 0.91 0.92 0 0 0.92 0.92 0 0 1.84 0.92 0 0 0.91 0.91 0 0 2.76 0.92 0 0 1.83 0.92 0 0 1.84 0.92 0 0 3.67 0.91 0 0 2.75 0.92 0 0 14.69 -0.92 0 0 3.67zm-48.64 -71.59l-3.67 0 0 0.92 -2.75 0 0 0.92 -3.67 0 0 0.92 -0.92 0 0 0.91 -2.75 0 0 0.92 -1.84 0 0 0.92 -1.83 0 0 0.92 -1.84 0 0 0.91 -0.92 0 0 0.92 -1.83 0 0 0.92 -0.92 0 0 0.92 -1.84 0 0 0.92 -0.92 0 0 0.91 -0.91 0 0 0.92 -1.84 0 0 1.84 -0.92 0 0 0.91 -0.91 0 0 0.92 -0.92 0 0 0.92 -0.92 0 0 0.92 -0.92 0 0 0.92 -0.91 0 0 0.91 -0.92 0 0 1.84 -0.92 0 0 0.92 -0.92 0 0 0.91 -0.92 0 0 1.84 -0.91 0 0 0.92 -0.92 0 0 1.83 -0.92 0 0 1.84 -0.92 0 0 1.83 -0.92 0 0 1.84 -0.91 0 0 1.84 -0.92 0 0 2.75 -0.92 0 0 2.75 -0.92 0 0 3.67 -0.91 0 0 3.67 -0.92 0 0 24.78 0.92 0 0 2.76 0.91 0 0 4.59 0.92 0 0 1.83 0.92 0 0 2.76 0.92 0 0 2.75 0.91 0 0 1.83 0.92 0 0 1.84 0.92 0 0 0.92 0.92 0 0 2.75 0.92 0 0 0.92 0.91 0 0 0.92 0.92 0 0 1.83 0.92 0 0 0.92 0.92 0 0 1.84 0.92 0 0 0.91 0.91 0 0 0.92 0.92 0 0 0.92 0.92 0 0 0.92 0.92 0 0 0.91 0.91 0 0 0.92 0.92 0 0 0.92 0.92 0 0 0.92 0.92 0 0 0.92 0.91 0 0 0.91 1.84 0 0 0.92 0.92 0 0 0.92 1.83 0 0 0.92 0.92 0 0 0.91 1.84 0 0 0.92 1.83 0 0 0.92 0.92 0 0 0.92 2.75 0 0 0.92 1.84 0 0 0.91 1.83 0 0 0.92 3.68 0 0 0.92 2.75 0 0 0.92 5.51 0 0 0.91 17.43 0 0 -0.91 5.51 0 0 -0.92 1.84 0 0 -0.92 2.75 0 0 -0.92 1.83 0 0 -0.91 2.76 0 0 -0.92 0.92 0 0 -0.92 1.83 0 0 -0.92 1.84 0 0 -0.92 0.91 0 0 -0.91 0.92 0 0 -0.92 0.92 0 0 -0.92 1.84 0 0 -0.92 0.91 0 0 -1.83 0.92 0 0 -0.92 0.92 0 0 -0.92 0.92 0 0 0.92 0.91 0 0 0.92 -0.91 0 0 11.01 26.61 0 0 -0.92 0.92 0 0 -116.55 -0.92 0 0 -0.92 -26.61 0 0 11.01 0.91 0 0 0.92 -0.91 0 0 0.92 -0.92 0 0 -1.84 -0.92 0 0 -0.92 -0.92 0 0 -0.91 -0.91 0 0 -0.92 -0.92 0 0 -0.92 -0.92 0 0 -0.92 -1.84 0 0 -0.92 -0.91 0 0 -0.91 -1.84 0 0 -0.92 -0.92 0 0 -0.92 -1.83 0 0 -0.92 -1.84 0 0 -0.91 -0.92 0 0 -0.92 -2.75 0 0 -0.92 -2.75 0 0 -0.92 -3.67 0 0 -0.92 -22.95 0 0 0.92z"/>
   <path class="fil1" d="M1013.35 154.55l0.92 0 0 -3.67 0.91 0 0 -4.59 0.92 0 0 -0.92 0.92 0 0 -2.75 0.92 0 0 -0.92 0.91 0 0 -1.83 0.92 0 0 -1.84 0.92 0 0 -0.92 0.92 0 0 -0.91 0.92 0 0 -1.84 0.91 0 0 -0.92 0.92 0 0 -0.92 1.84 0 0 -0.91 0.91 0 0 -0.92 1.84 0 0 -0.92 0.92 0 0 -0.92 1.83 0 0 -0.91 1.84 0 0 -0.92 1.83 0 0 -0.92 3.68 0 0 -0.92 2.75 0 0 -0.92 13.77 0 0 0.92 1.83 0 0 0.92 3.67 0 0 0.92 1.84 0 0 0.92 1.83 0 0 0.91 1.84 0 0 0.92 1.83 0 0 0.92 0.92 0 0 0.92 0.92 0 0 0.91 1.84 0 0 0.92 0.91 0 0 1.84 0.92 0 0 0.92 0.92 0 0 0.91 0.92 0 0 0.92 0.92 0 0 0.92 0.91 0 0 1.83 0.92 0 0 1.84 0.92 0 0 1.84 0.92 0 0 2.75 0.91 0 0 1.83 0.92 0 0 5.51 0.92 0 0 13.77 -0.92 0 0 5.5 -0.92 0 0 0.92 -0.91 0 0 2.76 -0.92 0 0 2.75 -0.92 0 0 0.92 -0.92 0 0 1.83 -0.91 0 0 0.92 -0.92 0 0 1.84 -0.92 0 0 0.91 -0.92 0 0 0.92 -0.92 0 0 0.92 -0.91 0 0 0.92 -0.92 0 0 0.91 -0.92 0 0 0.92 -0.92 0 0 0.92 -1.83 0 0 0.92 -0.92 0 0 0.92 -2.75 0 0 0.91 -0.92 0 0 0.92 -2.75 0 0 0.92 -3.68 0 0 0.92 -6.42 0 0 0.91 -3.67 0 0 -0.91 -6.43 0 0 -0.92 -3.67 0 0 -0.92 -2.75 0 0 -0.92 -1.84 0 0 -0.91 -1.83 0 0 -0.92 -0.92 0 0 -0.92 -1.84 0 0 -0.92 -0.91 0 0 -0.92 -0.92 0 0 -0.91 -0.92 0 0 -0.92 -0.92 0 0 -0.92 -0.91 0 0 -0.92 -0.92 0 0 -0.91 -0.92 0 0 -0.92 -0.92 0 0 -1.84 -0.92 0 0 -1.83 -0.91 0 0 -0.92 -0.92 0 0 -2.75 -0.92 0 0 -1.84 -0.92 0 0 -3.67 -0.91 0 0 -3.67 -0.92 0 0 -13.77zm20.19 -54.15l-3.67 0 0 0.92 -2.76 0 0 0.92 -3.67 0 0 0.92 -0.91 0 0 0.91 -2.76 0 0 0.92 -1.83 0 0 0.92 -1.84 0 0 0.92 -1.83 0 0 0.91 -0.92 0 0 0.92 -1.84 0 0 0.92 -0.92 0 0 0.92 -0.91 0 0 0.92 -1.84 0 0 0.91 -0.92 0 0 0.92 -0.91 0 0 0.92 -0.92 0 0 0.92 -0.92 0 0 0.91 -0.92 0 0 0.92 -0.92 0 0 0.92 -0.91 0 0 0.92 -0.92 0 0 0.92 -0.92 0 0 0.91 -0.92 0 0 0.92 -0.91 0 0 1.84 -0.92 0 0 0.91 -0.92 0 0 1.84 -0.92 0 0 1.84 -0.92 0 0 0.91 -0.91 0 0 2.76 -0.92 0 0 0.91 -0.92 0 0 1.84 -0.92 0 0 2.75 -0.91 0 0 1.84 -0.92 0 0 4.59 -0.92 0 0 1.83 -0.92 0 0 6.43 -0.92 0 0 18.35 0.92 0 0 7.35 0.92 0 0 1.83 0.92 0 0 3.67 0.92 0 0 1.84 0.91 0 0 2.75 0.92 0 0 2.75 0.92 0 0 0.92 0.92 0 0 2.76 0.91 0 0 0.91 0.92 0 0 1.84 0.92 0 0 0.92 0.92 0 0 1.83 0.92 0 0 0.92 0.91 0 0 0.92 0.92 0 0 1.83 0.92 0 0 0.92 0.92 0 0 0.92 0.91 0 0 0.92 0.92 0 0 0.91 0.92 0 0 0.92 0.92 0 0 0.92 0.92 0 0 0.92 1.83 0 0 0.92 0.92 0 0 0.91 0.92 0 0 0.92 0.91 0 0 0.92 1.84 0 0 0.92 1.84 0 0 0.91 0.91 0 0 0.92 1.84 0 0 0.92 0.92 0 0 0.92 2.75 0 0 0.92 2.75 0 0 0.91 0.92 0 0 0.92 4.59 0 0 0.92 1.84 0 0 0.92 5.5 0 0 0.91 17.44 0 0 -0.91 5.51 0 0 -0.92 1.83 0 0 -0.92 3.67 0 0 -0.92 0.92 0 0 -0.91 2.75 0 0 -0.92 1.84 0 0 -0.92 0.92 0 0 -0.92 1.83 0 0 -0.92 0.92 0 0 -0.91 0.92 0 0 -0.92 1.84 0 0 -0.92 0.91 0 0 -0.92 0.92 0 0 -0.91 0.92 0 0 -1.84 1.83 0 0 -0.92 0.92 0 0 2.76 -0.92 0 0 5.5 0.92 0 0 0.92 -0.92 0 0 2.75 0.92 0 0 0.92 26.62 0 0 -118.39 -26.62 0 0 0.92 -0.92 0 0 1.83 0.92 0 0 0.92 -0.92 0 0 6.42 0.92 0 0 2.76 -0.92 0 0 -0.92 -0.91 0 0 -0.92 -0.92 0 0 -0.92 -0.92 0 0 -0.91 -0.92 0 0 -0.92 -0.91 0 0 -0.92 -0.92 0 0 -0.92 -1.84 0 0 -0.92 -0.92 0 0 -0.91 -0.91 0 0 -0.92 -1.84 0 0 -0.92 -1.84 0 0 -0.92 -1.83 0 0 -0.91 -0.92 0 0 -0.92 -3.67 0 0 -0.92 -1.83 0 0 -0.92 -4.59 0 0 -0.92 -22.03 0 0 0.92z"/>
   <path class="fil1" d="M662.76 149.04l0.91 0 0 -4.58 0.92 0 0 -1.84 0.92 0 0 -2.75 0.92 0 0 -0.92 0.91 0 0 -2.75 0.92 0 0 -0.92 0.92 0 0 -0.92 0.92 0 0 -1.84 0.92 0 0 -0.91 0.91 0 0 -0.92 0.92 0 0 -0.92 0.92 0 0 -0.92 1.83 0 0 -0.91 0.92 0 0 -0.92 0.92 0 0 -0.92 2.75 0 0 -0.92 1.84 0 0 -0.92 3.67 0 0 -0.91 14.69 0 0 0.91 4.58 0 0 0.92 0.92 0 0 0.92 1.84 0 0 0.92 1.83 0 0 0.92 0.92 0 0 0.91 1.84 0 0 1.84 1.83 0 0 1.83 0.92 0 0 0.92 0.92 0 0 0.92 0.92 0 0 1.84 0.91 0 0 0.91 0.92 0 0 1.84 0.92 0 0 2.75 0.92 0 0 1.84 0.91 0 0 4.59 0.92 0 0 2.75 -59.65 0 0 -1.84zm19.27 -48.64l-4.59 0 0 0.92 -2.75 0 0 0.92 -3.67 0 0 0.92 -0.92 0 0 0.91 -2.76 0 0 0.92 -1.83 0 0 0.92 -1.84 0 0 0.92 -1.83 0 0 0.91 -0.92 0 0 0.92 -1.84 0 0 0.92 -0.91 0 0 0.92 -0.92 0 0 0.92 -1.84 0 0 0.91 -0.91 0 0 0.92 -0.92 0 0 0.92 -0.92 0 0 0.92 -0.92 0 0 0.91 -0.92 0 0 0.92 -0.91 0 0 0.92 -0.92 0 0 1.84 -0.92 0 0 0.91 -0.92 0 0 0.92 -0.91 0 0 0.92 -0.92 0 0 1.83 -0.92 0 0 0.92 -0.92 0 0 1.84 -0.92 0 0 1.83 -0.91 0 0 1.84 -0.92 0 0 1.83 -0.92 0 0 2.76 -0.92 0 0 2.75 -0.91 0 0 1.84 -0.92 0 0 3.67 -0.92 0 0 3.67 -0.92 0 0 10.09 -0.92 0 0 8.26 0.92 0 0 10.1 0.92 0 0 2.75 0.92 0 0 4.59 0.92 0 0 1.84 0.91 0 0 2.75 0.92 0 0 2.75 0.92 0 0 0.92 0.92 0 0 2.76 0.91 0 0 0.91 0.92 0 0 1.84 0.92 0 0 1.83 0.92 0 0 0.92 0.92 0 0 1.84 1.83 0 0 1.83 0.92 0 0 0.92 0.92 0 0 0.92 0.91 0 0 0.92 0.92 0 0 0.91 0.92 0 0 0.92 0.92 0 0 0.92 0.92 0 0 0.92 0.91 0 0 0.92 0.92 0 0 0.91 1.84 0 0 0.92 0.91 0 0 0.92 1.84 0 0 0.92 0.92 0 0 0.91 1.83 0 0 0.92 1.84 0 0 0.92 1.83 0 0 0.92 1.84 0 0 0.92 2.75 0 0 0.91 1.84 0 0 0.92 3.67 0 0 0.92 2.75 0 0 0.92 6.43 0 0 0.91 18.35 0 0 -0.91 8.26 0 0 -0.92 2.76 0 0 -0.92 4.59 0 0 -0.92 1.83 0 0 -0.91 2.75 0 0 -0.92 2.76 0 0 -0.92 1.83 0 0 -0.92 1.84 0 0 -0.92 1.84 0 0 -0.91 1.83 0 0 -0.92 0.92 0 0 -0.92 0.92 0 0 -0.92 1.83 0 0 -0.91 0.92 0 0 -0.92 1.83 0 0 -0.92 0.92 0 0 -0.92 0.92 0 0 -0.92 0.92 0 0 -1.83 -0.92 0 0 -0.92 -0.92 0 0 -1.83 -0.92 0 0 -0.92 -0.91 0 0 -1.84 -0.92 0 0 -0.92 -0.92 0 0 -0.91 -0.91 0 0 -1.84 -0.92 0 0 -0.92 -0.92 0 0 -1.83 -0.92 0 0 -0.92 -0.92 0 0 -0.92 -0.91 0 0 -1.83 -0.92 0 0 -1.84 -2.76 0 0 0.92 -0.91 0 0 0.92 -0.92 0 0 0.91 -0.92 0 0 0.92 -1.84 0 0 0.92 -1.83 0 0 0.92 -0.92 0 0 0.92 -2.75 0 0 0.91 -0.92 0 0 0.92 -2.75 0 0 0.92 -2.76 0 0 0.92 -2.75 0 0 0.91 -5.51 0 0 0.92 -4.58 0 0 0.92 -6.43 0 0 -0.92 -4.59 0 0 -0.92 -4.59 0 0 -0.91 -1.83 0 0 -0.92 -2.76 0 0 -0.92 -1.83 0 0 -0.92 -0.92 0 0 -0.91 -1.84 0 0 -0.92 -0.91 0 0 -0.92 -1.84 0 0 -1.84 -0.92 0 0 -0.91 -1.83 0 0 -1.84 -0.92 0 0 -0.92 -0.92 0 0 -1.83 -0.92 0 0 -1.84 -0.91 0 0 -0.92 -0.92 0 0 -2.75 -0.92 0 0 -1.83 -0.92 0 0 -3.68 -0.91 0 0 -2.75 87.19 0 0 -22.94 -0.92 0 0 -2.76 -0.92 0 0 -4.59 -0.92 0 0 -2.75 -0.92 0 0 -2.75 -0.91 0 0 -2.76 -0.92 0 0 -1.83 -0.92 0 0 -1.84 -0.92 0 0 -1.83 -0.92 0 0 -1.84 -0.91 0 0 -1.83 -0.92 0 0 -0.92 -0.92 0 0 -0.92 -0.91 0 0 -0.92 -0.92 0 0 -1.83 -0.92 0 0 -0.92 -0.92 0 0 -0.92 -0.92 0 0 -0.92 -0.91 0 0 -1.83 -0.92 0 0 -0.92 -1.84 0 0 -0.92 -0.92 0 0 -0.91 -0.91 0 0 -0.92 -0.92 0 0 -0.92 -0.92 0 0 -0.92 -1.84 0 0 -0.92 -0.91 0 0 -0.91 -1.84 0 0 -0.92 -1.83 0 0 -0.92 -1.84 0 0 -0.92 -1.83 0 0 -0.91 -1.84 0 0 -0.92 -3.67 0 0 -0.92 -1.84 0 0 -0.92 -3.67 0 0 -0.92 -23.86 0 0 0.92z"/>
   <path class="fil2" d="M738.93 386.75l-56.9 0 0 -2.75 0.92 0 0 -4.59 0.91 0 0 -1.84 0.92 0 0 -1.83 0.92 0 0 -2.76 0.92 0 0 -0.91 0.92 0 0 -1.84 0.91 0 0 -0.92 0.92 0 0 -0.92 0.92 0 0 -0.91 0.92 0 0 -0.92 0.91 0 0 -0.92 0.92 0 0 -0.92 0.92 0 0 -0.92 1.84 0 0 -0.91 0.91 0 0 -0.92 2.76 0 0 -0.92 1.83 0 0 -0.92 6.43 0 0 -0.92 7.34 0 0 0.92 5.51 0 0 0.92 1.83 0 0 0.92 2.75 0 0 0.92 0.92 0 0 0.91 1.84 0 0 0.92 0.92 0 0 0.92 0.91 0 0 0.92 0.92 0 0 0.92 0.92 0 0 0.91 0.92 0 0 0.92 0.92 0 0 1.84 0.91 0 0 0.92 0.92 0 0 1.83 0.92 0 0 1.84 0.92 0 0 3.67 0.92 0 0 0.91 0.91 0 0 4.59 0.92 0 0 0.92 -0.92 0 0 0.92zm-35.79 -49.56l-4.59 0 0 0.92 -4.59 0 0 0.92 -1.84 0 0 0.91 -3.67 0 0 0.92 -1.83 0 0 0.92 -1.84 0 0 0.91 -1.83 0 0 0.92 -0.92 0 0 0.92 -1.84 0 0 0.92 -1.83 0 0 0.92 -0.92 0 0 0.91 -0.92 0 0 0.92 -1.83 0 0 0.92 -0.92 0 0 0.92 -0.92 0 0 0.92 -0.92 0 0 0.91 -0.91 0 0 0.92 -0.92 0 0 0.92 -0.92 0 0 0.92 -0.92 0 0 1.83 -0.92 0 0 0.92 -0.91 0 0 0.92 -0.92 0 0 1.83 -0.92 0 0 0.92 -0.92 0 0 1.84 -0.91 0 0 0.91 -0.92 0 0 2.76 -0.92 0 0 0.92 -0.92 0 0 2.75 -0.92 0 0 2.75 -0.91 0 0 0.92 -0.92 0 0 4.59 -0.92 0 0 2.75 -0.92 0 0 7.35 -0.91 0 0 15.6 0.91 0 0 6.42 0.92 0 0 2.76 0.92 0 0 4.58 0.92 0 0 1.84 0.91 0 0 2.75 0.92 0 0 1.84 0.92 0 0 1.83 0.92 0 0 1.84 0.92 0 0 0.92 0.91 0 0 2.75 0.92 0 0 0.92 0.92 0 0 0.92 0.92 0 0 1.83 0.91 0 0 0.92 0.92 0 0 0.92 0.92 0 0 0.92 0.92 0 0 0.91 0.92 0 0 0.92 0.91 0 0 0.92 0.92 0 0 0.92 0.92 0 0 0.91 0.92 0 0 0.92 0.91 0 0 0.92 0.92 0 0 0.92 1.84 0 0 0.92 0.92 0 0 0.91 1.83 0 0 0.92 0.92 0 0 0.92 2.75 0 0 0.92 1.84 0 0 0.91 0.92 0 0 0.92 3.67 0 0 0.92 1.83 0 0 0.92 3.67 0 0 0.92 5.51 0 0 0.91 0.92 0 0 0.92 22.02 0 0 -0.92 0.92 0 0 -0.91 6.43 0 0 -0.92 4.59 0 0 -0.92 1.83 0 0 -0.92 3.67 0 0 -0.92 0.92 0 0 -0.91 2.75 0 0 -0.92 1.84 0 0 -0.92 1.84 0 0 -0.92 1.83 0 0 -0.91 0.92 0 0 -0.92 1.84 0 0 -0.92 0.91 0 0 -0.92 0.92 0 0 -0.92 1.83 0 0 -0.91 0.92 0 0 -0.92 1.84 0 0 -1.84 -0.92 0 0 -0.91 -0.92 0 0 -1.84 -0.92 0 0 -0.92 -0.91 0 0 -0.92 -0.92 0 0 -1.83 -0.92 0 0 -0.92 -0.91 0 0 -1.83 -0.92 0 0 -0.92 -0.92 0 0 -1.84 -0.92 0 0 -0.92 -0.92 0 0 -0.91 -0.91 0 0 -1.84 -0.92 0 0 -0.92 -0.92 0 0 -0.91 -1.84 0 0 1.83 -1.83 0 0 0.92 -0.92 0 0 0.92 -1.84 0 0 0.91 -1.83 0 0 0.92 -1.83 0 0 0.92 -1.84 0 0 0.92 -0.92 0 0 0.92 -3.67 0 0 0.91 -1.84 0 0 0.92 -3.67 0 0 0.92 -6.42 0 0 0.92 -9.18 0 0 -0.92 -5.51 0 0 -0.92 -3.67 0 0 -0.92 -1.83 0 0 -0.91 -1.84 0 0 -0.92 -1.83 0 0 -0.92 -0.92 0 0 -0.92 -1.84 0 0 -0.92 -0.92 0 0 -0.91 -0.91 0 0 -0.92 -0.92 0 0 -0.92 -0.92 0 0 -0.92 -0.92 0 0 -1.83 -0.91 0 0 -0.92 -0.92 0 0 -0.92 -0.92 0 0 -1.83 -0.92 0 0 -2.76 -0.92 0 0 -1.83 -0.91 0 0 -3.67 -0.92 0 0 -2.76 83.52 0 0 -2.75 0.92 0 0 -12.85 -0.92 0 0 -8.26 -0.92 0 0 -2.75 -0.92 0 0 -4.59 -0.92 0 0 -2.75 -0.91 0 0 -1.84 -0.92 0 0 -2.75 -0.92 0 0 -1.84 -0.92 0 0 -1.84 -0.92 0 0 -1.83 -0.91 0 0 -0.92 -0.92 0 0 -1.84 -0.92 0 0 -0.91 -0.91 0 0 -1.84 -0.92 0 0 -0.91 -0.92 0 0 -0.92 -0.92 0 0 -1.84 -0.92 0 0 -0.92 -0.91 0 0 -0.91 -0.92 0 0 -0.92 -0.92 0 0 -0.92 -1.84 0 0 -0.92 -0.91 0 0 -0.92 -0.92 0 0 -0.91 -0.92 0 0 -0.92 -1.84 0 0 -0.92 -1.83 0 0 -0.92 -0.92 0 0 -0.92 -1.83 0 0 -0.91 -1.84 0 0 -0.92 -1.83 0 0 -0.92 -2.76 0 0 -0.91 -1.83 0 0 -0.92 -3.68 0 0 -0.92 -4.58 0 0 -0.92 -17.44 0 0 0.92z"/>
   <path class="fil2" d="M206.62 384.91l0.92 0 0 -3.67 0.91 0 0 -1.83 0.92 0 0 -3.67 0.92 0 0 -0.92 0.92 0 0 -1.84 0.92 0 0 -1.83 0.91 0 0 -0.92 0.92 0 0 -1.84 0.92 0 0 -0.91 0.92 0 0 -0.92 0.91 0 0 -0.92 1.84 0 0 -0.92 0.92 0 0 -0.92 1.83 0 0 -0.91 0.92 0 0 -0.92 2.75 0 0 -0.92 1.84 0 0 -0.92 5.51 0 0 -0.92 8.26 0 0 0.92 5.5 0 0 0.92 0.92 0 0 0.92 2.76 0 0 0.92 1.83 0 0 0.91 0.92 0 0 0.92 1.83 0 0 1.84 1.84 0 0 1.83 0.92 0 0 0.92 0.91 0 0 0.92 0.92 0 0 1.84 0.92 0 0 0.91 0.92 0 0 1.84 0.92 0 0 1.83 0.91 0 0 2.76 0.92 0 0 4.59 0.92 0 0 2.75 -56.9 0 0 -0.92 -0.92 0 0 -0.92zm22.03 -47.72l-5.51 0 0 0.92 -4.59 0 0 0.92 -1.84 0 0 0.91 -2.75 0 0 0.92 -1.83 0 0 0.92 -1.84 0 0 0.91 -1.84 0 0 0.92 -0.91 0 0 0.92 -2.76 0 0 0.92 -0.91 0 0 0.92 -0.92 0 0 0.91 -1.84 0 0 0.92 -0.92 0 0 0.92 -0.91 0 0 0.92 -0.92 0 0 0.92 -0.92 0 0 0.91 -0.92 0 0 0.92 -0.91 0 0 0.92 -0.92 0 0 0.92 -0.92 0 0 0.92 -0.92 0 0 0.91 -0.92 0 0 1.84 -0.91 0 0 0.91 -0.92 0 0 0.92 -0.92 0 0 1.84 -0.92 0 0 1.83 -0.91 0 0 1.84 -0.92 0 0 0.92 -0.92 0 0 2.75 -0.92 0 0 1.84 -0.92 0 0 2.75 -0.91 0 0 3.67 -0.92 0 0 1.84 -0.92 0 0 6.42 -0.92 0 0 7.34 -0.91 0 0 5.51 0.91 0 0 7.34 0.92 0 0 7.35 0.92 0 0 1.83 0.92 0 0 3.67 0.91 0 0 2.76 0.92 0 0 1.83 0.92 0 0 1.84 0.92 0 0 1.83 0.92 0 0 1.84 0.91 0 0 0.92 0.92 0 0 1.83 0.92 0 0 1.84 0.92 0 0 0.91 0.91 0 0 0.92 0.92 0 0 0.92 0.92 0 0 1.84 0.92 0 0 0.91 0.92 0 0 0.92 0.91 0 0 0.92 0.92 0 0 0.92 0.92 0 0 0.91 1.83 0 0 0.92 0.92 0 0 0.92 0.92 0 0 0.92 1.84 0 0 0.92 0.91 0 0 0.91 1.84 0 0 0.92 0.92 0 0 0.92 1.83 0 0 0.92 1.84 0 0 0.91 1.83 0 0 0.92 2.76 0 0 0.92 1.83 0 0 0.92 3.67 0 0 0.92 5.51 0 0 0.91 0.92 0 0 0.92 22.94 0 0 -0.92 0.92 0 0 -0.91 6.42 0 0 -0.92 3.68 0 0 -0.92 1.83 0 0 -0.92 3.67 0 0 -0.92 1.84 0 0 -0.91 1.83 0 0 -0.92 2.76 0 0 -0.92 0.91 0 0 -0.92 1.84 0 0 -0.91 0.92 0 0 -0.92 1.83 0 0 -0.92 1.84 0 0 -0.92 0.92 0 0 -0.92 0.92 0 0 -0.91 1.83 0 0 -0.92 0.92 0 0 -2.75 -0.92 0 0 -0.92 -0.92 0 0 -0.92 -0.91 0 0 -1.84 -0.92 0 0 -0.91 -0.92 0 0 -1.84 -0.92 0 0 -0.92 -0.92 0 0 -0.91 -0.91 0 0 -1.84 -0.92 0 0 -0.92 -0.92 0 0 -1.83 -0.92 0 0 -0.92 -0.92 0 0 -1.84 -0.91 0 0 -0.91 -1.84 0 0 0.91 -0.92 0 0 0.92 -1.83 0 0 0.92 -0.92 0 0 0.92 -1.83 0 0 0.91 -0.92 0 0 0.92 -1.84 0 0 0.92 -2.75 0 0 0.92 -0.92 0 0 0.92 -2.75 0 0 0.91 -1.84 0 0 0.92 -4.59 0 0 0.92 -5.5 0 0 0.92 -9.18 0 0 -0.92 -6.43 0 0 -0.92 -3.67 0 0 -0.92 -0.92 0 0 -0.91 -2.75 0 0 -0.92 -0.92 0 0 -0.92 -1.83 0 0 -0.92 -0.92 0 0 -0.92 -0.92 0 0 -0.91 -0.92 0 0 -0.92 -0.91 0 0 -0.92 -0.92 0 0 -0.92 -0.92 0 0 -0.91 -0.92 0 0 -1.84 -0.91 0 0 -0.92 -0.92 0 0 -1.83 -0.92 0 0 -0.92 -0.92 0 0 -2.75 -0.92 0 0 -1.84 -0.91 0 0 -4.59 -0.92 0 0 -0.92 83.52 0 0 -0.91 0.91 0 0 -21.11 -0.91 0 0 -3.68 -0.92 0 0 -4.58 -0.92 0 0 -1.84 -0.92 0 0 -2.75 -0.91 0 0 -2.76 -0.92 0 0 -1.83 -0.92 0 0 -1.84 -0.92 0 0 -1.83 -0.91 0 0 -1.84 -0.92 0 0 -0.92 -0.92 0 0 -1.83 -0.92 0 0 -0.92 -0.92 0 0 -0.92 -0.91 0 0 -1.83 -0.92 0 0 -0.92 -0.92 0 0 -0.92 -0.92 0 0 -1.83 -1.83 0 0 -0.92 -0.92 0 0 -0.92 -0.92 0 0 -0.92 -0.92 0 0 -0.92 -0.91 0 0 -0.91 -1.84 0 0 -0.92 -0.92 0 0 -0.92 -1.83 0 0 -0.92 -0.92 0 0 -0.92 -1.84 0 0 -0.91 -1.83 0 0 -0.92 -1.84 0 0 -0.92 -2.75 0 0 -0.91 -1.84 0 0 -0.92 -4.58 0 0 -0.92 -4.59 0 0 -0.92 -16.52 0 0 0.92z"/>
   <path class="fil2" d="M1325.39 386.75l-56.9 0 0 -4.59 0.92 0 0 -1.84 0.92 0 0 -3.67 0.92 0 0 -1.83 0.91 0 0 -0.92 0.92 0 0 -2.75 0.92 0 0 -0.92 0.92 0 0 -0.92 0.91 0 0 -0.92 0.92 0 0 -1.83 1.84 0 0 -0.92 0.91 0 0 -0.92 0.92 0 0 -0.92 1.84 0 0 -0.91 0.92 0 0 -0.92 2.75 0 0 -0.92 1.84 0 0 -0.92 5.5 0 0 -0.92 9.18 0 0 0.92 4.59 0 0 0.92 1.83 0 0 0.92 2.76 0 0 0.92 0.91 0 0 0.91 1.84 0 0 0.92 0.92 0 0 0.92 0.92 0 0 0.92 0.91 0 0 0.92 0.92 0 0 0.91 0.92 0 0 0.92 0.92 0 0 1.84 0.91 0 0 1.83 0.92 0 0 0.92 0.92 0 0 2.75 0.92 0 0 1.84 0.92 0 0 3.67 0.91 0 0 2.75 0.92 0 0 0.92 -0.92 0 0 0.92zm-35.79 -49.56l-4.59 0 0 0.92 -5.51 0 0 0.92 -0.91 0 0 0.91 -3.67 0 0 0.92 -1.84 0 0 0.92 -1.83 0 0 0.91 -1.84 0 0 0.92 -0.92 0 0 0.92 -1.83 0 0 0.92 -1.84 0 0 0.92 -0.92 0 0 0.91 -1.83 0 0 0.92 -0.92 0 0 0.92 -0.92 0 0 0.92 -0.92 0 0 0.92 -0.91 0 0 0.91 -0.92 0 0 0.92 -0.92 0 0 0.92 -0.92 0 0 0.92 -0.91 0 0 0.92 -0.92 0 0 1.83 -0.92 0 0 0.92 -0.92 0 0 0.91 -0.92 0 0 1.84 -0.91 0 0 0.92 -0.92 0 0 1.83 -0.92 0 0 1.84 -0.92 0 0 1.84 -0.92 0 0 2.75 -0.91 0 0 0.92 -0.92 0 0 3.67 -0.92 0 0 1.83 -0.92 0 0 4.59 -0.91 0 0 10.1 -0.92 0 0 10.09 0.92 0 0 9.18 0.91 0 0 4.59 0.92 0 0 1.84 0.92 0 0 3.67 0.92 0 0 1.83 0.91 0 0 1.84 0.92 0 0 2.75 0.92 0 0 0.92 0.92 0 0 1.84 0.92 0 0 0.91 0.91 0 0 1.84 0.92 0 0 1.83 0.92 0 0 0.92 0.92 0 0 0.92 0.92 0 0 0.92 0.91 0 0 0.92 0.92 0 0 0.91 0.92 0 0 0.92 0.92 0 0 0.92 0.91 0 0 0.92 0.92 0 0 0.91 0.92 0 0 0.92 0.92 0 0 0.92 0.91 0 0 0.92 1.84 0 0 0.92 0.92 0 0 0.91 1.83 0 0 0.92 0.92 0 0 0.92 1.84 0 0 0.92 2.75 0 0 0.91 0.92 0 0 0.92 3.67 0 0 0.92 0.92 0 0 0.92 4.59 0 0 0.92 5.5 0 0 1.83 22.95 0 0 -0.92 0.91 0 0 -0.91 6.43 0 0 -0.92 4.59 0 0 -0.92 1.83 0 0 -0.92 3.67 0 0 -0.92 0.92 0 0 -0.91 2.76 0 0 -0.92 1.83 0 0 -0.92 0.92 0 0 -0.92 2.75 0 0 -0.91 0.92 0 0 -0.92 0.92 0 0 -0.92 1.83 0 0 -0.92 0.92 0 0 -0.92 1.84 0 0 -0.91 0.91 0 0 -0.92 0.92 0 0 -2.75 -0.92 0 0 -0.92 -0.91 0 0 -1.84 -0.92 0 0 -1.83 -0.92 0 0 -0.92 -0.92 0 0 -0.92 -0.91 0 0 -0.92 -0.92 0 0 -1.83 -0.92 0 0 -0.92 -0.92 0 0 -1.84 -0.92 0 0 -1.83 -0.91 0 0 -0.92 -0.92 0 0 -1.83 -2.75 0 0 0.91 -0.92 0 0 0.92 -0.92 0 0 0.92 -0.92 0 0 0.92 -1.83 0 0 0.91 -1.84 0 0 0.92 -1.83 0 0 0.92 -1.84 0 0 0.92 -1.84 0 0 0.92 -2.75 0 0 0.91 -1.83 0 0 0.92 -3.68 0 0 0.92 -6.42 0 0 0.92 -9.18 0 0 -0.92 -6.42 0 0 -0.92 -2.75 0 0 -0.92 -1.84 0 0 -0.91 -2.75 0 0 -0.92 -0.92 0 0 -0.92 -1.84 0 0 -0.92 -0.92 0 0 -0.92 -0.91 0 0 -0.91 -0.92 0 0 -0.92 -0.92 0 0 -0.92 -0.92 0 0 -0.92 -0.91 0 0 -0.91 -0.92 0 0 -1.84 -0.92 0 0 -1.84 -0.92 0 0 -0.91 -0.91 0 0 -1.84 -0.92 0 0 -2.75 -0.92 0 0 -2.76 -0.92 0 0 -3.67 83.52 0 0 -4.59 0.92 0 0 -10.09 -0.92 0 0 -7.34 -0.92 0 0 -5.51 -0.92 0 0 -2.75 -0.91 0 0 -2.76 -0.92 0 0 -3.67 -0.92 0 0 -0.92 -0.92 0 0 -2.75 -0.92 0 0 -0.92 -0.91 0 0 -2.75 -0.92 0 0 -0.92 -0.92 0 0 -1.84 -0.92 0 0 -0.91 -0.91 0 0 -0.92 -0.92 0 0 -1.83 -0.92 0 0 -0.92 -0.92 0 0 -0.92 -0.92 0 0 -0.92 -0.91 0 0 -0.92 -0.92 0 0 -0.91 -0.92 0 0 -0.92 -0.92 0 0 -0.92 -0.91 0 0 -0.92 -0.92 0 0 -0.92 -0.92 0 0 -0.91 -1.84 0 0 -0.92 -0.91 0 0 -0.92 -1.84 0 0 -0.92 -0.92 0 0 -0.92 -1.83 0 0 -0.91 -1.84 0 0 -0.92 -1.83 0 0 -0.92 -2.76 0 0 -0.91 -1.83 0 0 -0.92 -4.59 0 0 -0.92 -4.59 0 0 -0.92 -16.52 0 0 0.92z"/>
   <path class="fil2" d="M983.98 389.5l0.92 0 0 -1.83 0.91 0 0 -4.59 0.92 0 0 -1.84 0.92 0 0 -1.83 0.92 0 0 -2.76 0.92 0 0 -0.91 0.91 0 0 -0.92 0.92 0 0 -1.84 0.92 0 0 -0.91 0.92 0 0 -0.92 0.91 0 0 -0.92 0.92 0 0 -0.92 0.92 0 0 -0.92 1.84 0 0 -0.91 0.91 0 0 -0.92 0.92 0 0 -0.92 1.84 0 0 -0.92 1.83 0 0 -0.92 2.76 0 0 -0.91 0.91 0 0 -0.92 4.59 0 0 -0.92 5.51 0 0 -0.92 4.59 0 0 0.92 4.59 0 0 0.92 5.5 0 0 0.92 0.92 0 0 0.91 2.75 0 0 0.92 1.84 0 0 0.92 0.92 0 0 0.92 1.83 0 0 0.92 0.92 0 0 0.91 1.84 0 0 0.92 0.92 0 0 0.92 0.91 0 0 0.92 0.92 0 0 0.92 0.92 0 0 1.83 0.92 0 0 0.92 0.91 0 0 0.92 0.92 0 0 1.83 0.92 0 0 1.84 0.92 0 0 1.83 0.91 0 0 1.84 0.92 0 0 3.67 0.92 0 0 18.36 -0.92 0 0 3.67 -0.92 0 0 1.83 -0.91 0 0 2.76 -0.92 0 0 0.91 -0.92 0 0 1.84 -0.92 0 0 1.83 -0.91 0 0 0.92 -0.92 0 0 1.84 -1.84 0 0 0.92 -0.91 0 0 0.91 -0.92 0 0 0.92 -0.92 0 0 0.92 -0.92 0 0 0.92 -1.83 0 0 0.91 -0.92 0 0 0.92 -1.84 0 0 0.92 -1.83 0 0 0.92 -1.84 0 0 0.92 -2.75 0 0 0.91 -2.76 0 0 0.92 -15.6 0 0 -0.92 -2.75 0 0 -0.91 -3.67 0 0 -0.92 -0.92 0 0 -0.92 -2.75 0 0 -0.92 -0.92 0 0 -0.92 -1.84 0 0 -0.91 -1.83 0 0 -1.84 -1.84 0 0 -0.92 -0.92 0 0 -0.91 -0.91 0 0 -0.92 -0.92 0 0 -1.84 -0.92 0 0 -0.92 -0.92 0 0 -1.83 -0.91 0 0 -0.92 -0.92 0 0 -1.83 -0.92 0 0 -2.76 -0.92 0 0 -0.92 -0.92 0 0 -4.58 -0.91 0 0 -2.76 -0.92 0 0 -12.85zm26.61 -52.31l-5.5 0 0 0.92 -4.59 0 0 0.92 -1.84 0 0 0.91 -3.67 0 0 0.92 -1.83 0 0 0.92 -1.84 0 0 0.91 -2.75 0 0 0.92 -0.92 0 0 0.92 -1.84 0 0 0.92 -0.91 0 0 0.92 -1.84 0 0 0.91 -0.92 0 0 0.92 -1.83 0 0 0.92 -0.92 0 0 0.92 -0.92 0 0 0.92 -0.92 0 0 0.91 -0.91 0 0 0.92 -1.84 0 0 0.92 -0.92 0 0 0.92 -0.91 0 0 1.83 -0.92 0 0 0.92 -0.92 0 0 0.92 -0.92 0 0 0.91 -0.92 0 0 0.92 -0.91 0 0 1.84 -0.92 0 0 0.92 -0.92 0 0 1.83 -0.92 0 0 1.84 -0.91 0 0 1.83 -0.92 0 0 1.84 -0.92 0 0 0.92 -0.92 0 0 2.75 -0.92 0 0 2.75 -0.91 0 0 2.76 -0.92 0 0 4.59 -0.92 0 0 4.59 -0.92 0 0 15.6 0.92 0 0 4.59 0.92 0 0 3.67 0.92 0 0 3.67 0.91 0 0 1.83 0.92 0 0 2.76 0.92 0 0 1.83 0.92 0 0 1.84 0.92 0 0 1.83 0.91 0 0 1.84 0.92 0 0 1.84 0.92 0 0 0.91 0.92 0 0 0.92 0.91 0 0 1.84 0.92 0 0 0.91 0.92 0 0 0.92 0.92 0 0 0.92 0.92 0 0 0.92 0.91 0 0 0.92 0.92 0 0 0.91 0.92 0 0 0.92 0.92 0 0 0.92 0.91 0 0 0.92 0.92 0 0 0.91 0.92 0 0 0.92 1.84 0 0 0.92 0.91 0 0 0.92 1.84 0 0 0.92 0.92 0 0 0.91 1.83 0 0 0.92 0.92 0 0 0.92 1.84 0 0 0.92 2.75 0 0 0.91 0.92 0 0 0.92 3.67 0 0 0.92 1.83 0 0 0.92 3.67 0 0 0.92 5.51 0 0 1.83 22.03 0 0 -0.92 0.92 0 0 -0.91 5.5 0 0 -0.92 3.67 0 0 -0.92 1.84 0 0 -0.92 2.75 0 0 -0.92 1.84 0 0 -0.91 1.83 0 0 -0.92 2.76 0 0 -0.92 0.91 0 0 -0.92 1.84 0 0 -0.91 0.92 0 0 -0.92 1.83 0 0 -0.92 0.92 0 0 -0.92 0.92 0 0 -0.92 1.84 0 0 -0.91 0.91 0 0 -0.92 0.92 0 0 -0.92 0.92 0 0 -0.92 0.92 0 0 -0.91 0.91 0 0 -0.92 0.92 0 0 -0.92 0.92 0 0 -0.92 0.92 0 0 -0.92 0.91 0 0 -1.83 0.92 0 0 -0.92 0.92 0 0 -1.83 0.92 0 0 -0.92 0.92 0 0 -0.92 0.91 0 0 -2.75 0.92 0 0 -0.92 0.92 0 0 -1.84 0.92 0 0 -1.83 0.92 0 0 -1.84 0.91 0 0 -3.67 0.92 0 0 -1.83 0.92 0 0 -5.51 0.92 0 0 -4.59 0.91 0 0 -14.68 -0.91 0 0 -3.68 -0.92 0 0 -5.5 -0.92 0 0 -1.84 -0.92 0 0 -3.67 -0.91 0 0 -1.83 -0.92 0 0 -1.84 -0.92 0 0 -1.84 -0.92 0 0 -1.83 -0.92 0 0 -1.84 -0.91 0 0 -0.92 -0.92 0 0 -1.83 -0.92 0 0 -0.92 -0.92 0 0 -0.92 -0.92 0 0 -1.83 -0.91 0 0 -0.92 -0.92 0 0 -0.92 -0.92 0 0 -0.91 -0.92 0 0 -0.92 -0.91 0 0 -0.92 -0.92 0 0 -0.92 -0.92 0 0 -0.92 -0.92 0 0 -0.91 -0.91 0 0 -0.92 -0.92 0 0 -0.92 -1.84 0 0 -0.92 -0.92 0 0 -0.92 -0.91 0 0 -0.91 -1.84 0 0 -0.92 -0.92 0 0 -0.92 -2.75 0 0 -0.92 -0.92 0 0 -0.92 -1.83 0 0 -0.91 -2.76 0 0 -0.92 -1.83 0 0 -0.92 -2.76 0 0 -0.91 -1.83 0 0 -0.92 -5.51 0 0 -0.92 -4.59 0 0 -0.92 -17.44 0 0 0.92z"/>
   <polygon class="fil1" points="443.41,100.4 438.82,100.4 438.82,101.32 436.06,101.32 436.06,102.24 432.39,102.24 432.39,103.16 430.56,103.16 430.56,104.07 427.81,104.07 427.81,104.99 425.97,104.99 425.97,105.91 425.05,105.91 425.05,106.83 423.22,106.83 423.22,107.74 421.38,107.74 421.38,108.66 420.46,108.66 420.46,109.58 419.54,109.58 419.54,110.5 417.71,110.5 417.71,111.42 416.79,111.42 416.79,113.25 414.95,113.25 414.95,114.17 414.04,114.17 414.04,116 413.12,116 413.12,116.92 412.2,116.92 412.2,118.76 411.29,118.76 411.29,119.68 410.37,119.68 410.37,121.51 409.45,121.51 409.45,123.35 408.53,123.35 408.53,127.02 407.61,127.02 407.61,131.61 406.7,131.61 406.7,142.62 407.61,142.62 407.61,147.21 408.53,147.21 408.53,149.96 409.45,149.96 409.45,151.8 410.37,151.8 410.37,153.63 411.29,153.63 411.29,154.55 412.2,154.55 412.2,156.39 413.12,156.39 413.12,157.3 414.04,157.3 414.04,158.22 414.95,158.22 414.95,159.14 415.87,159.14 415.87,160.06 416.79,160.06 416.79,160.98 417.71,160.98 417.71,161.89 419.54,161.89 419.54,162.81 420.46,162.81 420.46,163.73 421.38,163.73 421.38,164.65 424.13,164.65 424.13,165.56 425.05,165.56 425.05,166.48 426.89,166.48 426.89,167.4 429.64,167.4 429.64,168.32 431.47,168.32 431.47,169.24 435.15,169.24 435.15,170.15 437.9,170.15 437.9,171.07 442.49,171.07 442.49,171.99 447.08,171.99 447.08,172.91 455.34,172.91 455.34,173.82 463.6,173.82 463.6,174.74 465.43,174.74 465.43,175.66 470.02,175.66 470.02,176.58 471.86,176.58 471.86,177.5 473.69,177.5 473.69,178.41 475.53,178.41 475.53,179.33 476.45,179.33 476.45,180.25 477.37,180.25 477.37,181.17 478.28,181.17 478.28,183 479.2,183 479.2,190.34 478.28,190.34 478.28,192.18 477.37,192.18 477.37,193.1 476.45,193.1 476.45,194.02 475.53,194.02 475.53,194.93 473.69,194.93 473.69,195.85 472.78,195.85 472.78,196.77 470.02,196.77 470.02,197.69 468.19,197.69 468.19,198.6 462.68,198.6 462.68,199.52 458.09,199.52 458.09,200.44 447.99,200.44 447.99,199.52 442.49,199.52 442.49,198.6 436.06,198.6 436.06,197.69 433.31,197.69 433.31,196.77 430.56,196.77 430.56,195.85 426.89,195.85 426.89,194.93 425.05,194.93 425.05,194.02 423.22,194.02 423.22,193.1 422.3,193.1 422.3,192.18 419.54,192.18 419.54,191.26 418.63,191.26 418.63,190.34 417.71,190.34 417.71,189.43 415.87,189.43 415.87,188.51 414.95,188.51 414.95,187.59 414.04,187.59 414.04,188.51 413.12,188.51 413.12,189.43 412.2,189.43 412.2,191.26 411.29,191.26 411.29,193.1 410.37,193.1 410.37,194.93 409.45,194.93 409.45,195.85 408.53,195.85 408.53,197.69 407.61,197.69 407.61,199.52 406.7,199.52 406.7,200.44 405.78,200.44 405.78,202.28 404.86,202.28 404.86,203.19 403.94,203.19 403.94,205.03 403.02,205.03 403.02,205.95 402.11,205.95 402.11,208.7 403.02,208.7 403.02,209.62 404.86,209.62 404.86,210.54 405.78,210.54 405.78,211.45 407.61,211.45 407.61,212.37 408.53,212.37 408.53,213.29 411.29,213.29 411.29,214.21 413.12,214.21 413.12,215.12 414.04,215.12 414.04,216.04 416.79,216.04 416.79,216.96 418.63,216.96 418.63,217.88 421.38,217.88 421.38,218.8 425.05,218.8 425.05,219.71 426.89,219.71 426.89,220.63 432.39,220.63 432.39,221.55 435.15,221.55 435.15,222.47 444.33,222.47 444.33,223.38 461.76,223.38 461.76,222.47 470.02,222.47 470.02,221.55 472.78,221.55 472.78,220.63 477.37,220.63 477.37,219.71 479.2,219.71 479.2,218.8 481.95,218.8 481.95,217.88 484.71,217.88 484.71,216.96 485.62,216.96 485.62,216.04 488.38,216.04 488.38,215.12 489.3,215.12 489.3,214.21 491.13,214.21 491.13,213.29 492.05,213.29 492.05,212.37 493.89,212.37 493.89,211.45 494.8,211.45 494.8,210.54 495.72,210.54 495.72,209.62 496.64,209.62 496.64,208.7 497.56,208.7 497.56,207.78 498.47,207.78 498.47,206.86 499.39,206.86 499.39,205.95 500.31,205.95 500.31,205.03 501.23,205.03 501.23,203.19 502.15,203.19 502.15,202.28 503.06,202.28 503.06,200.44 503.98,200.44 503.98,198.6 504.9,198.6 504.9,195.85 505.82,195.85 505.82,192.18 506.73,192.18 506.73,187.59 507.65,187.59 507.65,180.25 506.73,180.25 506.73,176.58 505.82,176.58 505.82,172.91 504.9,172.91 504.9,170.15 503.98,170.15 503.98,169.24 503.06,169.24 503.06,167.4 502.15,167.4 502.15,166.48 501.23,166.48 501.23,164.65 500.31,164.65 500.31,163.73 499.39,163.73 499.39,162.81 498.47,162.81 498.47,161.89 497.56,161.89 497.56,160.98 495.72,160.98 495.72,160.06 494.8,160.06 494.8,159.14 493.89,159.14 493.89,158.22 492.05,158.22 492.05,157.3 490.21,157.3 490.21,156.39 488.38,156.39 488.38,155.47 486.54,155.47 486.54,154.55 484.71,154.55 484.71,153.63 481.95,153.63 481.95,152.72 480.12,152.72 480.12,151.8 475.53,151.8 475.53,150.88 471.86,150.88 471.86,149.96 468.19,149.96 468.19,149.04 460.85,149.04 460.85,148.13 456.26,148.13 456.26,147.21 448.91,147.21 448.91,146.29 445.24,146.29 445.24,145.37 442.49,145.37 442.49,144.46 439.74,144.46 439.74,143.54 438.82,143.54 438.82,142.62 436.98,142.62 436.98,141.7 436.06,141.7 436.06,139.87 435.15,139.87 435.15,138.03 434.23,138.03 434.23,133.44 435.15,133.44 435.15,131.61 436.06,131.61 436.06,129.77 436.98,129.77 436.98,128.85 437.9,128.85 437.9,127.94 438.82,127.94 438.82,127.02 439.74,127.02 439.74,126.1 441.57,126.1 441.57,125.18 442.49,125.18 442.49,124.26 446.16,124.26 446.16,123.35 451.67,123.35 451.67,122.43 461.76,122.43 461.76,123.35 468.19,123.35 468.19,124.26 472.78,124.26 472.78,125.18 475.53,125.18 475.53,126.1 479.2,126.1 479.2,127.02 481.04,127.02 481.04,127.94 483.79,127.94 483.79,128.85 486.54,128.85 486.54,129.77 487.46,129.77 487.46,130.69 490.21,130.69 490.21,131.61 491.13,131.61 491.13,132.52 492.97,132.52 492.97,131.61 493.89,131.61 493.89,130.69 494.8,130.69 494.8,128.85 495.72,128.85 495.72,127.02 496.64,127.02 496.64,125.18 497.56,125.18 497.56,124.26 498.47,124.26 498.47,121.51 499.39,121.51 499.39,120.59 500.31,120.59 500.31,118.76 501.23,118.76 501.23,116.92 502.15,116.92 502.15,116 503.06,116 503.06,114.17 503.98,114.17 503.98,111.42 503.06,111.42 503.06,110.5 501.23,110.5 501.23,109.58 500.31,109.58 500.31,108.66 498.47,108.66 498.47,107.74 496.64,107.74 496.64,106.83 493.89,106.83 493.89,105.91 492.05,105.91 492.05,104.99 489.3,104.99 489.3,104.07 486.54,104.07 486.54,103.16 483.79,103.16 483.79,102.24 480.12,102.24 480.12,101.32 475.53,101.32 475.53,100.4 470.02,100.4 470.02,99.48 443.41,99.48 "/>
   <polygon class="fil1" points="543.44,102.24 519.58,102.24 519.58,126.1 520.5,126.1 520.5,127.02 522.34,127.02 522.34,126.1 539.77,126.1 539.77,127.02 540.69,127.02 540.69,126.1 543.44,126.1 543.44,189.43 544.36,189.43 544.36,193.1 545.28,193.1 545.28,196.77 546.2,196.77 546.2,200.44 547.12,200.44 547.12,201.36 548.03,201.36 548.03,204.11 548.95,204.11 548.95,205.95 549.87,205.95 549.87,206.86 550.79,206.86 550.79,208.7 551.7,208.7 551.7,209.62 552.62,209.62 552.62,210.54 553.54,210.54 553.54,211.45 554.46,211.45 554.46,212.37 555.38,212.37 555.38,213.29 556.29,213.29 556.29,214.21 557.21,214.21 557.21,215.12 558.13,215.12 558.13,216.04 559.96,216.04 559.96,216.96 560.88,216.96 560.88,217.88 562.72,217.88 562.72,218.8 564.55,218.8 564.55,219.71 566.39,219.71 566.39,220.63 570.06,220.63 570.06,221.55 571.9,221.55 571.9,222.47 577.4,222.47 577.4,223.38 593.92,223.38 593.92,222.47 601.26,222.47 601.26,221.55 603.1,221.55 603.1,220.63 606.77,220.63 606.77,219.71 607.69,219.71 607.69,218.8 610.44,218.8 610.44,217.88 613.2,217.88 613.2,216.96 614.11,216.96 614.11,216.04 616.87,216.04 616.87,215.12 617.78,215.12 617.78,214.21 619.62,214.21 619.62,213.29 621.46,213.29 621.46,212.37 622.37,212.37 622.37,208.7 621.46,208.7 621.46,206.86 620.54,206.86 620.54,205.03 619.62,205.03 619.62,204.11 618.7,204.11 618.7,201.36 617.78,201.36 617.78,200.44 616.87,200.44 616.87,197.69 615.95,197.69 615.95,195.85 615.03,195.85 615.03,194.93 614.11,194.93 614.11,192.18 613.2,192.18 613.2,191.26 612.28,191.26 612.28,190.34 610.44,190.34 610.44,191.26 609.52,191.26 609.52,192.18 607.69,192.18 607.69,193.1 605.85,193.1 605.85,194.02 603.1,194.02 603.1,194.93 602.18,194.93 602.18,195.85 599.43,195.85 599.43,196.77 595.76,196.77 595.76,197.69 590.25,197.69 590.25,198.6 586.58,198.6 586.58,197.69 582.91,197.69 582.91,196.77 579.24,196.77 579.24,195.85 578.32,195.85 578.32,194.93 576.48,194.93 576.48,194.02 575.57,194.02 575.57,193.1 574.65,193.1 574.65,191.26 573.73,191.26 573.73,190.34 572.81,190.34 572.81,188.51 571.9,188.51 571.9,185.76 570.98,185.76 570.98,183.92 570.06,183.92 570.06,127.02 570.98,127.02 570.98,126.1 572.81,126.1 572.81,127.02 573.73,127.02 573.73,126.1 611.36,126.1 611.36,127.02 614.11,127.02 614.11,126.1 615.03,126.1 615.03,125.18 615.95,125.18 615.95,105.91 615.03,105.91 615.03,104.99 615.95,104.99 615.95,103.16 615.03,103.16 615.03,102.24 570.06,102.24 570.06,66.44 543.44,66.44 "/>
   <polygon class="fil2" points="432.39,339.94 431.47,339.94 431.47,341.78 432.39,341.78 432.39,404.19 431.47,404.19 431.47,406.02 432.39,406.02 432.39,417.04 433.31,417.04 433.31,419.79 434.23,419.79 434.23,423.46 435.15,423.46 435.15,426.21 436.06,426.21 436.06,428.05 436.98,428.05 436.98,430.8 437.9,430.8 437.9,431.72 438.82,431.72 438.82,433.56 439.74,433.56 439.74,435.39 440.65,435.39 440.65,436.31 441.57,436.31 441.57,437.23 442.49,437.23 442.49,438.15 443.41,438.15 443.41,439.98 444.33,439.98 444.33,440.9 445.24,440.9 445.24,441.82 446.16,441.82 446.16,442.73 447.08,442.73 447.08,443.65 447.99,443.65 447.99,444.57 449.83,444.57 449.83,445.49 450.75,445.49 450.75,446.41 451.67,446.41 451.67,447.32 453.5,447.32 453.5,448.24 454.42,448.24 454.42,449.16 456.26,449.16 456.26,450.08 458.09,450.08 458.09,450.99 459.93,450.99 459.93,451.91 462.68,451.91 462.68,452.83 464.52,452.83 464.52,453.75 469.1,453.75 469.1,454.67 474.61,454.67 474.61,456.5 495.72,456.5 495.72,455.58 496.64,455.58 496.64,454.67 502.15,454.67 502.15,453.75 505.82,453.75 505.82,452.83 507.65,452.83 507.65,451.91 510.41,451.91 510.41,450.99 512.24,450.99 512.24,450.08 514.08,450.08 514.08,449.16 515.91,449.16 515.91,448.24 516.83,448.24 516.83,447.32 518.66,447.32 518.66,446.41 519.58,446.41 519.58,445.49 521.42,445.49 521.42,444.57 522.34,444.57 522.34,443.65 523.25,443.65 523.25,442.73 524.17,442.73 524.17,441.82 525.09,441.82 525.09,440.9 526.01,440.9 526.01,439.98 526.92,439.98 526.92,439.06 527.84,439.06 527.84,437.23 528.76,437.23 528.76,436.31 529.68,436.31 529.68,435.39 530.6,435.39 530.6,433.56 531.51,433.56 531.51,432.64 532.43,432.64 532.43,429.89 533.35,429.89 533.35,428.97 534.27,428.97 534.27,426.21 535.18,426.21 535.18,424.38 536.1,424.38 536.1,420.71 537.02,420.71 537.02,417.95 537.94,417.95 537.94,411.53 538.86,411.53 538.86,339.94 537.94,339.94 537.94,339.03 513.16,339.03 513.16,339.94 512.24,339.94 512.24,411.53 511.32,411.53 511.32,414.28 510.41,414.28 510.41,417.95 509.49,417.95 509.49,418.87 508.57,418.87 508.57,420.71 507.65,420.71 507.65,422.54 506.73,422.54 506.73,423.46 505.82,423.46 505.82,424.38 504.9,424.38 504.9,425.3 503.98,425.3 503.98,426.21 503.06,426.21 503.06,427.13 502.15,427.13 502.15,428.05 499.39,428.05 499.39,428.97 498.47,428.97 498.47,429.89 495.72,429.89 495.72,430.8 492.97,430.8 492.97,431.72 477.37,431.72 477.37,430.8 475.53,430.8 475.53,429.89 471.86,429.89 471.86,428.97 470.94,428.97 470.94,428.05 469.1,428.05 469.1,427.13 467.27,427.13 467.27,426.21 466.35,426.21 466.35,425.3 465.43,425.3 465.43,424.38 464.52,424.38 464.52,423.46 463.6,423.46 463.6,421.63 462.68,421.63 462.68,420.71 461.76,420.71 461.76,418.87 460.85,418.87 460.85,416.12 459.93,416.12 459.93,414.28 459.01,414.28 459.01,409.69 458.09,409.69 458.09,339.94 457.17,339.94 457.17,339.03 432.39,339.03 "/>
   <polygon class="fil1" points="913.31,100.4 909.64,100.4 909.64,101.32 906.89,101.32 906.89,102.24 903.21,102.24 903.21,103.16 902.3,103.16 902.3,104.07 898.63,104.07 898.63,104.99 897.71,104.99 897.71,105.91 895.87,105.91 895.87,106.83 893.12,106.83 893.12,107.74 892.2,107.74 892.2,108.66 890.37,108.66 890.37,109.58 889.45,109.58 889.45,110.5 888.53,110.5 888.53,111.42 886.69,111.42 886.69,112.33 885.78,112.33 885.78,113.25 884.86,113.25 884.86,114.17 883.94,114.17 883.94,115.09 883.02,115.09 883.02,116 882.1,116 882.1,116.92 881.19,116.92 881.19,117.84 880.27,117.84 880.27,118.76 879.35,118.76 879.35,119.68 878.44,119.68 878.44,120.59 877.52,120.59 877.52,121.51 876.6,121.51 876.6,123.35 875.68,123.35 875.68,124.26 874.76,124.26 874.76,126.1 873.85,126.1 873.85,127.02 872.93,127.02 872.93,128.85 872.01,128.85 872.01,129.77 871.09,129.77 871.09,132.52 870.17,132.52 870.17,134.36 869.26,134.36 869.26,136.2 868.34,136.2 868.34,138.95 867.42,138.95 867.42,140.78 866.5,140.78 866.5,145.37 865.58,145.37 865.58,148.13 864.67,148.13 864.67,157.3 863.75,157.3 863.75,165.56 864.67,165.56 864.67,173.82 865.58,173.82 865.58,177.5 866.5,177.5 866.5,181.17 867.42,181.17 867.42,183 868.34,183 868.34,186.67 869.26,186.67 869.26,188.51 870.17,188.51 870.17,190.34 871.09,190.34 871.09,192.18 872.01,192.18 872.01,194.02 872.93,194.02 872.93,195.85 873.85,195.85 873.85,196.77 874.76,196.77 874.76,198.6 875.68,198.6 875.68,199.52 876.6,199.52 876.6,200.44 877.52,200.44 877.52,202.28 878.44,202.28 878.44,203.19 879.35,203.19 879.35,204.11 880.27,204.11 880.27,205.03 881.19,205.03 881.19,205.95 882.1,205.95 882.1,206.86 883.02,206.86 883.02,207.78 883.94,207.78 883.94,208.7 884.86,208.7 884.86,209.62 886.69,209.62 886.69,210.54 887.61,210.54 887.61,211.45 888.53,211.45 888.53,212.37 889.45,212.37 889.45,213.29 891.28,213.29 891.28,214.21 893.12,214.21 893.12,215.12 894.04,215.12 894.04,216.04 896.79,216.04 896.79,216.96 897.71,216.96 897.71,217.88 900.46,217.88 900.46,218.8 902.3,218.8 902.3,219.71 905.05,219.71 905.05,220.63 908.72,220.63 908.72,221.55 910.56,221.55 910.56,222.47 917.9,222.47 917.9,223.38 936.25,223.38 936.25,222.47 941.76,222.47 941.76,221.55 944.51,221.55 944.51,220.63 948.19,220.63 948.19,219.71 950.02,219.71 950.02,218.8 952.77,218.8 952.77,217.88 954.61,217.88 954.61,216.96 956.45,216.96 956.45,216.04 958.28,216.04 958.28,215.12 959.2,215.12 959.2,214.21 961.03,214.21 961.03,213.29 962.87,213.29 962.87,212.37 963.79,212.37 963.79,211.45 964.71,211.45 964.71,210.54 965.62,210.54 965.62,209.62 966.54,209.62 966.54,208.7 967.46,208.7 967.46,207.78 968.38,207.78 968.38,206.86 969.29,206.86 969.29,205.95 970.21,205.95 970.21,205.03 972.05,205.03 972.05,204.11 971.13,204.11 971.13,203.19 970.21,203.19 970.21,202.28 969.29,202.28 969.29,201.36 968.38,201.36 968.38,200.44 967.46,200.44 967.46,199.52 966.54,199.52 966.54,197.69 965.62,197.69 965.62,196.77 964.71,196.77 964.71,195.85 963.79,195.85 963.79,194.93 962.87,194.93 962.87,194.02 961.95,194.02 961.95,193.1 961.03,193.1 961.03,192.18 960.12,192.18 960.12,191.26 959.2,191.26 959.2,189.43 958.28,189.43 958.28,188.51 957.36,188.51 957.36,187.59 956.45,187.59 956.45,186.67 955.53,186.67 955.53,185.76 954.61,185.76 954.61,186.67 953.69,186.67 953.69,187.59 951.86,187.59 951.86,188.51 950.94,188.51 950.94,189.43 950.02,189.43 950.02,190.34 949.1,190.34 949.1,191.26 947.27,191.26 947.27,192.18 945.43,192.18 945.43,193.1 944.51,193.1 944.51,194.02 941.76,194.02 941.76,194.93 940.84,194.93 940.84,195.85 938.09,195.85 938.09,196.77 934.42,196.77 934.42,197.69 927.99,197.69 927.99,198.6 924.32,198.6 924.32,197.69 917.9,197.69 917.9,196.77 914.23,196.77 914.23,195.85 912.39,195.85 912.39,194.93 910.56,194.93 910.56,194.02 908.72,194.02 908.72,193.1 906.89,193.1 906.89,192.18 905.97,192.18 905.97,191.26 905.05,191.26 905.05,190.34 904.13,190.34 904.13,189.43 902.3,189.43 902.3,188.51 901.38,188.51 901.38,186.67 900.46,186.67 900.46,185.76 899.54,185.76 899.54,184.84 898.63,184.84 898.63,183.92 897.71,183.92 897.71,182.08 896.79,182.08 896.79,180.25 895.87,180.25 895.87,179.33 894.96,179.33 894.96,176.58 894.04,176.58 894.04,173.82 893.12,173.82 893.12,171.07 892.2,171.07 892.2,152.72 893.12,152.72 893.12,148.13 894.04,148.13 894.04,146.29 894.96,146.29 894.96,143.54 895.87,143.54 895.87,142.62 896.79,142.62 896.79,139.87 897.71,139.87 897.71,138.95 898.63,138.95 898.63,138.03 899.54,138.03 899.54,136.2 900.46,136.2 900.46,135.28 901.38,135.28 901.38,134.36 902.3,134.36 902.3,133.44 903.21,133.44 903.21,132.52 904.13,132.52 904.13,131.61 905.05,131.61 905.05,130.69 906.89,130.69 906.89,129.77 907.8,129.77 907.8,128.85 909.64,128.85 909.64,127.94 911.47,127.94 911.47,127.02 913.31,127.02 913.31,126.1 916.98,126.1 916.98,125.18 919.73,125.18 919.73,124.26 932.58,124.26 932.58,125.18 935.34,125.18 935.34,126.1 939.01,126.1 939.01,127.02 940.84,127.02 940.84,127.94 942.68,127.94 942.68,128.85 945.43,128.85 945.43,129.77 946.35,129.77 946.35,130.69 948.19,130.69 948.19,131.61 949.1,131.61 949.1,132.52 950.02,132.52 950.02,133.44 950.94,133.44 950.94,134.36 951.86,134.36 951.86,135.28 953.69,135.28 953.69,136.2 955.53,136.2 955.53,135.28 956.45,135.28 956.45,134.36 957.36,134.36 957.36,133.44 958.28,133.44 958.28,132.52 959.2,132.52 959.2,131.61 960.12,131.61 960.12,129.77 961.03,129.77 961.03,128.85 961.95,128.85 961.95,127.94 962.87,127.94 962.87,127.02 963.79,127.02 963.79,126.1 964.71,126.1 964.71,125.18 965.62,125.18 965.62,124.26 966.54,124.26 966.54,123.35 967.46,123.35 967.46,122.43 968.38,122.43 968.38,121.51 969.29,121.51 969.29,120.59 970.21,120.59 970.21,119.68 971.13,119.68 971.13,116.92 970.21,116.92 970.21,116 969.29,116 969.29,115.09 968.38,115.09 968.38,114.17 967.46,114.17 967.46,113.25 966.54,113.25 966.54,112.33 965.62,112.33 965.62,111.42 963.79,111.42 963.79,110.5 962.87,110.5 962.87,109.58 961.95,109.58 961.95,108.66 960.12,108.66 960.12,107.74 959.2,107.74 959.2,106.83 957.36,106.83 957.36,105.91 955.53,105.91 955.53,104.99 953.69,104.99 953.69,104.07 950.94,104.07 950.94,103.16 949.1,103.16 949.1,102.24 946.35,102.24 946.35,101.32 942.68,101.32 942.68,100.4 939.01,100.4 939.01,99.48 913.31,99.48 "/>
   <polygon class="fil2" points="359.89,337.19 354.38,337.19 354.38,338.11 348.87,338.11 348.87,339.03 347.96,339.03 347.96,339.94 344.29,339.94 344.29,340.86 342.45,340.86 342.45,341.78 340.61,341.78 340.61,342.69 337.86,342.69 337.86,343.61 336.94,343.61 336.94,344.53 335.11,344.53 335.11,345.45 334.19,345.45 334.19,346.37 332.35,346.37 332.35,347.28 330.52,347.28 330.52,348.2 329.6,348.2 329.6,349.12 328.68,349.12 328.68,350.04 327.77,350.04 327.77,350.96 326.85,350.96 326.85,351.87 325.01,351.87 325.01,353.71 323.18,353.71 323.18,355.55 322.26,355.55 322.26,356.46 321.34,356.46 321.34,357.38 320.42,357.38 320.42,358.3 319.51,358.3 319.51,360.13 318.59,360.13 318.59,361.05 317.67,361.05 317.67,361.97 316.75,361.97 316.75,363.8 315.83,363.8 315.83,365.64 314.92,365.64 314.92,367.48 314,367.48 314,370.23 313.08,370.23 313.08,371.15 312.16,371.15 312.16,373.9 311.25,373.9 311.25,375.74 310.33,375.74 310.33,379.41 309.41,379.41 309.41,384.91 308.49,384.91 308.49,389.5 307.57,389.5 307.57,403.27 308.49,403.27 308.49,406.94 309.41,406.94 309.41,412.45 310.33,412.45 310.33,417.04 311.25,417.04 311.25,418.87 312.16,418.87 312.16,421.63 313.08,421.63 313.08,422.54 314,422.54 314,425.3 314.92,425.3 314.92,427.13 315.83,427.13 315.83,428.05 316.75,428.05 316.75,429.89 317.67,429.89 317.67,430.8 318.59,430.8 318.59,432.64 319.51,432.64 319.51,433.56 320.42,433.56 320.42,435.39 321.34,435.39 321.34,436.31 322.26,436.31 322.26,437.23 323.18,437.23 323.18,438.15 324.09,438.15 324.09,439.06 325.01,439.06 325.01,439.98 325.93,439.98 325.93,440.9 326.85,440.9 326.85,441.82 327.77,441.82 327.77,442.73 328.68,442.73 328.68,443.65 330.52,443.65 330.52,444.57 331.44,444.57 331.44,445.49 333.27,445.49 333.27,446.41 334.19,446.41 334.19,447.32 336.03,447.32 336.03,448.24 336.94,448.24 336.94,449.16 338.78,449.16 338.78,450.08 340.61,450.08 340.61,450.99 342.45,450.99 342.45,451.91 345.2,451.91 345.2,452.83 347.04,452.83 347.04,453.75 350.71,453.75 350.71,454.67 357.14,454.67 357.14,455.58 358.05,455.58 358.05,456.5 379.16,456.5 379.16,454.67 384.67,454.67 384.67,453.75 388.34,453.75 388.34,452.83 390.18,452.83 390.18,451.91 392.93,451.91 392.93,450.99 394.77,450.99 394.77,450.08 396.6,450.08 396.6,449.16 398.43,449.16 398.43,448.24 399.35,448.24 399.35,447.32 401.19,447.32 401.19,446.41 402.11,446.41 402.11,445.49 403.94,445.49 403.94,444.57 404.86,444.57 404.86,443.65 405.78,443.65 405.78,442.73 407.61,442.73 407.61,441.82 408.53,441.82 408.53,440.9 409.45,440.9 409.45,439.98 410.37,439.98 410.37,439.06 411.29,439.06 411.29,436.31 409.45,436.31 409.45,434.47 408.53,434.47 408.53,433.56 407.61,433.56 407.61,432.64 406.7,432.64 406.7,431.72 405.78,431.72 405.78,430.8 404.86,430.8 404.86,429.89 403.94,429.89 403.94,428.97 403.02,428.97 403.02,427.13 402.11,427.13 402.11,426.21 401.19,426.21 401.19,425.3 400.27,425.3 400.27,424.38 399.35,424.38 399.35,423.46 398.43,423.46 398.43,422.54 397.52,422.54 397.52,421.63 396.6,421.63 396.6,420.71 393.85,420.71 393.85,421.63 392.93,421.63 392.93,422.54 392.01,422.54 392.01,423.46 390.18,423.46 390.18,424.38 389.26,424.38 389.26,425.3 387.42,425.3 387.42,426.21 386.5,426.21 386.5,427.13 384.67,427.13 384.67,428.05 381.91,428.05 381.91,428.97 381,428.97 381,429.89 377.33,429.89 377.33,430.8 374.57,430.8 374.57,431.72 360.81,431.72 360.81,430.8 358.05,430.8 358.05,429.89 354.38,429.89 354.38,428.97 353.46,428.97 353.46,428.05 350.71,428.05 350.71,427.13 349.79,427.13 349.79,426.21 348.87,426.21 348.87,425.3 347.04,425.3 347.04,424.38 346.12,424.38 346.12,423.46 345.2,423.46 345.2,422.54 344.29,422.54 344.29,421.63 343.37,421.63 343.37,420.71 342.45,420.71 342.45,419.79 341.53,419.79 341.53,418.87 340.61,418.87 340.61,417.04 339.7,417.04 339.7,415.2 338.78,415.2 338.78,413.37 337.86,413.37 337.86,411.53 336.94,411.53 336.94,409.69 336.03,409.69 336.03,404.19 335.11,404.19 335.11,400.52 334.19,400.52 334.19,391.34 335.11,391.34 335.11,387.67 336.03,387.67 336.03,383.08 336.94,383.08 336.94,381.24 337.86,381.24 337.86,378.49 338.78,378.49 338.78,377.57 339.7,377.57 339.7,375.74 340.61,375.74 340.61,373.9 341.53,373.9 341.53,372.98 342.45,372.98 342.45,372.07 343.37,372.07 343.37,371.15 344.29,371.15 344.29,370.23 345.2,370.23 345.2,368.39 347.04,368.39 347.04,367.48 347.96,367.48 347.96,366.56 349.79,366.56 349.79,365.64 350.71,365.64 350.71,364.72 352.55,364.72 352.55,363.8 355.3,363.8 355.3,362.89 356.22,362.89 356.22,361.97 360.81,361.97 360.81,361.05 365.39,361.05 365.39,360.13 369.98,360.13 369.98,361.05 374.57,361.05 374.57,361.97 379.16,361.97 379.16,362.89 381,362.89 381,363.8 383.75,363.8 383.75,364.72 385.59,364.72 385.59,365.64 386.5,365.64 386.5,366.56 388.34,366.56 388.34,367.48 389.26,367.48 389.26,368.39 390.18,368.39 390.18,369.31 392.01,369.31 392.01,370.23 392.93,370.23 392.93,371.15 393.85,371.15 393.85,372.07 395.68,372.07 395.68,371.15 396.6,371.15 396.6,370.23 397.52,370.23 397.52,369.31 398.43,369.31 398.43,368.39 399.35,368.39 399.35,367.48 400.27,367.48 400.27,366.56 401.19,366.56 401.19,365.64 402.11,365.64 402.11,364.72 403.02,364.72 403.02,363.8 403.94,363.8 403.94,362.89 404.86,362.89 404.86,361.97 405.78,361.97 405.78,361.05 406.7,361.05 406.7,360.13 407.61,360.13 407.61,358.3 408.53,358.3 408.53,357.38 409.45,357.38 409.45,356.46 410.37,356.46 410.37,355.55 411.29,355.55 411.29,353.71 410.37,353.71 410.37,352.79 409.45,352.79 409.45,351.87 408.53,351.87 408.53,350.96 407.61,350.96 407.61,350.04 406.7,350.04 406.7,349.12 404.86,349.12 404.86,348.2 403.94,348.2 403.94,347.28 403.02,347.28 403.02,346.37 402.11,346.37 402.11,345.45 400.27,345.45 400.27,344.53 398.43,344.53 398.43,343.61 397.52,343.61 397.52,342.69 394.77,342.69 394.77,341.78 393.85,341.78 393.85,340.86 392.01,340.86 392.01,339.94 388.34,339.94 388.34,339.03 386.5,339.03 386.5,338.11 381.91,338.11 381.91,337.19 376.41,337.19 376.41,336.27 359.89,336.27 "/>
   <polygon class="fil1" points="827.96,100.4 824.29,100.4 824.29,101.32 822.45,101.32 822.45,102.24 818.78,102.24 818.78,103.16 817.86,103.16 817.86,104.07 816.03,104.07 816.03,104.99 814.19,104.99 814.19,105.91 813.27,105.91 813.27,106.83 811.44,106.83 811.44,107.74 810.52,107.74 810.52,108.66 809.6,108.66 809.6,109.58 808.68,109.58 808.68,110.5 807.77,110.5 807.77,111.42 806.85,111.42 806.85,112.33 805.93,112.33 805.93,113.25 805.01,113.25 805.01,102.24 778.4,102.24 778.4,219.71 779.31,219.71 779.31,220.63 805.01,220.63 805.01,219.71 805.93,219.71 805.93,145.37 806.85,145.37 806.85,143.54 807.77,143.54 807.77,139.87 808.68,139.87 808.68,138.95 809.6,138.95 809.6,137.11 810.52,137.11 810.52,135.28 811.44,135.28 811.44,134.36 812.35,134.36 812.35,132.52 813.27,132.52 813.27,131.61 814.19,131.61 814.19,130.69 815.11,130.69 815.11,129.77 816.94,129.77 816.94,128.85 817.86,128.85 817.86,127.94 819.7,127.94 819.7,127.02 821.53,127.02 821.53,126.1 825.2,126.1 825.2,125.18 827.96,125.18 827.96,124.26 838.05,124.26 838.05,125.18 841.72,125.18 841.72,126.1 847.23,126.1 847.23,127.02 849.06,127.02 849.06,127.94 850.9,127.94 850.9,128.85 852.74,128.85 852.74,127.02 853.65,127.02 853.65,125.18 854.57,125.18 854.57,119.68 855.49,119.68 855.49,116.92 856.41,116.92 856.41,113.25 857.33,113.25 857.33,108.66 858.24,108.66 858.24,104.99 859.16,104.99 859.16,102.24 857.33,102.24 857.33,101.32 854.57,101.32 854.57,100.4 850.9,100.4 850.9,99.48 827.96,99.48 "/>
   <polygon class="fil1" points="1195.07,100.4 1191.4,100.4 1191.4,101.32 1188.65,101.32 1188.65,102.24 1185.89,102.24 1185.89,103.16 1184.97,103.16 1184.97,104.07 1182.22,104.07 1182.22,104.99 1181.3,104.99 1181.3,105.91 1180.38,105.91 1180.38,106.83 1178.55,106.83 1178.55,107.74 1177.63,107.74 1177.63,108.66 1176.71,108.66 1176.71,109.58 1175.79,109.58 1175.79,110.5 1174.88,110.5 1174.88,111.42 1173.96,111.42 1173.96,112.33 1173.04,112.33 1173.04,114.17 1171.21,114.17 1171.21,110.5 1172.12,110.5 1172.12,109.58 1171.21,109.58 1171.21,104.99 1172.12,104.99 1172.12,103.16 1171.21,103.16 1171.21,102.24 1145.51,102.24 1145.51,103.16 1144.59,103.16 1144.59,104.99 1145.51,104.99 1145.51,216.04 1144.59,216.04 1144.59,219.71 1145.51,219.71 1145.51,220.63 1172.12,220.63 1172.12,150.88 1173.04,150.88 1173.04,144.46 1173.96,144.46 1173.96,142.62 1174.88,142.62 1174.88,139.87 1175.79,139.87 1175.79,138.03 1176.71,138.03 1176.71,136.2 1177.63,136.2 1177.63,134.36 1178.55,134.36 1178.55,133.44 1179.47,133.44 1179.47,132.52 1180.38,132.52 1180.38,131.61 1181.3,131.61 1181.3,130.69 1182.22,130.69 1182.22,129.77 1183.14,129.77 1183.14,128.85 1184.97,128.85 1184.97,127.94 1186.81,127.94 1186.81,127.02 1188.65,127.02 1188.65,126.1 1192.31,126.1 1192.31,125.18 1195.07,125.18 1195.07,124.26 1205.17,124.26 1205.17,125.18 1208.83,125.18 1208.83,126.1 1213.42,126.1 1213.42,127.02 1215.26,127.02 1215.26,127.94 1218.01,127.94 1218.01,128.85 1219.85,128.85 1219.85,126.1 1220.77,126.1 1220.77,123.35 1221.69,123.35 1221.69,118.76 1222.6,118.76 1222.6,116 1223.52,116 1223.52,111.42 1224.44,111.42 1224.44,106.83 1225.35,106.83 1225.35,104.99 1226.27,104.99 1226.27,102.24 1224.44,102.24 1224.44,101.32 1220.77,101.32 1220.77,100.4 1217.1,100.4 1217.1,99.48 1195.07,99.48 "/>
   <polygon class="fil2" points="621.46,337.19 616.87,337.19 616.87,338.11 612.28,338.11 612.28,339.03 611.36,339.03 611.36,339.94 608.61,339.94 608.61,340.86 606.77,340.86 606.77,341.78 605.85,341.78 605.85,342.69 604.02,342.69 604.02,343.61 603.1,343.61 603.1,344.53 601.26,344.53 601.26,345.45 600.35,345.45 600.35,346.37 599.43,346.37 599.43,347.28 598.51,347.28 598.51,348.2 597.59,348.2 597.59,349.12 596.68,349.12 596.68,350.04 595.76,350.04 595.76,347.28 596.68,347.28 596.68,339.94 595.76,339.94 595.76,339.03 570.98,339.03 570.98,339.94 570.06,339.94 570.06,452.83 570.98,452.83 570.98,453.75 595.76,453.75 595.76,452.83 596.68,452.83 596.68,381.24 597.59,381.24 597.59,379.41 598.51,379.41 598.51,376.65 599.43,376.65 599.43,373.9 600.35,373.9 600.35,372.98 601.26,372.98 601.26,371.15 602.18,371.15 602.18,370.23 603.1,370.23 603.1,368.39 604.02,368.39 604.02,367.48 604.94,367.48 604.94,366.56 606.77,366.56 606.77,365.64 607.69,365.64 607.69,364.72 609.52,364.72 609.52,363.8 611.36,363.8 611.36,362.89 613.2,362.89 613.2,361.97 617.78,361.97 617.78,361.05 628.8,361.05 628.8,361.97 635.22,361.97 635.22,362.89 637.06,362.89 637.06,363.8 639.81,363.8 639.81,364.72 642.56,364.72 642.56,361.97 643.48,361.97 643.48,357.38 644.4,357.38 644.4,354.63 645.32,354.63 645.32,350.04 646.24,350.04 646.24,347.28 647.15,347.28 647.15,342.69 648.07,342.69 648.07,339.94 647.15,339.94 647.15,339.03 646.24,339.03 646.24,338.11 641.65,338.11 641.65,337.19 637.06,337.19 637.06,336.27 621.46,336.27 "/>
   <path class="fil1" d="M1380.46 220.63l0.92 0 0 -0.92 0.92 0 0 -0.91 0.91 0 0 0.91 0.92 0 0 0.92 0.92 0 0 0.92 -4.59 0 0 -0.92zm-2.75 -6.42l0.91 0 0 -0.92 0.92 0 0 6.42 -0.92 0 0 -0.91 -0.91 0 0 -4.59zm4.59 0l0.91 0 0 0.91 0.92 0 0 0.92 -1.83 0 0 -1.83zm-1.84 -2.76l5.51 0 0 0.92 0.91 0 0 1.84 0.92 0 0 4.59 -0.92 0 0 0.91 -0.91 0 0 -0.91 -0.92 0 0 -0.92 0.92 0 0 -1.84 0.91 0 0 -0.92 -0.91 0 0 -1.83 -0.92 0 0 -0.92 -4.59 0 0 -0.92zm1.84 -2.75l-2.76 0 0 0.92 -1.83 0 0 0.92 -0.92 0 0 0.91 -0.92 0 0 1.84 -0.92 0 0 2.75 -0.91 0 0 1.84 0.91 0 0 1.83 0.92 0 0 1.84 0.92 0 0 0.92 0.92 0 0 0.91 1.83 0 0 0.92 6.43 0 0 -0.92 1.83 0 0 -0.91 0.92 0 0 -0.92 0.92 0 0 -0.92 0.92 0 0 -8.26 -0.92 0 0 -0.92 -0.92 0 0 -0.91 -0.92 0 0 -0.92 -1.83 0 0 -0.92 -2.76 0 0 -0.92 -0.91 0 0 0.92z"/>
   <polygon class="fil2" points="1359.35,447.32 1362.1,447.32 1362.1,450.08 1361.19,450.08 1361.19,451.91 1362.1,451.91 1362.1,453.75 1363.94,453.75 1363.94,447.32 1366.69,447.32 1366.69,452.83 1367.61,452.83 1367.61,453.75 1368.53,453.75 1368.53,452.83 1370.36,452.83 1370.36,451.91 1373.12,451.91 1373.12,452.83 1374.04,452.83 1374.04,453.75 1374.95,453.75 1374.95,452.83 1375.87,452.83 1375.87,445.49 1372.2,445.49 1372.2,448.24 1370.36,448.24 1370.36,445.49 1359.35,445.49 "/>
  </g>
 </g>
</svg>
