<?xml version="1.0" encoding="UTF-8"?>
<!DOCTYPE svg PUBLIC "-//W3C//DTD SVG 1.1//EN" "http://www.w3.org/Graphics/SVG/1.1/DTD/svg11.dtd">
<!-- Creator: CorelDRAW 2018 (64-Bit) -->
<svg xmlns="http://www.w3.org/2000/svg" xml:space="preserve" width="1400px" height="500px" version="1.1" style="shape-rendering:geometricPrecision; text-rendering:geometricPrecision; image-rendering:optimizeQuality; fill-rule:evenodd; clip-rule:evenodd"
viewBox="0 0 1400 500"
 xmlns:xlink="http://www.w3.org/1999/xlink">
 <defs>
  <style type="text/css">
   <![CDATA[
    .fil0 {fill:none}
    .fil1 {fill:#172794}
    .fil4 {fill:#182175}
    .fil3 {fill:#182483}
    .fil2 {fill:#1A1E65}
   ]]>
  </style>
 </defs>
 <g id="Слой_x0020_1">
  <metadata id="CorelCorpID_0Corel-Layer"/>
  <rect class="fil0" width="1400" height="500"/>
  <g id="_2053068752592">
   <path class="fil1" d="M1191.79 156.92l32.65 152.23 -87.24 0.03 54.59 -152.26zm-218 297.27l111.16 0c0.41,-4.88 21.27,-62 22.54,-62l132.16 0c3.03,0 11.39,55.85 14.34,62l97.84 0c0,-8.86 -8.2,-40.16 -10.42,-51.06 -10.45,-51.29 -21.95,-102.51 -32.14,-153.86 -6.72,-33.88 -13.84,-68.93 -21.42,-102.57 -2.24,-9.96 -20.08,-101.4 -22.59,-101.4l-82.47 0c-27.5,0 -39.74,9.3 -49.51,27.34 -8.57,15.82 -15.86,37.12 -23.2,54.16 -31.42,72.89 -59.78,144.83 -91.03,217.91 -5.6,13.08 -44.77,103.69 -45.26,109.48z"/>
   <path class="fil2" d="M48.17 59.13c24.61,0.55 97.59,28.46 112.19,39.96 13.71,10.81 17.05,33.92 22.3,53.53 5.45,20.36 10.1,40.35 15.77,60.57 6.07,21.67 61.16,241 63.86,241l109.1 0c2.86,0 113.27,-268.41 129.42,-306.08 5.29,-12.33 42.24,-97.34 42.7,-102.81l-92.72 0c-18.14,0 -16.78,-3.62 -21.95,9.29 -11.93,29.78 -23.51,59.62 -35.34,89.16l-52.84 133.66c-2.88,7.45 -14.91,40.23 -17.93,44.58 -5.84,-25.07 -10.49,-53.29 -15.17,-79.11 -4.83,-26.69 -10.25,-52.65 -15.09,-79.18 -4.74,-25.96 -9.43,-53.22 -15.08,-79.2 -5.56,-25.59 -24.44,-39.2 -55.57,-39.2l-170.07 0c-2.21,0 -3.52,11.34 -3.58,13.83z"/>
   <path class="fil3" d="M721.77 174.93c0,62.26 53.21,88.26 94.58,110.87 16.4,8.96 53.34,26.38 52.32,49.93 -1.14,26.19 -34.67,39.55 -63.4,39.55 -43.58,0 -77.2,-10.57 -107.58,-26.64l-19.38 89.68c6.85,1.6 17.29,6.39 25.47,8.76 33.82,9.78 61.46,13.77 98.92,13.77 91.52,0 176.73,-48.52 176.73,-138.35l0 -2.56c0,-59.85 -49.9,-91.59 -90.49,-111.88 -16.75,-8.37 -52.83,-25.66 -56.46,-44.49 -5.3,-27.5 34.15,-39.36 60.89,-39.36 24.57,0 46.43,4.79 67.95,11.97 6.01,2.01 13.99,6.3 19.13,7.5l18.52 -86.58c-13.53,-3.15 -26.95,-9 -43.57,-12.36 -25.92,-5.25 -39.4,-5.59 -65.61,-5.59 -85.72,0 -168.02,50.6 -168.02,135.78z"/>
   <path class="fil4" d="M500.99 454.19l106.04 0c1.12,-13.43 7.95,-36.78 10.8,-51.2 3.36,-16.99 7.4,-33.93 10.89,-51.1 7,-34.39 14.16,-68.9 21.75,-102.76 11.32,-50.46 21.36,-102.51 32.55,-153.43 1.26,-5.71 11.82,-50.4 9.04,-50.4l-102.96 0c-2.19,0 -40.71,185.53 -44.61,203.88 -7.21,33.91 -14.12,68.13 -21.8,102.21 -3.86,17.15 -7.31,34.16 -10.85,51.14 -2.18,10.48 -10.85,43.41 -10.85,51.66z"/>
  </g>
 </g>
</svg>
