<?xml version="1.0" encoding="UTF-8"?>
<!DOCTYPE svg PUBLIC "-//W3C//DTD SVG 1.1//EN" "http://www.w3.org/Graphics/SVG/1.1/DTD/svg11.dtd">
<!-- Creator: CorelDRAW 2018 (64-Bit) -->
<svg xmlns="http://www.w3.org/2000/svg" xml:space="preserve" width="1334px" height="500px" version="1.1" style="shape-rendering:geometricPrecision; text-rendering:geometricPrecision; image-rendering:optimizeQuality; fill-rule:evenodd; clip-rule:evenodd"
viewBox="0 0 250.59 93.91"
 xmlns:xlink="http://www.w3.org/1999/xlink">
 <defs>
  <style type="text/css">
   <![CDATA[
    .fil0 {fill:white}
    .fil1 {fill:#130F6D;fill-rule:nonzero}
    .fil3 {fill:url(#id0);fill-rule:nonzero}
    .fil2 {fill:url(#id1);fill-rule:nonzero}
   ]]>
  </style>
  <linearGradient id="id0" gradientUnits="userSpaceOnUse" x1="10.32" y1="27.61" x2="82.97" y2="63.04">
   <stop offset="0" style="stop-opacity:1; stop-color:#00AAEB"/>
   <stop offset="0.101961" style="stop-opacity:1; stop-color:#00AAEB"/>
   <stop offset="0.501961" style="stop-opacity:1; stop-color:#0570CF"/>
   <stop offset="1" style="stop-opacity:1; stop-color:#130F6D"/>
  </linearGradient>
  <linearGradient id="id1" gradientUnits="userSpaceOnUse" x1="10.32" y1="27.61" x2="82.97" y2="63.04">
   <stop offset="0" style="stop-opacity:1; stop-color:#00ACEB"/>
   <stop offset="0.101961" style="stop-opacity:1; stop-color:#00ACEB"/>
   <stop offset="0.501961" style="stop-opacity:1; stop-color:#1F6EB5"/>
   <stop offset="1" style="stop-opacity:1; stop-color:#1F1A62"/>
  </linearGradient>
 </defs>
 <g id="Слой_x0020_1">
  <metadata id="CorelCorpID_0Corel-Layer"/>
  <rect class="fil0" width="250.59" height="93.91"/>
  <g id="_1737543962560">
   <g>
    <g>
     <g>
      <g>
       <path class="fil1" d="M125.98 48.41l-4.15 8.44 -1.75 -9.96 -2.07 0c-1,0 -1.91,0.57 -2.34,1.47l-4.12 8.49 -0.95 -5.46c-0.45,-2.56 -2.67,-4.43 -5.27,-4.43l-8.18 0c0,0 8.57,2.2 9.29,6.25 0,0 0,0 0,0l1.83 10.38 3.97 0 4.96 -9.98 1.92 9.98 4 0 8.27 -16.63 -3.07 0c-0.99,0 -1.9,0.56 -2.34,1.45z"/>
      </g>
      <g>
       <path class="fil1" d="M140.76 46.53c-2.65,0 -4.87,0.92 -6.62,2.74 -1.75,1.82 -2.61,4.04 -2.61,6.68 0,2.39 0.79,4.3 2.41,5.76 1.62,1.45 3.64,2.18 6.12,2.18 2.48,0 4.43,-0.49 5.86,-1.49l0.56 -3.83c-1.69,0.89 -3.44,1.35 -5.26,1.35 -2.91,0 -5.06,-1.19 -5.19,-3.44l11.9 0c0.2,-1.02 0.3,-1.98 0.3,-2.87 0,-2.02 -0.69,-3.71 -2.05,-5.06 -1.36,-1.36 -3.14,-2.02 -5.42,-2.02zm2.97 6.98l0 0 -7.37 0c0.49,-2.09 2.18,-3.31 4.2,-3.31 2.02,0 3.17,1.26 3.17,3.08l0 0.23z"/>
      </g>
      <g>
       <path class="fil1" d="M162.69 46.53c-2.19,0 -4.01,0.79 -5.49,2.35l1.39 -8.57 -2.44 0c-1.29,0 -2.38,0.93 -2.58,2.2l-3.32 20.95 4.66 0 0.34 -2.18c0.95,1.36 3.04,2.61 5.58,2.61 2.62,0 4.73,-0.96 6.32,-2.91 1.62,-1.95 2.42,-4.2 2.42,-6.75 0,-2.18 -0.63,-4 -1.89,-5.49 -1.26,-1.48 -2.91,-2.21 -4.99,-2.21zm0.72 11.84l0 0c-0.92,0.96 -2.05,1.45 -3.37,1.45 -1.82,0 -3.51,-1.12 -4.17,-2.41l0.7 -4.4c0.92,-1.42 2.58,-2.41 4.26,-2.41 2.35,0 3.97,1.62 3.97,4.1 0,1.45 -0.46,2.68 -1.39,3.67z"/>
      </g>
      <g>
       <path class="fil1" d="M184.09 46.53c-2.18,0 -4,0.79 -5.49,2.35l0.33 -1.92 -4.66 0 -3.68 23.12 2.44 0c1.28,0 2.37,-0.94 2.57,-2.2l1.05 -6.6c0.96,1.36 3.04,2.61 5.59,2.61 2.61,0 4.73,-0.96 6.31,-2.91 1.62,-1.95 2.42,-4.2 2.42,-6.75 0,-2.18 -0.63,-4 -1.89,-5.49 -1.25,-1.48 -2.91,-2.21 -4.99,-2.21zm0.73 11.84l0 0c-0.93,0.96 -2.05,1.45 -3.38,1.45 -1.82,0 -3.5,-1.12 -4.17,-2.41l0.7 -4.4c0.93,-1.42 2.58,-2.41 4.27,-2.41 2.34,0 3.96,1.62 3.96,4.1 0,1.45 -0.46,2.68 -1.38,3.67z"/>
      </g>
      <g>
       <path class="fil1" d="M209.62 59.96c-0.76,0 -1.15,-0.37 -1.15,-1.1 0,-0.19 0.06,-0.62 0.16,-1.29l0.53 -3.2c0.17,-0.83 0.23,-1.49 0.23,-1.99 0,-2.02 -0.69,-3.47 -2.11,-4.43 -1.43,-0.96 -3.18,-1.42 -5.33,-1.42 -2.22,0 -4.17,0.36 -5.79,1.06l-0.59 3.87c1.58,-0.76 3.24,-1.13 4.96,-1.13 2.81,0 4.2,0.89 4.2,2.68 0,0.17 -0.03,0.56 -0.13,1.19 -1.56,-0.83 -3.31,-1.26 -5.26,-1.26 -1.89,0 -3.51,0.53 -4.86,1.56 -1.33,1.02 -1.99,2.45 -1.99,4.26 0,3.01 2.32,5.13 5.92,5.13 2.15,0 4,-0.73 5.49,-2.18 0.37,1.35 1.56,2.05 3.57,2.05 1,0 1.82,-0.2 2.45,-0.6l0.53 -3.37c-0.3,0.1 -0.56,0.17 -0.83,0.17zm-5.78 -1.29l0 0c-0.8,0.96 -2.32,1.68 -3.81,1.68 -1.75,0 -2.91,-0.66 -2.91,-1.98 0,-1.59 1.42,-2.42 3.41,-2.42 1.45,0 2.68,0.33 3.64,1l-0.33 1.72z"/>
      </g>
      <g>
       <path class="fil1" d="M225.4 48.37l-4.89 9.47 -2.98 -10.88 -4.86 0 4.93 15.94c-1.29,2.22 -2.75,3.34 -4.4,3.34 -0.83,0 -1.62,-0.23 -2.38,-0.7l-0.63 4.04c0.89,0.46 1.95,0.69 3.17,0.69 3.14,0 5.63,-1.65 7.48,-4.92l10.25 -18.39 -3.37 0c-0.98,0 -1.87,0.54 -2.32,1.41z"/>
      </g>
      <path class="fil1" d="M239.63 49.52c0,-0.8 -0.61,-1.36 -1.57,-1.36l-2.12 0 0 4.53 1.01 0 0 -1.8 0.72 0 1.31 1.8 1.13 0 -1.4 -1.92c0.58,-0.17 0.92,-0.65 0.92,-1.25zm-1.62 0.54l0 0 -1.06 0 0 -1.05 1.06 0c0.38,0 0.61,0.2 0.61,0.54 0,0.35 -0.2,0.51 -0.61,0.51z"/>
      <path class="fil1" d="M237.78 46.07c-2.44,0 -4.44,1.99 -4.44,4.44 0,2.44 2,4.43 4.44,4.43 2.45,0 4.44,-1.99 4.44,-4.43 0,-2.45 -1.99,-4.44 -4.44,-4.44zm0 8.18l0 0c-2.06,0 -3.74,-1.68 -3.74,-3.74 0,-2.07 1.68,-3.75 3.74,-3.75 2.07,0 3.75,1.68 3.75,3.75 0,2.06 -1.68,3.74 -3.75,3.74z"/>
     </g>
     <g>
      <path class="fil2" d="M41.75 28.49l5.46 -20.38 5.46 20.38 -10.92 0zm18.46 13.19l0 0 10.55 -18.26 -18.27 10.54 7.72 7.72zm5.47 10.74l0 0 25.93 -5.46 -25.93 -5.46 0 10.92zm-13.19 7.53l0 0 18.27 10.55 -10.55 -18.27 -7.72 7.72zm-10.74 5.48l0 0 5.46 20.37 5.46 -20.37 -10.92 0zm-7.53 -13.19l0 0 -10.55 18.26 18.27 -10.54 -7.72 -7.72zm-5.48 -10.74l0 0 -20.37 5.46 20.37 5.46 0 -10.92zm13.2 -7.54l0 0 -18.27 -10.54 10.54 18.26 7.73 -7.72z"/>
     </g>
    </g>
    <g>
     <path class="fil3" d="M41.75 28.49l5.46 -20.38 5.46 20.38 -10.92 0zm18.46 13.19l0 0 10.55 -18.26 -18.27 10.54 7.72 7.72zm5.47 10.74l0 0 25.93 -5.46 -25.93 -5.46 0 10.92zm-13.19 7.53l0 0 18.27 10.55 -10.55 -18.27 -7.72 7.72zm-10.74 5.48l0 0 5.46 20.37 5.46 -20.37 -10.92 0zm-7.53 -13.19l0 0 -10.55 18.26 18.27 -10.54 -7.72 -7.72zm-5.48 -10.74l0 0 -20.37 5.46 20.37 5.46 0 -10.92zm13.2 -7.54l0 0 -18.27 -10.54 10.54 18.26 7.73 -7.72z"/>
    </g>
   </g>
  </g>
 </g>
</svg>
