<?xml version="1.0" standalone="no"?>
<!DOCTYPE svg PUBLIC "-//W3C//DTD SVG 20010904//EN"
 "http://www.w3.org/TR/2001/REC-SVG-20010904/DTD/svg10.dtd">
<svg version="1.0" xmlns="http://www.w3.org/2000/svg"
 width="512.000000pt" height="512.000000pt" viewBox="0 0 512.000000 512.000000"
 preserveAspectRatio="xMidYMid meet">

<g transform="translate(0.000000,512.000000) scale(0.100000,-0.100000)"
fill="#000000" stroke="none">
<path d="M1255 5103 c-155 -32 -266 -94 -386 -214 -72 -71 -94 -101 -133 -180
-85 -174 -78 -69 -86 -1384 -4 -643 -9 -1627 -10 -2185 -3 -1094 -5 -1046 46
-1091 57 -50 122 -61 189 -30 22 10 406 237 852 505 447 267 819 489 826 492
8 3 382 -216 833 -487 450 -270 836 -500 856 -510 49 -25 104 -24 153 4 52 30
82 76 90 140 3 29 5 1013 3 2187 l-3 2135 -22 77 c-80 279 -300 484 -585 542
-68 14 -222 16 -1315 15 -1057 -1 -1248 -3 -1308 -16z m2555 -333 c129 -24
237 -105 293 -219 l32 -66 3 -2002 c1 -1102 0 -2003 -2 -2003 -2 0 -343 204
-758 452 l-753 453 -65 0 -65 0 -753 -452 c-415 -249 -756 -453 -759 -453 -9
0 8 3872 18 3949 21 168 153 307 321 340 63 13 2423 13 2488 1z"/>
</g>
</svg>
