<?xml version="1.0" standalone="no"?>
<!DOCTYPE svg PUBLIC "-//W3C//DTD SVG 20010904//EN"
 "http://www.w3.org/TR/2001/REC-SVG-20010904/DTD/svg10.dtd">
<svg version="1.0" xmlns="http://www.w3.org/2000/svg"
 width="512.000000pt" height="512.000000pt" viewBox="0 0 512.000000 512.000000"
 preserveAspectRatio="xMidYMid meet">

<g transform="translate(0.000000,512.000000) scale(0.100000,-0.100000)"
fill="#000000" stroke="none">
<path d="M199 4496 c-59 -21 -109 -56 -139 -98 -141 -195 -8 -461 230 -461
194 0 330 181 275 368 -23 80 -107 166 -185 189 -64 19 -132 20 -181 2z"/>
<path d="M1129 4495 c-60 -19 -133 -84 -166 -149 -21 -40 -27 -66 -27 -121 -1
-118 56 -210 162 -262 l57 -28 1870 0 1870 0 46 21 c63 30 116 79 147 138 35
67 38 177 6 247 -27 58 -84 116 -143 143 l-46 21 -1865 2 c-1586 1 -1872 0
-1911 -12z"/>
<path d="M227 2839 c-130 -31 -227 -150 -227 -279 0 -76 28 -140 89 -201 46
-46 70 -61 116 -74 142 -42 282 21 347 154 32 64 31 177 0 238 -65 124 -201
192 -325 162z"/>
<path d="M1160 2839 c-98 -19 -186 -103 -216 -206 -30 -105 4 -215 92 -292 88
-77 -68 -72 2009 -69 l1860 3 45 21 c223 105 222 424 -2 525 l-53 24 -1845 1
c-1031 1 -1865 -2 -1890 -7z"/>
<path d="M225 1181 c-128 -33 -225 -154 -225 -281 0 -76 28 -140 89 -201 46
-46 70 -61 116 -74 142 -42 282 21 347 154 34 67 32 177 -4 246 -33 63 -80
108 -139 134 -52 23 -140 34 -184 22z"/>
<path d="M1148 1176 c-99 -27 -175 -102 -204 -204 -38 -129 26 -265 156 -333
l45 -24 1860 -3 c2122 -3 1928 -11 2026 87 84 84 107 176 74 288 -20 68 -88
143 -157 174 l-53 24 -1850 2 c-1470 1 -1860 -1 -1897 -11z"/>
</g>
</svg>
