<?xml version="1.0" standalone="no"?>
<!DOCTYPE svg PUBLIC "-//W3C//DTD SVG 20010904//EN"
 "http://www.w3.org/TR/2001/REC-SVG-20010904/DTD/svg10.dtd">
<svg version="1.0" xmlns="http://www.w3.org/2000/svg"
 width="512.000000pt" height="512.000000pt" viewBox="0 0 512.000000 512.000000"
 preserveAspectRatio="xMidYMid meet">

<g transform="translate(0.000000,512.000000) scale(0.100000,-0.100000)"
fill="#000000" stroke="none">
<path d="M1891 5109 c-880 -99 -1601 -722 -1821 -1573 -190 -731 31 -1509 576
-2037 333 -322 729 -513 1204 -580 124 -17 413 -15 550 5 691 98 1283 526
1599 1154 400 795 240 1779 -393 2416 -315 318 -704 519 -1151 597 -139 24
-431 33 -564 18z m404 -399 c268 -31 520 -121 745 -268 373 -242 645 -636 740
-1070 130 -599 -80 -1236 -540 -1640 -408 -357 -953 -502 -1478 -392 -581 121
-1063 544 -1262 1105 -210 594 -73 1257 356 1723 366 398 910 602 1439 542z"/>
<path d="M3917 1261 c-85 -54 -115 -167 -69 -256 30 -58 946 -970 994 -990 54
-22 107 -19 166 11 102 51 139 175 80 274 -39 66 -933 955 -980 974 -62 26
-136 21 -191 -13z"/>
</g>
</svg>
