<?xml version="1.0" standalone="no"?>
<!DOCTYPE svg PUBLIC "-//W3C//DTD SVG 20010904//EN"
 "http://www.w3.org/TR/2001/REC-SVG-20010904/DTD/svg10.dtd">
<svg version="1.0" xmlns="http://www.w3.org/2000/svg"
 width="512.000000pt" height="512.000000pt" viewBox="0 0 512.000000 512.000000"
 preserveAspectRatio="xMidYMid meet">

<g transform="translate(0.000000,512.000000) scale(0.100000,-0.100000)"
fill="#000000" stroke="none">
<path d="M2415 5060 c-563 -63 -1032 -435 -1216 -966 -54 -155 -72 -272 -73
-459 -1 -104 4 -199 13 -245 62 -340 250 -663 506 -869 42 -34 70 -63 63 -65
-257 -74 -458 -163 -625 -278 -372 -256 -639 -632 -752 -1060 -52 -195 -61
-292 -61 -640 0 -310 0 -316 23 -349 12 -19 42 -44 67 -56 l44 -23 2156 0
2156 0 44 22 c25 13 55 39 68 58 l24 35 -5 360 c-4 341 -6 366 -30 481 -106
488 -377 896 -780 1172 -156 107 -355 200 -537 252 -41 12 -81 24 -88 26 -8 2
19 30 63 65 247 199 424 492 497 827 29 131 31 403 4 537 -120 604 -577 1056
-1172 1160 -108 19 -290 26 -389 15z m365 -336 c160 -33 313 -101 439 -194
557 -415 617 -1211 127 -1695 -232 -230 -501 -334 -831 -322 -174 6 -297 36
-441 108 -303 149 -513 406 -601 737 -23 86 -26 116 -26 267 0 151 3 181 25
266 54 202 138 355 270 495 128 134 250 219 402 279 208 81 425 102 636 59z
m335 -2544 c215 -21 392 -72 576 -166 349 -179 619 -485 749 -849 69 -195 82
-275 87 -547 l5 -248 -1972 0 -1972 0 4 243 c4 220 7 253 32 361 154 662 697
1141 1366 1205 127 12 998 13 1125 1z"/>
</g>
</svg>
